<svg width="24" height="24" viewBox="0 0 24 24" fill="none" xmlns="http://www.w3.org/2000/svg">
<g id="cardiology" clip-path="url(#clip0_194_791)">
<g id="Union">
<mask id="path-1-outside-1_194_791" maskUnits="userSpaceOnUse" x="-1" y="0.5" width="26" height="23" fill="black">
<rect fill="white" x="-1" y="0.5" width="26" height="23"/>
<path fill-rule="evenodd" clip-rule="evenodd" d="M8.51737 7.87483H6.75C6.65054 7.87483 6.55516 7.83532 6.48483 7.76499C6.41451 7.69466 6.375 7.59928 6.375 7.49983C6.375 7.40037 6.41451 7.30499 6.48483 7.23466C6.55516 7.16433 6.65054 7.12483 6.75 7.12483H8.21588C8.13259 6.88878 8.06248 6.64828 8.00588 6.40445C7.65675 4.83808 8.00325 3.53908 9.00825 2.64883C9.97538 1.79158 10.989 1.41208 12.0266 1.51708C13.0255 1.6632 13.9434 2.14973 14.625 2.89445C15.3065 2.14981 16.2242 1.66328 17.223 1.51708C18.2595 1.41283 19.2743 1.7912 20.2418 2.64883C21.2464 3.53908 21.5933 4.83808 21.2445 6.40483C21.1879 6.64853 21.1178 6.8889 21.0345 7.12483H22.5C22.5995 7.12483 22.6948 7.16433 22.7652 7.23466C22.8355 7.30499 22.875 7.40037 22.875 7.49983C22.875 7.59928 22.8355 7.69466 22.7652 7.76499C22.6948 7.83532 22.5995 7.87483 22.5 7.87483H20.7326C19.5874 10.3682 17.082 12.7907 14.7311 13.4845C14.6619 13.5049 14.5881 13.5049 14.5189 13.4845C12.168 12.7911 9.66262 10.3686 8.51737 7.87483ZM9.35063 7.87483C10.4486 10.0198 12.6202 12.0921 14.625 12.7326C16.6294 12.0921 18.8014 10.0195 19.8994 7.87483H16.875C16.8053 7.87486 16.737 7.85547 16.6777 7.81884C16.6184 7.78221 16.5705 7.72979 16.5394 7.66745L15.8182 6.22445L14.6055 9.8312C14.5832 9.89742 14.5429 9.95611 14.4891 10.0007C14.4354 10.0453 14.3702 10.074 14.301 10.0836C14.2841 10.0857 14.267 10.0867 14.25 10.0866C14.1888 10.0866 14.1285 10.0716 14.0744 10.043C14.0203 10.0143 13.974 9.97293 13.9395 9.92233L12.5513 7.87483H9.35063ZM9.50588 3.2102C8.5095 4.09295 8.53837 5.34582 8.7375 6.24132L8.73787 6.2417C8.80752 6.54251 8.89953 6.83771 9.01312 7.12483H12.75C12.8112 7.12477 12.8715 7.13971 12.9257 7.16835C12.9798 7.19698 13.0261 7.23843 13.0605 7.28907L14.1356 8.87495L15.3945 5.13058C15.418 5.06027 15.4619 4.99851 15.5205 4.95313C15.5792 4.90774 15.6499 4.88075 15.7239 4.87557C15.7979 4.87039 15.8717 4.88726 15.9361 4.92404C16.0005 4.96082 16.0525 5.01586 16.0856 5.0822L17.1068 7.12483H20.2369C20.3504 6.83758 20.4422 6.54226 20.5118 6.24132C20.7113 5.34545 20.7401 4.09258 19.7438 3.20983C18.942 2.49883 18.1215 2.18045 17.3048 2.2622C15.906 2.40358 14.9344 3.67633 14.925 3.68908C14.8901 3.73565 14.8448 3.77345 14.7927 3.79949C14.7406 3.82552 14.6832 3.83908 14.625 3.83908H14.6243C14.566 3.83905 14.5085 3.82548 14.4564 3.79945C14.4043 3.77342 14.3589 3.73563 14.3239 3.68908C14.3044 3.66283 13.3357 2.40283 11.9445 2.2622C11.8605 2.25358 11.7761 2.24983 11.6925 2.24983C10.8697 2.28755 10.0903 2.62985 9.50588 3.2102ZM22.1257 12.4745C22.4494 12.4589 22.7711 12.533 23.0554 12.6885C23.3426 12.8389 23.5828 13.0652 23.7494 13.3433C23.9161 13.6214 24.0028 13.9401 24 14.2642C24 14.5517 23.9307 14.835 23.798 15.09C23.6653 15.3451 23.4731 15.5644 23.2376 15.7294L14.9494 21.5306C14.1775 22.0691 13.2779 22.3955 12.3403 22.4773C11.4028 22.5591 10.4602 22.3934 9.60675 21.9967L7.3455 20.9419C6.89828 20.7338 6.41112 20.6257 5.91788 20.625H4.5V21C4.5 21.0995 4.46049 21.1948 4.39016 21.2652C4.31984 21.3355 4.22446 21.375 4.125 21.375H2.25C2.15054 21.375 2.05516 21.3355 1.98484 21.2652C1.91451 21.1948 1.875 21.0995 1.875 21V20.625H0.375C0.275544 20.625 0.180161 20.5855 0.109835 20.5152C0.0395088 20.4448 0 20.3495 0 20.25V12.75C0 12.6505 0.0395088 12.5552 0.109835 12.4848C0.180161 12.4145 0.275544 12.375 0.375 12.375H1.875V12C1.875 11.9005 1.91451 11.8052 1.98484 11.7348C2.05516 11.6645 2.15054 11.625 2.25 11.625H4.125C4.22446 11.625 4.31984 11.6645 4.39016 11.7348C4.46049 11.8052 4.5 11.9005 4.5 12V12.375H6.23962C6.87999 12.3757 7.5115 12.5247 8.08463 12.8104L13.9586 15.7474C14.2002 15.8676 14.4128 16.0387 14.582 16.2489C14.7512 16.4591 14.873 16.7034 14.9389 16.965L21.2209 12.777C21.4889 12.5948 21.802 12.4901 22.1257 12.4745ZM0.75 13.125V19.875H1.875V13.125H0.75ZM2.625 20.625H3.75V12.375H2.625V20.625ZM14.52 20.916L22.8075 15.1147C22.9441 15.019 23.0556 14.8921 23.1327 14.7441C23.2097 14.5962 23.2499 14.4318 23.25 14.265C23.2501 14.0771 23.1992 13.8927 23.1028 13.7315C23.0063 13.5703 22.8679 13.4383 22.7023 13.3496C22.5366 13.2609 22.35 13.2189 22.1624 13.2279C21.9747 13.2369 21.7931 13.2968 21.6368 13.401L14.9494 17.8594C14.8852 18.1368 14.7589 18.396 14.5801 18.6176C14.4012 18.8391 14.1744 19.0172 13.9167 19.1384C13.6591 19.2596 13.3773 19.3208 13.0926 19.3173C12.8078 19.3138 12.5276 19.2457 12.273 19.1182L6.95737 16.4606C6.86836 16.4162 6.80065 16.3382 6.76915 16.2438C6.73764 16.1494 6.74492 16.0464 6.78937 15.9574C6.83383 15.8684 6.91183 15.8007 7.00621 15.7691C7.10058 15.7376 7.20361 15.7449 7.29263 15.7894L12.6083 18.4474C12.8771 18.58 13.1875 18.6007 13.4716 18.5052C13.7557 18.4096 13.9905 18.2055 14.1245 17.9374C14.2586 17.6693 14.2811 17.359 14.1871 17.0743C14.0932 16.7897 13.8903 16.5538 13.623 16.4183L7.749 13.4813C7.28028 13.2475 6.76377 13.1256 6.24 13.125H4.5V19.875H5.91825C6.52094 19.8759 7.1162 20.008 7.66275 20.262L9.924 21.3172C10.6582 21.6584 11.4691 21.8009 12.2756 21.7305C13.0821 21.6601 13.856 21.3792 14.52 20.916Z"/>
</mask>
<path fill-rule="evenodd" clip-rule="evenodd" d="M8.51737 7.87483H6.75C6.65054 7.87483 6.55516 7.83532 6.48483 7.76499C6.41451 7.69466 6.375 7.59928 6.375 7.49983C6.375 7.40037 6.41451 7.30499 6.48483 7.23466C6.55516 7.16433 6.65054 7.12483 6.75 7.12483H8.21588C8.13259 6.88878 8.06248 6.64828 8.00588 6.40445C7.65675 4.83808 8.00325 3.53908 9.00825 2.64883C9.97538 1.79158 10.989 1.41208 12.0266 1.51708C13.0255 1.6632 13.9434 2.14973 14.625 2.89445C15.3065 2.14981 16.2242 1.66328 17.223 1.51708C18.2595 1.41283 19.2743 1.7912 20.2418 2.64883C21.2464 3.53908 21.5933 4.83808 21.2445 6.40483C21.1879 6.64853 21.1178 6.8889 21.0345 7.12483H22.5C22.5995 7.12483 22.6948 7.16433 22.7652 7.23466C22.8355 7.30499 22.875 7.40037 22.875 7.49983C22.875 7.59928 22.8355 7.69466 22.7652 7.76499C22.6948 7.83532 22.5995 7.87483 22.5 7.87483H20.7326C19.5874 10.3682 17.082 12.7907 14.7311 13.4845C14.6619 13.5049 14.5881 13.5049 14.5189 13.4845C12.168 12.7911 9.66262 10.3686 8.51737 7.87483ZM9.35063 7.87483C10.4486 10.0198 12.6202 12.0921 14.625 12.7326C16.6294 12.0921 18.8014 10.0195 19.8994 7.87483H16.875C16.8053 7.87486 16.737 7.85547 16.6777 7.81884C16.6184 7.78221 16.5705 7.72979 16.5394 7.66745L15.8182 6.22445L14.6055 9.8312C14.5832 9.89742 14.5429 9.95611 14.4891 10.0007C14.4354 10.0453 14.3702 10.074 14.301 10.0836C14.2841 10.0857 14.267 10.0867 14.25 10.0866C14.1888 10.0866 14.1285 10.0716 14.0744 10.043C14.0203 10.0143 13.974 9.97293 13.9395 9.92233L12.5513 7.87483H9.35063ZM9.50588 3.2102C8.5095 4.09295 8.53837 5.34582 8.7375 6.24132L8.73787 6.2417C8.80752 6.54251 8.89953 6.83771 9.01312 7.12483H12.75C12.8112 7.12477 12.8715 7.13971 12.9257 7.16835C12.9798 7.19698 13.0261 7.23843 13.0605 7.28907L14.1356 8.87495L15.3945 5.13058C15.418 5.06027 15.4619 4.99851 15.5205 4.95313C15.5792 4.90774 15.6499 4.88075 15.7239 4.87557C15.7979 4.87039 15.8717 4.88726 15.9361 4.92404C16.0005 4.96082 16.0525 5.01586 16.0856 5.0822L17.1068 7.12483H20.2369C20.3504 6.83758 20.4422 6.54226 20.5118 6.24132C20.7113 5.34545 20.7401 4.09258 19.7438 3.20983C18.942 2.49883 18.1215 2.18045 17.3048 2.2622C15.906 2.40358 14.9344 3.67633 14.925 3.68908C14.8901 3.73565 14.8448 3.77345 14.7927 3.79949C14.7406 3.82552 14.6832 3.83908 14.625 3.83908H14.6243C14.566 3.83905 14.5085 3.82548 14.4564 3.79945C14.4043 3.77342 14.3589 3.73563 14.3239 3.68908C14.3044 3.66283 13.3357 2.40283 11.9445 2.2622C11.8605 2.25358 11.7761 2.24983 11.6925 2.24983C10.8697 2.28755 10.0903 2.62985 9.50588 3.2102ZM22.1257 12.4745C22.4494 12.4589 22.7711 12.533 23.0554 12.6885C23.3426 12.8389 23.5828 13.0652 23.7494 13.3433C23.9161 13.6214 24.0028 13.9401 24 14.2642C24 14.5517 23.9307 14.835 23.798 15.09C23.6653 15.3451 23.4731 15.5644 23.2376 15.7294L14.9494 21.5306C14.1775 22.0691 13.2779 22.3955 12.3403 22.4773C11.4028 22.5591 10.4602 22.3934 9.60675 21.9967L7.3455 20.9419C6.89828 20.7338 6.41112 20.6257 5.91788 20.625H4.5V21C4.5 21.0995 4.46049 21.1948 4.39016 21.2652C4.31984 21.3355 4.22446 21.375 4.125 21.375H2.25C2.15054 21.375 2.05516 21.3355 1.98484 21.2652C1.91451 21.1948 1.875 21.0995 1.875 21V20.625H0.375C0.275544 20.625 0.180161 20.5855 0.109835 20.5152C0.0395088 20.4448 0 20.3495 0 20.25V12.75C0 12.6505 0.0395088 12.5552 0.109835 12.4848C0.180161 12.4145 0.275544 12.375 0.375 12.375H1.875V12C1.875 11.9005 1.91451 11.8052 1.98484 11.7348C2.05516 11.6645 2.15054 11.625 2.25 11.625H4.125C4.22446 11.625 4.31984 11.6645 4.39016 11.7348C4.46049 11.8052 4.5 11.9005 4.5 12V12.375H6.23962C6.87999 12.3757 7.5115 12.5247 8.08463 12.8104L13.9586 15.7474C14.2002 15.8676 14.4128 16.0387 14.582 16.2489C14.7512 16.4591 14.873 16.7034 14.9389 16.965L21.2209 12.777C21.4889 12.5948 21.802 12.4901 22.1257 12.4745ZM0.75 13.125V19.875H1.875V13.125H0.75ZM2.625 20.625H3.75V12.375H2.625V20.625ZM14.52 20.916L22.8075 15.1147C22.9441 15.019 23.0556 14.8921 23.1327 14.7441C23.2097 14.5962 23.2499 14.4318 23.25 14.265C23.2501 14.0771 23.1992 13.8927 23.1028 13.7315C23.0063 13.5703 22.8679 13.4383 22.7023 13.3496C22.5366 13.2609 22.35 13.2189 22.1624 13.2279C21.9747 13.2369 21.7931 13.2968 21.6368 13.401L14.9494 17.8594C14.8852 18.1368 14.7589 18.396 14.5801 18.6176C14.4012 18.8391 14.1744 19.0172 13.9167 19.1384C13.6591 19.2596 13.3773 19.3208 13.0926 19.3173C12.8078 19.3138 12.5276 19.2457 12.273 19.1182L6.95737 16.4606C6.86836 16.4162 6.80065 16.3382 6.76915 16.2438C6.73764 16.1494 6.74492 16.0464 6.78937 15.9574C6.83383 15.8684 6.91183 15.8007 7.00621 15.7691C7.10058 15.7376 7.20361 15.7449 7.29263 15.7894L12.6083 18.4474C12.8771 18.58 13.1875 18.6007 13.4716 18.5052C13.7557 18.4096 13.9905 18.2055 14.1245 17.9374C14.2586 17.6693 14.2811 17.359 14.1871 17.0743C14.0932 16.7897 13.8903 16.5538 13.623 16.4183L7.749 13.4813C7.28028 13.2475 6.76377 13.1256 6.24 13.125H4.5V19.875H5.91825C6.52094 19.8759 7.1162 20.008 7.66275 20.262L9.924 21.3172C10.6582 21.6584 11.4691 21.8009 12.2756 21.7305C13.0821 21.6601 13.856 21.3792 14.52 20.916Z" fill="#50945D"/>
<path d="M8.51737 7.87483L8.60825 7.83309L8.58149 7.77483H8.51737V7.87483ZM6.48483 7.23466L6.41412 7.16395V7.16395L6.48483 7.23466ZM8.21588 7.12483V7.22482H8.3572L8.31018 7.09155L8.21588 7.12483ZM8.00588 6.40445L7.90827 6.42621L7.90847 6.42706L8.00588 6.40445ZM9.00825 2.64883L9.07456 2.72368L9.07458 2.72366L9.00825 2.64883ZM12.0266 1.51708L12.0411 1.41803L12.0367 1.41758L12.0266 1.51708ZM14.625 2.89445L14.5512 2.96197L14.625 3.04256L14.6988 2.96196L14.625 2.89445ZM17.223 1.51708L17.213 1.41748L17.2085 1.41813L17.223 1.51708ZM20.2418 2.64883L20.1754 2.72366L20.1754 2.72367L20.2418 2.64883ZM21.2445 6.40483L21.3419 6.42745L21.3421 6.42655L21.2445 6.40483ZM21.0345 7.12483L20.9402 7.09154L20.8932 7.22482H21.0345V7.12483ZM22.7652 7.23466L22.8359 7.16395L22.7652 7.23466ZM20.7326 7.87483V7.77483H20.6685L20.6418 7.83309L20.7326 7.87483ZM14.7311 13.4845L14.7028 13.3885L14.7028 13.3886L14.7311 13.4845ZM14.5189 13.4845L14.5472 13.3886L14.5472 13.3885L14.5189 13.4845ZM14.625 12.7326L14.5946 12.8278L14.625 12.8376L14.6554 12.8278L14.625 12.7326ZM9.35063 7.87483V7.77483H9.1871L9.26161 7.92039L9.35063 7.87483ZM19.8994 7.87483L19.9884 7.9204L20.0629 7.77483H19.8994V7.87483ZM16.875 7.87483V7.77483H16.875L16.875 7.87483ZM16.6777 7.81884L16.6251 7.90391L16.6251 7.90391L16.6777 7.81884ZM16.5394 7.66745L16.6288 7.62275L16.6288 7.62275L16.5394 7.66745ZM15.8182 6.22445L15.9077 6.17975L15.8001 5.96453L15.7235 6.19258L15.8182 6.22445ZM14.6055 9.8312L14.7003 9.86308L14.7003 9.86307L14.6055 9.8312ZM14.4891 10.0007L14.4253 9.9237L14.4253 9.9237L14.4891 10.0007ZM14.301 10.0836L14.3132 10.1828L14.3147 10.1826L14.301 10.0836ZM14.25 10.0866L14.2505 9.98658L14.25 9.98658L14.25 10.0866ZM14.0744 10.043L14.1211 9.95457L14.1211 9.95457L14.0744 10.043ZM13.9395 9.92233L13.8567 9.97844L13.8568 9.97861L13.9395 9.92233ZM12.5513 7.87483L12.634 7.81871L12.6043 7.77483H12.5513V7.87483ZM8.7375 6.24132L8.63988 6.26303L8.64621 6.29148L8.66683 6.31208L8.7375 6.24132ZM9.50588 3.2102L9.5723 3.28517L9.57634 3.28116L9.50588 3.2102ZM8.73787 6.2417L8.8353 6.21914L8.82883 6.19121L8.80854 6.17094L8.73787 6.2417ZM9.01312 7.12483L8.92014 7.16162L8.94515 7.22482H9.01312V7.12483ZM12.75 7.12483V7.22482H12.7501L12.75 7.12483ZM12.9257 7.16835L12.8789 7.25674V7.25674L12.9257 7.16835ZM13.0605 7.28907L13.1433 7.23296L13.1432 7.23288L13.0605 7.28907ZM14.1356 8.87495L14.0529 8.93106L14.1661 9.09811L14.2304 8.90682L14.1356 8.87495ZM15.3945 5.13058L15.4893 5.16244L15.4893 5.16233L15.3945 5.13058ZM15.7239 4.87557L15.7169 4.77582H15.7169L15.7239 4.87557ZM15.9361 4.92404L15.9857 4.83721V4.83721L15.9361 4.92404ZM16.0856 5.0822L15.9961 5.12685L15.9962 5.12692L16.0856 5.0822ZM17.1068 7.12483L17.0173 7.16954L17.0449 7.22482H17.1068V7.12483ZM20.2369 7.12483V7.22482H20.3049L20.3299 7.16157L20.2369 7.12483ZM20.5118 6.24132L20.6092 6.26383L20.6094 6.26306L20.5118 6.24132ZM19.7438 3.20983L19.6774 3.28464L19.6774 3.28467L19.7438 3.20983ZM17.3048 2.2622L17.2948 2.1627L17.2947 2.16271L17.3048 2.2622ZM14.925 3.68908L15.005 3.74908L15.0056 3.74832L14.925 3.68908ZM14.7927 3.79949L14.748 3.71004V3.71004L14.7927 3.79949ZM14.6243 3.83908L14.6242 3.93907H14.6243V3.83908ZM14.3239 3.68908L14.2436 3.74871L14.244 3.74919L14.3239 3.68908ZM11.9445 2.2622L11.9343 2.36168L11.9344 2.36169L11.9445 2.2622ZM11.6925 2.24983V2.14972L11.6879 2.14993L11.6925 2.24983ZM23.0554 12.6885L23.0074 12.7762L23.009 12.7771L23.0554 12.6885ZM24 14.2642L23.9 14.2634V14.2642L24 14.2642ZM23.2376 15.7294L23.295 15.8113L23.295 15.8113L23.2376 15.7294ZM14.9494 21.5306L15.0066 21.6126L15.0067 21.6126L14.9494 21.5306ZM12.3403 22.4773L12.3316 22.3777L12.3403 22.4773ZM9.60675 21.9967L9.56447 22.0874L9.5646 22.0874L9.60675 21.9967ZM7.3455 20.9419L7.38778 20.8513L7.38768 20.8512L7.3455 20.9419ZM5.91788 20.625L5.91802 20.525H5.91788V20.625ZM4.5 20.625V20.525H4.4V20.625H4.5ZM4.39016 21.2652L4.31945 21.1945L4.39016 21.2652ZM1.98484 21.2652L1.91412 21.3359L1.98484 21.2652ZM1.875 20.625H1.975V20.525H1.875V20.625ZM1.875 12.375V12.475H1.975V12.375H1.875ZM1.98484 11.7348L1.91412 11.6641L1.98484 11.7348ZM4.39016 11.7348L4.31945 11.8055L4.39016 11.7348ZM4.5 12.375H4.4V12.475H4.5V12.375ZM6.23962 12.375L6.23973 12.275H6.23962V12.375ZM8.08463 12.8104L8.12935 12.7209L8.12923 12.7209L8.08463 12.8104ZM13.9586 15.7474L13.9139 15.8368L13.9141 15.8369L13.9586 15.7474ZM14.582 16.2489L14.5041 16.3116L14.582 16.2489ZM14.9389 16.965L14.8419 16.9894L14.8765 17.1268L14.9943 17.0482L14.9389 16.965ZM21.2209 12.777L21.2763 12.8602L21.2771 12.8597L21.2209 12.777ZM0.75 19.875H0.65V19.975H0.75V19.875ZM0.75 13.125V13.025H0.65V13.125H0.75ZM1.875 19.875V19.975H1.975V19.875H1.875ZM1.875 13.125H1.975V13.025H1.875V13.125ZM3.75 20.625V20.725H3.85V20.625H3.75ZM2.625 20.625H2.525V20.725H2.625V20.625ZM3.75 12.375H3.85V12.275H3.75V12.375ZM2.625 12.375V12.275H2.525V12.375H2.625ZM22.8075 15.1147L22.8648 15.1967L22.8649 15.1966L22.8075 15.1147ZM14.52 20.916L14.5772 20.998L14.5773 20.9979L14.52 20.916ZM23.1327 14.7441L23.2214 14.7903V14.7903L23.1327 14.7441ZM23.25 14.265L23.15 14.2649V14.265L23.25 14.265ZM23.1028 13.7315L23.017 13.7829H23.017L23.1028 13.7315ZM22.7023 13.3496L22.7495 13.2615V13.2615L22.7023 13.3496ZM21.6368 13.401L21.6922 13.4842L21.6922 13.4842L21.6368 13.401ZM14.9494 17.8594L14.8939 17.7762L14.8609 17.7982L14.8519 17.8368L14.9494 17.8594ZM14.5801 18.6176L14.5023 18.5548L14.5801 18.6176ZM13.9167 19.1384L13.8742 19.0479H13.8742L13.9167 19.1384ZM13.0926 19.3173L13.0938 19.2173L13.0926 19.3173ZM12.273 19.1182L12.3178 19.0288L12.3177 19.0288L12.273 19.1182ZM6.95737 16.4606L7.00209 16.3712L7.00206 16.3712L6.95737 16.4606ZM6.76915 16.2438L6.864 16.2121L6.76915 16.2438ZM7.29263 15.7894L7.33735 15.6999L7.33731 15.6999L7.29263 15.7894ZM12.6083 18.4474L12.5635 18.5368L12.564 18.5371L12.6083 18.4474ZM13.4716 18.5052L13.5035 18.5999L13.4716 18.5052ZM14.1245 17.9374L14.214 17.9821L14.1245 17.9374ZM14.1871 17.0743L14.0922 17.1057V17.1057L14.1871 17.0743ZM13.623 16.4183L13.6682 16.3291L13.6677 16.3288L13.623 16.4183ZM7.749 13.4813L7.79372 13.3918L7.79363 13.3918L7.749 13.4813ZM6.24 13.125L6.24011 13.025H6.24V13.125ZM4.5 13.125V13.025H4.4V13.125H4.5ZM4.5 19.875H4.4V19.975H4.5V19.875ZM5.91825 19.875L5.91841 19.775H5.91825V19.875ZM7.66275 20.262L7.70504 20.1714L7.7049 20.1713L7.66275 20.262ZM9.924 21.3172L9.88171 21.4079L9.88186 21.4079L9.924 21.3172ZM12.2756 21.7305L12.2843 21.8301L12.2756 21.7305ZM6.75 7.97483H8.51737V7.77483H6.75V7.97483ZM6.41412 7.8357C6.5032 7.92478 6.62402 7.97483 6.75 7.97483V7.77483C6.67706 7.77483 6.60712 7.74585 6.55555 7.69428L6.41412 7.8357ZM6.275 7.49983C6.275 7.6258 6.32504 7.74662 6.41412 7.8357L6.55555 7.69428C6.50397 7.64271 6.475 7.57276 6.475 7.49983H6.275ZM6.41412 7.16395C6.32504 7.25303 6.275 7.37385 6.275 7.49983H6.475C6.475 7.42689 6.50397 7.35694 6.55555 7.30537L6.41412 7.16395ZM6.75 7.02483C6.62402 7.02483 6.5032 7.07487 6.41412 7.16395L6.55555 7.30537C6.60712 7.2538 6.67707 7.22482 6.75 7.22482V7.02483ZM8.21588 7.02483H6.75V7.22482H8.21588V7.02483ZM7.90847 6.42706C7.96591 6.6745 8.03705 6.91856 8.12157 7.1581L8.31018 7.09155C8.22812 6.85899 8.15905 6.62206 8.10329 6.38184L7.90847 6.42706ZM8.94194 2.57397C7.90391 3.49348 7.55308 4.83261 7.90827 6.42621L8.10348 6.3827C7.76042 4.84354 8.10259 3.58467 9.07456 2.72368L8.94194 2.57397ZM12.0367 1.41758C10.9649 1.30913 9.92463 1.70293 8.94192 2.57399L9.07458 2.72366C10.0261 1.88022 11.0131 1.51502 12.0166 1.61657L12.0367 1.41758ZM14.6988 2.82693C14.0016 2.06522 13.0628 1.56758 12.0411 1.41813L12.0122 1.61602C12.9883 1.75881 13.8852 2.23424 14.5512 2.96197L14.6988 2.82693ZM17.2085 1.41813C16.1869 1.56767 15.2483 2.0653 14.5512 2.82694L14.6988 2.96196C15.3647 2.23432 16.2615 1.75889 17.2375 1.61602L17.2085 1.41813ZM20.3081 2.57399C19.3249 1.7025 18.2835 1.3099 17.213 1.41758L17.233 1.61657C18.2355 1.51575 19.2236 1.8799 20.1754 2.72366L20.3081 2.57399ZM21.3421 6.42655C21.6969 4.83259 21.3457 3.49348 20.3081 2.57398L20.1754 2.72367C21.147 3.58467 21.4896 4.84356 21.1469 6.3831L21.3421 6.42655ZM21.1288 7.15811C21.2133 6.91869 21.2845 6.67476 21.3419 6.42745L21.1471 6.3822C21.0913 6.62229 21.0222 6.85911 20.9402 7.09154L21.1288 7.15811ZM22.5 7.02483H21.0345V7.22482H22.5V7.02483ZM22.8359 7.16395C22.7468 7.07487 22.626 7.02483 22.5 7.02483V7.22482C22.5729 7.22482 22.6429 7.2538 22.6945 7.30537L22.8359 7.16395ZM22.975 7.49983C22.975 7.37385 22.925 7.25303 22.8359 7.16395L22.6945 7.30537C22.746 7.35694 22.775 7.42689 22.775 7.49983H22.975ZM22.8359 7.8357C22.925 7.74662 22.975 7.6258 22.975 7.49983H22.775C22.775 7.57276 22.746 7.64271 22.6945 7.69428L22.8359 7.8357ZM22.5 7.97483C22.626 7.97483 22.7468 7.92478 22.8359 7.8357L22.6945 7.69428C22.6429 7.74585 22.5729 7.77483 22.5 7.77483V7.97483ZM20.7326 7.97483H22.5V7.77483H20.7326V7.97483ZM14.7594 13.5804C15.9543 13.2278 17.1816 12.4384 18.2526 11.4272C19.3241 10.4155 20.2449 9.17629 20.8235 7.91656L20.6418 7.83309C20.0751 9.06674 19.1705 10.2855 18.1153 11.2818C17.0596 12.2786 15.8588 13.0474 14.7028 13.3885L14.7594 13.5804ZM14.4905 13.5803C14.5783 13.6063 14.6717 13.6063 14.7595 13.5803L14.7028 13.3886C14.652 13.4036 14.598 13.4036 14.5472 13.3886L14.4905 13.5803ZM8.4265 7.91656C9.00511 9.17647 9.92585 10.4158 10.9974 11.4275C12.0684 12.4387 13.2957 13.2279 14.4906 13.5804L14.5472 13.3885C13.3911 13.0476 12.1904 12.2789 11.1347 11.2821C10.0795 10.2857 9.17489 9.06693 8.60825 7.83309L8.4265 7.91656ZM14.6554 12.6373C12.682 12.0068 10.5287 9.9568 9.43964 7.82926L9.26161 7.92039C10.3685 10.0828 12.5585 12.1773 14.5946 12.8278L14.6554 12.6373ZM19.8104 7.82925C18.7213 9.95643 16.5676 12.0068 14.5946 12.6373L14.6554 12.8278C16.6912 12.1773 18.8815 10.0825 19.9884 7.9204L19.8104 7.82925ZM16.875 7.97483H19.8994V7.77483H16.875V7.97483ZM16.6251 7.90391C16.7002 7.95031 16.7868 7.97487 16.875 7.97483L16.875 7.77483C16.8239 7.77485 16.7738 7.76063 16.7303 7.73377L16.6251 7.90391ZM16.4499 7.71215C16.4894 7.79111 16.5501 7.85752 16.6251 7.90391L16.7303 7.73377C16.6868 7.70691 16.6517 7.66846 16.6288 7.62275L16.4499 7.71215ZM15.7288 6.26915L16.4499 7.71215L16.6288 7.62275L15.9077 6.17975L15.7288 6.26915ZM14.7003 9.86307L15.913 6.25632L15.7235 6.19258L14.5107 9.79933L14.7003 9.86307ZM14.553 10.0777C14.6211 10.0212 14.6721 9.94692 14.7003 9.86308L14.5107 9.79931C14.4944 9.84791 14.4648 9.89098 14.4253 9.9237L14.553 10.0777ZM14.3147 10.1826C14.4024 10.1705 14.4848 10.1341 14.553 10.0777L14.4253 9.9237C14.3859 9.95642 14.338 9.97748 14.2873 9.98452L14.3147 10.1826ZM14.2495 10.1866C14.2708 10.1867 14.2921 10.1854 14.3132 10.1828L14.2888 9.98433C14.2761 9.98589 14.2633 9.98664 14.2505 9.98658L14.2495 10.1866ZM14.0276 10.1314C14.0961 10.1676 14.1725 10.1866 14.25 10.1866L14.25 9.98658C14.2051 9.98657 14.1608 9.97558 14.1211 9.95457L14.0276 10.1314ZM13.8568 9.97861C13.9005 10.0427 13.9591 10.0951 14.0276 10.1314L14.1211 9.95457C14.0814 9.93357 14.0474 9.90317 14.0222 9.86604L13.8568 9.97861ZM12.4685 7.93094L13.8567 9.97844L14.0223 9.86621L12.634 7.81871L12.4685 7.93094ZM9.35063 7.97483H12.5513V7.77483H9.35063V7.97483ZM8.83512 6.21962C8.63853 5.33554 8.61748 4.13088 9.57219 3.28505L9.43956 3.13535C8.40152 4.05502 8.43822 5.35611 8.63988 6.26303L8.83512 6.21962ZM8.80854 6.17094L8.80816 6.17057L8.66683 6.31208L8.66721 6.31246L8.80854 6.17094ZM9.10611 7.08803C8.99434 6.80555 8.90382 6.51511 8.8353 6.21914L8.64045 6.26426C8.71122 6.56992 8.80471 6.86987 8.92014 7.16162L9.10611 7.08803ZM12.75 7.02483H9.01312V7.22482H12.75V7.02483ZM12.9724 7.07995C12.9039 7.04369 12.8275 7.02476 12.7499 7.02483L12.7501 7.22482C12.795 7.22479 12.8392 7.23574 12.8789 7.25674L12.9724 7.07995ZM13.1432 7.23288C13.0996 7.16872 13.041 7.11622 12.9724 7.07995L12.8789 7.25674C12.9186 7.27774 12.9526 7.30813 12.9778 7.34527L13.1432 7.23288ZM14.2184 8.81884L13.1433 7.23296L12.9777 7.34519L14.0529 8.93106L14.2184 8.81884ZM15.2997 5.09871L14.0408 8.84308L14.2304 8.90682L15.4893 5.16244L15.2997 5.09871ZM15.4593 4.87405C15.3851 4.93154 15.3295 5.00976 15.2997 5.09882L15.4893 5.16233C15.5066 5.11077 15.5388 5.06549 15.5818 5.0322L15.4593 4.87405ZM15.7169 4.77582C15.6232 4.78237 15.5336 4.81656 15.4593 4.87405L15.5818 5.0322C15.6247 4.99892 15.6766 4.97912 15.7309 4.97533L15.7169 4.77582ZM15.9857 4.83721C15.9041 4.79062 15.8106 4.76926 15.7169 4.77582L15.7309 4.97533C15.7851 4.97153 15.8393 4.9839 15.8865 5.01087L15.9857 4.83721ZM16.1751 5.03755C16.1332 4.95351 16.0672 4.88379 15.9857 4.83721L15.8865 5.01087C15.9337 5.03784 15.9719 5.0782 15.9961 5.12685L16.1751 5.03755ZM17.1962 7.08011L16.1751 5.03749L15.9962 5.12692L17.0173 7.16954L17.1962 7.08011ZM20.2369 7.02483H17.1068V7.22482H20.2369V7.02483ZM20.4143 6.21882C20.3459 6.5149 20.2555 6.80546 20.1439 7.08808L20.3299 7.16157C20.4452 6.86969 20.5386 6.56961 20.6092 6.26383L20.4143 6.21882ZM19.6774 3.28467C20.6321 4.1305 20.6111 5.33515 20.4141 6.21959L20.6094 6.26306C20.8114 5.35575 20.8481 4.05465 19.8101 3.13498L19.6774 3.28467ZM17.3147 2.3617C18.0959 2.28351 18.8898 2.58623 19.6774 3.28464L19.8101 3.13501C18.9942 2.41142 18.1471 2.07739 17.2948 2.1627L17.3147 2.3617ZM15.0056 3.74832C15.0054 3.74851 15.0654 3.66947 15.1774 3.54859C15.2892 3.42803 15.4517 3.26682 15.6566 3.10175C16.0678 2.77054 16.6423 2.42966 17.3148 2.36169L17.2947 2.16271C16.5684 2.23611 15.9578 2.6023 15.5311 2.946C15.1039 3.29014 14.8529 3.61835 14.8444 3.62983L15.0056 3.74832ZM14.8374 3.88893C14.9034 3.85595 14.9608 3.80807 15.005 3.74907L14.845 3.62908C14.8194 3.66323 14.7862 3.69095 14.748 3.71004L14.8374 3.88893ZM14.625 3.93907C14.6987 3.93907 14.7715 3.92191 14.8374 3.88893L14.748 3.71004C14.7098 3.72914 14.6677 3.73908 14.625 3.73908V3.93907ZM14.6243 3.93907H14.625V3.73908H14.6243V3.93907ZM14.4117 3.88892C14.4777 3.92187 14.5504 3.93904 14.6242 3.93907L14.6243 3.73908C14.5815 3.73905 14.5393 3.7291 14.5011 3.70999L14.4117 3.88892ZM14.244 3.74919C14.2883 3.80813 14.3457 3.85596 14.4117 3.88892L14.5011 3.70999C14.4628 3.69088 14.4295 3.66314 14.4038 3.62896L14.244 3.74919ZM11.9344 2.36169C12.6033 2.4293 13.1753 2.76691 13.586 3.09652C13.7907 3.2608 13.9536 3.42167 14.0663 3.54291C14.1226 3.6035 14.1663 3.65406 14.1963 3.69006C14.2113 3.70805 14.2229 3.72238 14.2309 3.73248C14.2349 3.73753 14.238 3.7415 14.2402 3.74432C14.2413 3.74573 14.2422 3.74684 14.2428 3.74763C14.2434 3.74849 14.2437 3.74881 14.2436 3.74871L14.4041 3.62944C14.3908 3.61152 14.1381 3.28313 13.7112 2.94054C13.2849 2.59843 12.677 2.23573 11.9546 2.16271L11.9344 2.36169ZM11.6925 2.34983C11.7732 2.34983 11.8541 2.35344 11.9343 2.36168L11.9547 2.16272C11.8669 2.15371 11.7791 2.14983 11.6925 2.14983V2.34983ZM9.57634 3.28116C10.1432 2.7183 10.8991 2.38631 11.6971 2.34972L11.6879 2.14993C10.8403 2.18879 10.0375 2.54141 9.43542 3.13924L9.57634 3.28116ZM23.1034 12.6008C22.8029 12.4364 22.4629 12.3581 22.1208 12.3746L22.1305 12.5744C22.4358 12.5597 22.7392 12.6295 23.0074 12.7762L23.1034 12.6008ZM23.8352 13.2919C23.6591 12.9979 23.4052 12.7588 23.1018 12.5999L23.009 12.7771C23.28 12.9189 23.5065 13.1324 23.6637 13.3947L23.8352 13.2919ZM24.1 14.2651C24.103 13.9225 24.0114 13.5857 23.8352 13.2919L23.6637 13.3947C23.8209 13.657 23.9027 13.9576 23.9 14.2634L24.1 14.2651ZM23.8867 15.1362C24.0268 14.8669 24.1 14.5678 24.1 14.2643L23.9 14.2642C23.9 14.5357 23.8346 14.8031 23.7093 15.0439L23.8867 15.1362ZM23.295 15.8113C23.5436 15.6371 23.7466 15.4055 23.8867 15.1362L23.7093 15.0439C23.584 15.2847 23.4025 15.4917 23.1802 15.6475L23.295 15.8113ZM15.0067 21.6126L23.295 15.8113L23.1803 15.6474L14.892 21.4487L15.0067 21.6126ZM12.349 22.5769C13.304 22.4936 14.2204 22.1611 15.0066 21.6126L14.8922 21.4486C14.1347 21.977 13.2517 22.2974 12.3316 22.3777L12.349 22.5769ZM9.5646 22.0874C10.4339 22.4914 11.394 22.6602 12.349 22.5769L12.3316 22.3777C11.4115 22.4579 10.4865 22.2953 9.6489 21.9061L9.5646 22.0874ZM7.30322 21.0325L9.56447 22.0874L9.64903 21.9061L7.38778 20.8513L7.30322 21.0325ZM5.91773 20.725C6.39645 20.7257 6.86927 20.8306 7.30332 21.0325L7.38768 20.8512C6.92729 20.637 6.42578 20.5257 5.91802 20.525L5.91773 20.725ZM4.5 20.725H5.91788V20.525H4.5V20.725ZM4.6 21V20.625H4.4V21H4.6ZM4.46088 21.3359C4.54996 21.2468 4.6 21.126 4.6 21H4.4C4.4 21.0729 4.37103 21.1429 4.31945 21.1945L4.46088 21.3359ZM4.125 21.475C4.25098 21.475 4.3718 21.425 4.46088 21.3359L4.31945 21.1945C4.26788 21.246 4.19793 21.275 4.125 21.275V21.475ZM2.25 21.475H4.125V21.275H2.25V21.475ZM1.91412 21.3359C2.0032 21.425 2.12402 21.475 2.25 21.475V21.275C2.17707 21.275 2.10712 21.246 2.05555 21.1945L1.91412 21.3359ZM1.775 21C1.775 21.126 1.82504 21.2468 1.91412 21.3359L2.05555 21.1945C2.00397 21.1429 1.975 21.0729 1.975 21H1.775ZM1.775 20.625V21H1.975V20.625H1.775ZM0.375 20.725H1.875V20.525H0.375V20.725ZM0.0391244 20.5859C0.128204 20.675 0.249022 20.725 0.375 20.725V20.525C0.302065 20.525 0.232118 20.496 0.180545 20.4445L0.0391244 20.5859ZM-0.1 20.25C-0.1 20.376 -0.0499556 20.4968 0.0391244 20.5859L0.180545 20.4445C0.128973 20.3929 0.1 20.3229 0.1 20.25H-0.1ZM-0.1 12.75V20.25H0.1V12.75H-0.1ZM0.0391244 12.4141C-0.0499557 12.5032 -0.1 12.624 -0.1 12.75H0.1C0.1 12.6771 0.128973 12.6071 0.180545 12.5555L0.0391244 12.4141ZM0.375 12.275C0.249022 12.275 0.128204 12.325 0.0391244 12.4141L0.180545 12.5555C0.232118 12.504 0.302065 12.475 0.375 12.475V12.275ZM1.875 12.275H0.375V12.475H1.875V12.275ZM1.775 12V12.375H1.975V12H1.775ZM1.91412 11.6641C1.82504 11.7532 1.775 11.874 1.775 12H1.975C1.975 11.9271 2.00397 11.8571 2.05555 11.8055L1.91412 11.6641ZM2.25 11.525C2.12402 11.525 2.0032 11.575 1.91412 11.6641L2.05555 11.8055C2.10712 11.754 2.17707 11.725 2.25 11.725V11.525ZM4.125 11.525H2.25V11.725H4.125V11.525ZM4.46088 11.6641C4.3718 11.575 4.25098 11.525 4.125 11.525V11.725C4.19793 11.725 4.26788 11.754 4.31945 11.8055L4.46088 11.6641ZM4.6 12C4.6 11.874 4.54996 11.7532 4.46088 11.6641L4.31945 11.8055C4.37103 11.8571 4.4 11.9271 4.4 12H4.6ZM4.6 12.375V12H4.4V12.375H4.6ZM6.23962 12.275H4.5V12.475H6.23962V12.275ZM8.12923 12.7209C7.54229 12.4283 6.89555 12.2757 6.23973 12.275L6.23952 12.475C6.86444 12.4757 7.48072 12.6211 8.04002 12.8999L8.12923 12.7209ZM14.0033 15.6579L8.12935 12.7209L8.0399 12.8998L13.9139 15.8368L14.0033 15.6579ZM14.6599 16.1862C14.4817 15.9648 14.2576 15.7845 14.0032 15.6579L13.9141 15.8369C14.1427 15.9507 14.344 16.1126 14.5041 16.3116L14.6599 16.1862ZM15.0358 16.9406C14.9664 16.6649 14.8382 16.4076 14.6599 16.1862L14.5041 16.3116C14.6643 16.5105 14.7795 16.7418 14.8419 16.9894L15.0358 16.9406ZM21.1654 12.6938L14.8834 16.8818L14.9943 17.0482L21.2763 12.8602L21.1654 12.6938ZM22.1208 12.3746C21.7788 12.3911 21.4479 12.5018 21.1647 12.6943L21.2771 12.8597C21.5299 12.6879 21.8252 12.5891 22.1305 12.5744L22.1208 12.3746ZM0.85 19.875V13.125H0.65V19.875H0.85ZM1.875 19.775H0.75V19.975H1.875V19.775ZM1.775 13.125V19.875H1.975V13.125H1.775ZM0.75 13.225H1.875V13.025H0.75V13.225ZM3.75 20.525H2.625V20.725H3.75V20.525ZM3.65 12.375V20.625H3.85V12.375H3.65ZM2.625 12.475H3.75V12.275H2.625V12.475ZM2.725 20.625V12.375H2.525V20.625H2.725ZM22.7502 15.0328L14.4627 20.8341L14.5773 20.9979L22.8648 15.1967L22.7502 15.0328ZM23.044 14.698C22.9744 14.8316 22.8736 14.9463 22.7501 15.0329L22.8649 15.1966C23.0146 15.0917 23.1369 14.9526 23.2214 14.7903L23.044 14.698ZM23.15 14.265C23.1499 14.4157 23.1136 14.5642 23.044 14.698L23.2214 14.7903C23.3058 14.6281 23.3499 14.4479 23.35 14.265L23.15 14.265ZM23.017 13.7829C23.1041 13.9286 23.1501 14.0952 23.15 14.2649L23.35 14.2651C23.3501 14.0591 23.2943 13.8569 23.1886 13.6802L23.017 13.7829ZM22.655 13.4378C22.8047 13.5179 22.9298 13.6372 23.017 13.7829L23.1886 13.6802C23.0828 13.5034 22.931 13.3587 22.7495 13.2615L22.655 13.4378ZM22.1672 13.3278C22.3368 13.3196 22.5054 13.3576 22.655 13.4378L22.7495 13.2615C22.5679 13.1642 22.3633 13.1181 22.1576 13.128L22.1672 13.3278ZM21.6922 13.4842C21.8335 13.39 21.9976 13.336 22.1672 13.3278L22.1576 13.128C21.9518 13.1379 21.7527 13.2035 21.5813 13.3178L21.6922 13.4842ZM15.0048 17.9426L21.6922 13.4842L21.5813 13.3178L14.8939 17.7762L15.0048 17.9426ZM14.6579 18.6804C14.8463 18.4471 14.9792 18.1741 15.0468 17.8819L14.8519 17.8368C14.7912 18.0995 14.6716 18.345 14.5023 18.5548L14.6579 18.6804ZM13.9593 19.2289C14.2307 19.1013 14.4695 18.9137 14.6579 18.6804L14.5023 18.5548C14.3329 18.7646 14.1182 18.9332 13.8742 19.0479L13.9593 19.2289ZM13.0913 19.4173C13.3912 19.4209 13.688 19.3565 13.9593 19.2289L13.8742 19.0479C13.6302 19.1627 13.3634 19.2206 13.0938 19.2173L13.0913 19.4173ZM12.2282 19.2077C12.4964 19.3419 12.7915 19.4136 13.0913 19.4173L13.0938 19.2173C12.8242 19.214 12.5589 19.1495 12.3178 19.0288L12.2282 19.2077ZM6.91266 16.5501L12.2283 19.2077L12.3177 19.0288L7.00209 16.3712L6.91266 16.5501ZM6.67429 16.2755C6.7142 16.395 6.79995 16.4938 6.91269 16.5501L7.00206 16.3712C6.93677 16.3386 6.88711 16.2814 6.864 16.2121L6.67429 16.2755ZM6.69991 15.9127C6.6436 16.0254 6.63439 16.1559 6.67429 16.2755L6.864 16.2121C6.8409 16.1429 6.84623 16.0673 6.87884 16.0021L6.69991 15.9127ZM6.97454 15.6743C6.85501 15.7142 6.75622 15.8 6.69991 15.9127L6.87884 16.0021C6.91144 15.9368 6.96865 15.8871 7.03787 15.864L6.97454 15.6743ZM7.33731 15.6999C7.22457 15.6436 7.09408 15.6344 6.97454 15.6743L7.03787 15.864C7.10709 15.8409 7.18266 15.8462 7.24794 15.8788L7.33731 15.6999ZM12.653 18.3579L7.33735 15.6999L7.2479 15.8788L12.5635 18.5368L12.653 18.3579ZM13.4397 18.4104C13.1807 18.4975 12.8976 18.4786 12.6525 18.3577L12.564 18.5371C12.8566 18.6813 13.1943 18.7039 13.5035 18.5999L13.4397 18.4104ZM14.0351 17.8926C13.9128 18.1371 13.6988 18.3232 13.4397 18.4104L13.5035 18.5999C13.8126 18.496 14.0681 18.2738 14.214 17.9821L14.0351 17.8926ZM14.0922 17.1057C14.1779 17.3652 14.1574 17.6482 14.0351 17.8926L14.214 17.9821C14.3599 17.6904 14.3844 17.3527 14.2821 17.043L14.0922 17.1057ZM13.5778 16.5074C13.8216 16.6311 14.0065 16.8461 14.0922 17.1057L14.2821 17.043C14.1798 16.7333 13.9591 16.4766 13.6682 16.3291L13.5778 16.5074ZM7.70428 13.5707L13.5783 16.5077L13.6677 16.3288L7.79372 13.3918L7.70428 13.5707ZM6.23989 13.225C6.74821 13.2255 7.24948 13.3439 7.70437 13.5707L7.79363 13.3918C7.31108 13.1511 6.77933 13.0256 6.24011 13.025L6.23989 13.225ZM4.5 13.225H6.24V13.025H4.5V13.225ZM4.6 19.875V13.125H4.4V19.875H4.6ZM5.91825 19.775H4.5V19.975H5.91825V19.775ZM7.7049 20.1713C7.14519 19.9112 6.5356 19.776 5.91841 19.775L5.91809 19.975C6.50627 19.9759 7.08721 20.1048 7.6206 20.3527L7.7049 20.1713ZM9.96629 21.2266L7.70504 20.1714L7.62046 20.3526L9.88171 21.4079L9.96629 21.2266ZM12.2669 21.6309C11.4778 21.6998 10.6845 21.5604 9.96614 21.2266L9.88186 21.4079C10.6319 21.7565 11.4603 21.9021 12.2843 21.8301L12.2669 21.6309ZM14.4628 20.834C13.8132 21.2872 13.056 21.562 12.2669 21.6309L12.2843 21.8301C13.1082 21.7582 13.8989 21.4713 14.5772 20.998L14.4628 20.834Z" fill="#50945D" mask="url(#path-1-outside-1_194_791)"/>
</g>
</g>
<defs>
<clipPath id="clip0_194_791">
<rect width="24" height="24" fill="white"/>
</clipPath>
</defs>
</svg>
