<svg width="24" height="24" viewBox="0 0 24 24" fill="none" xmlns="http://www.w3.org/2000/svg">
<g id="Heart Care">
<g id="Union">
<mask id="path-1-outside-1_194_1490" maskUnits="userSpaceOnUse" x="1.24512" y="1.8418" width="21" height="20" fill="black">
<rect fill="white" x="1.24512" y="1.8418" width="21" height="20"/>
<path fill-rule="evenodd" clip-rule="evenodd" d="M11.8183 21.0971C11.8869 21.1387 11.964 21.1597 12.0411 21.1597C12.1183 21.1597 12.1959 21.1387 12.264 21.0975C14.8671 19.5127 17.5483 16.6485 18.9146 15.0821C20.0413 13.7908 20.8457 12.4254 21.3056 11.0231C22.3041 7.98281 21.6441 5.55581 19.3963 4.00524C15.5764 1.36995 12.8983 3.89424 12.0411 4.91467C11.1836 3.89338 8.50543 1.36995 4.68558 4.00524C2.75572 5.33681 1.98815 7.35367 2.46643 9.83852C2.48792 9.95014 2.55286 10.0487 2.64697 10.1124C2.74109 10.1761 2.85667 10.1999 2.96829 10.1784C3.02356 10.1677 3.07619 10.1463 3.12318 10.1153C3.17017 10.0844 3.2106 10.0444 3.24216 9.99784C3.30589 9.90372 3.32963 9.78814 3.30815 9.67652C2.89329 7.52124 3.52072 5.85024 5.17243 4.71067C8.64858 2.31195 10.9401 4.85038 11.5594 5.68567C11.7853 5.98995 12.2974 5.98995 12.5229 5.68567C13.1426 4.85081 15.435 2.31238 18.9094 4.71067C20.8393 6.04138 21.3711 8.07538 20.4909 10.7557C20.0666 12.0482 19.3187 13.3138 18.2679 14.5185C16.9736 16.0022 14.4759 18.6757 12.0407 20.2262C9.60515 18.6757 7.10786 16.0022 5.81315 14.5185C5.30058 13.9358 4.8436 13.3065 4.44815 12.6388C4.38802 12.5462 4.2945 12.4804 4.18705 12.455C4.0796 12.4295 3.9665 12.4465 3.87126 12.5024C3.77603 12.5583 3.70601 12.6487 3.67576 12.7549C3.64551 12.8611 3.65737 12.9749 3.70886 13.0725C4.13164 13.7861 4.62004 14.4588 5.16772 15.0817C6.534 16.6477 9.21515 19.5118 11.8183 21.0971ZM9.55955 15.393H9.56683C9.6611 15.3931 9.75275 15.362 9.82749 15.3046C9.90222 15.2471 9.95584 15.1666 9.97997 15.0754L11.2455 10.3436L11.5065 11.4223C11.5291 11.5158 11.5825 11.5989 11.6581 11.6584C11.7336 11.7178 11.827 11.7502 11.9231 11.7502H14.9947C15.1084 11.7502 15.2174 11.705 15.2977 11.6246C15.3781 11.5443 15.4233 11.4353 15.4233 11.3216C15.4233 11.2079 15.3781 11.0989 15.2977 11.0185C15.2174 10.9382 15.1084 10.893 14.9947 10.893H12.2608L11.6835 8.50673C11.6612 8.41413 11.6086 8.33162 11.5341 8.27224C11.4595 8.21287 11.3674 8.18002 11.2721 8.17887C11.1765 8.17621 11.0828 8.20628 11.0066 8.26411C10.9304 8.32194 10.8762 8.40405 10.853 8.49687L9.59597 13.1953L8.1624 7.01101C8.14213 6.92274 8.09435 6.84317 8.02596 6.78379C7.95756 6.72441 7.87208 6.68827 7.78183 6.68059C7.69153 6.67206 7.60087 6.69273 7.52319 6.73956C7.44551 6.78639 7.38489 6.8569 7.35026 6.94073L5.71097 10.8219H2.67369C2.56002 10.8219 2.45102 10.867 2.37064 10.9474C2.29027 11.0278 2.24512 11.1368 2.24512 11.2504C2.24512 11.3641 2.29027 11.4731 2.37064 11.5535C2.45102 11.6339 2.56002 11.679 2.67369 11.679H5.99512C6.16697 11.679 6.32255 11.5757 6.38983 11.4172L7.62583 8.49087L9.14897 15.0613C9.17065 15.1544 9.22282 15.2377 9.29721 15.2978C9.37159 15.3579 9.46393 15.3914 9.55955 15.393Z"/>
</mask>
<path fill-rule="evenodd" clip-rule="evenodd" d="M11.8183 21.0971C11.8869 21.1387 11.964 21.1597 12.0411 21.1597C12.1183 21.1597 12.1959 21.1387 12.264 21.0975C14.8671 19.5127 17.5483 16.6485 18.9146 15.0821C20.0413 13.7908 20.8457 12.4254 21.3056 11.0231C22.3041 7.98281 21.6441 5.55581 19.3963 4.00524C15.5764 1.36995 12.8983 3.89424 12.0411 4.91467C11.1836 3.89338 8.50543 1.36995 4.68558 4.00524C2.75572 5.33681 1.98815 7.35367 2.46643 9.83852C2.48792 9.95014 2.55286 10.0487 2.64697 10.1124C2.74109 10.1761 2.85667 10.1999 2.96829 10.1784C3.02356 10.1677 3.07619 10.1463 3.12318 10.1153C3.17017 10.0844 3.2106 10.0444 3.24216 9.99784C3.30589 9.90372 3.32963 9.78814 3.30815 9.67652C2.89329 7.52124 3.52072 5.85024 5.17243 4.71067C8.64858 2.31195 10.9401 4.85038 11.5594 5.68567C11.7853 5.98995 12.2974 5.98995 12.5229 5.68567C13.1426 4.85081 15.435 2.31238 18.9094 4.71067C20.8393 6.04138 21.3711 8.07538 20.4909 10.7557C20.0666 12.0482 19.3187 13.3138 18.2679 14.5185C16.9736 16.0022 14.4759 18.6757 12.0407 20.2262C9.60515 18.6757 7.10786 16.0022 5.81315 14.5185C5.30058 13.9358 4.8436 13.3065 4.44815 12.6388C4.38802 12.5462 4.2945 12.4804 4.18705 12.455C4.0796 12.4295 3.9665 12.4465 3.87126 12.5024C3.77603 12.5583 3.70601 12.6487 3.67576 12.7549C3.64551 12.8611 3.65737 12.9749 3.70886 13.0725C4.13164 13.7861 4.62004 14.4588 5.16772 15.0817C6.534 16.6477 9.21515 19.5118 11.8183 21.0971ZM9.55955 15.393H9.56683C9.6611 15.3931 9.75275 15.362 9.82749 15.3046C9.90222 15.2471 9.95584 15.1666 9.97997 15.0754L11.2455 10.3436L11.5065 11.4223C11.5291 11.5158 11.5825 11.5989 11.6581 11.6584C11.7336 11.7178 11.827 11.7502 11.9231 11.7502H14.9947C15.1084 11.7502 15.2174 11.705 15.2977 11.6246C15.3781 11.5443 15.4233 11.4353 15.4233 11.3216C15.4233 11.2079 15.3781 11.0989 15.2977 11.0185C15.2174 10.9382 15.1084 10.893 14.9947 10.893H12.2608L11.6835 8.50673C11.6612 8.41413 11.6086 8.33162 11.5341 8.27224C11.4595 8.21287 11.3674 8.18002 11.2721 8.17887C11.1765 8.17621 11.0828 8.20628 11.0066 8.26411C10.9304 8.32194 10.8762 8.40405 10.853 8.49687L9.59597 13.1953L8.1624 7.01101C8.14213 6.92274 8.09435 6.84317 8.02596 6.78379C7.95756 6.72441 7.87208 6.68827 7.78183 6.68059C7.69153 6.67206 7.60087 6.69273 7.52319 6.73956C7.44551 6.78639 7.38489 6.8569 7.35026 6.94073L5.71097 10.8219H2.67369C2.56002 10.8219 2.45102 10.867 2.37064 10.9474C2.29027 11.0278 2.24512 11.1368 2.24512 11.2504C2.24512 11.3641 2.29027 11.4731 2.37064 11.5535C2.45102 11.6339 2.56002 11.679 2.67369 11.679H5.99512C6.16697 11.679 6.32255 11.5757 6.38983 11.4172L7.62583 8.49087L9.14897 15.0613C9.17065 15.1544 9.22282 15.2377 9.29721 15.2978C9.37159 15.3579 9.46393 15.3914 9.55955 15.393Z" fill="#50945D"/>
<path d="M11.8183 21.0971L11.7663 21.1825L11.7664 21.1826L11.8183 21.0971ZM12.264 21.0975L12.3157 21.1831L12.316 21.1829L12.264 21.0975ZM18.9146 15.0821L18.8392 15.0164L18.8392 15.0164L18.9146 15.0821ZM21.3056 11.0231L21.2106 10.9919L21.2106 10.9919L21.3056 11.0231ZM19.3963 4.00524L19.3395 4.08755L19.3395 4.08755L19.3963 4.00524ZM12.0411 4.91467L11.9646 4.97897L12.0411 5.07016L12.1177 4.97899L12.0411 4.91467ZM4.68558 4.00524L4.62879 3.92293L4.62878 3.92293L4.68558 4.00524ZM2.46643 9.83852L2.56463 9.81963L2.56463 9.81962L2.46643 9.83852ZM2.96829 10.1784L2.98719 10.2766H2.98719L2.96829 10.1784ZM3.12318 10.1153L3.17822 10.1988L3.17822 10.1988L3.12318 10.1153ZM3.24216 9.99784L3.32496 10.0539H3.32496L3.24216 9.99784ZM3.30815 9.67652L3.40634 9.65763L3.40634 9.65762L3.30815 9.67652ZM5.17243 4.71067L5.22922 4.79298L5.22923 4.79297L5.17243 4.71067ZM11.5594 5.68567L11.4791 5.74522L11.4791 5.74527L11.5594 5.68567ZM12.5229 5.68567L12.4426 5.62606L12.4425 5.62614L12.5229 5.68567ZM18.9094 4.71067L18.8526 4.79297L18.8527 4.79299L18.9094 4.71067ZM20.4909 10.7557L20.3959 10.7245L20.3958 10.7245L20.4909 10.7557ZM18.2679 14.5185L18.3432 14.5843L18.3432 14.5843L18.2679 14.5185ZM12.0407 20.2262L11.987 20.3106L12.0407 20.3448L12.0944 20.3106L12.0407 20.2262ZM5.81315 14.5185L5.88849 14.4528L5.88823 14.4525L5.81315 14.5185ZM4.44815 12.6388L4.53426 12.5878L4.53202 12.5844L4.44815 12.6388ZM4.18705 12.455L4.21006 12.3576H4.21006L4.18705 12.455ZM3.67576 12.7549L3.77193 12.7823L3.67576 12.7549ZM3.70886 13.0725L3.62029 13.1192L3.62283 13.1235L3.70886 13.0725ZM5.16772 15.0817L5.24307 15.0159L5.24282 15.0156L5.16772 15.0817ZM9.56683 15.393L9.56695 15.293H9.56683V15.393ZM9.55955 15.393L9.55785 15.493H9.55955V15.393ZM9.82749 15.3046L9.76654 15.2253L9.76654 15.2253L9.82749 15.3046ZM9.97997 15.0754L9.88337 15.0496L9.88331 15.0498L9.97997 15.0754ZM11.2455 10.3436L11.3427 10.3201L11.1489 10.3177L11.2455 10.3436ZM11.5065 11.4223L11.6037 11.3988L11.6037 11.3988L11.5065 11.4223ZM11.6581 11.6584L11.5962 11.7369L11.6581 11.6584ZM12.2608 10.893L12.1636 10.9165L12.1821 10.993H12.2608V10.893ZM11.6835 8.50673L11.5863 8.53022L11.5863 8.53024L11.6835 8.50673ZM11.5341 8.27224L11.4717 8.35045H11.4717L11.5341 8.27224ZM11.2721 8.17887L11.2693 8.27885L11.2709 8.27887L11.2721 8.17887ZM11.0066 8.26411L10.9461 8.18444L11.0066 8.26411ZM10.853 8.49687L10.9496 8.52272L10.95 8.52112L10.853 8.49687ZM9.59597 13.1953L9.49856 13.2179L9.69258 13.2211L9.59597 13.1953ZM8.1624 7.01101L8.06494 7.0334L8.06499 7.0336L8.1624 7.01101ZM8.02596 6.78379L8.09152 6.70828L8.09152 6.70828L8.02596 6.78379ZM7.78183 6.68059L7.77243 6.78015L7.77335 6.78023L7.78183 6.68059ZM7.52319 6.73956L7.47156 6.65392L7.47156 6.65392L7.52319 6.73956ZM7.35026 6.94073L7.44238 6.97964L7.44268 6.97891L7.35026 6.94073ZM5.71097 10.8219V10.9219H5.77729L5.80309 10.8608L5.71097 10.8219ZM2.37064 10.9474L2.29993 10.8767L2.29993 10.8767L2.37064 10.9474ZM2.37064 11.5535L2.29993 11.6242H2.29993L2.37064 11.5535ZM6.38983 11.4172L6.48189 11.4562L6.48195 11.4561L6.38983 11.4172ZM7.62583 8.49087L7.72325 8.46829L7.65364 8.16802L7.53371 8.45196L7.62583 8.49087ZM9.14897 15.0613L9.05156 15.0839L9.05158 15.084L9.14897 15.0613ZM12.0411 21.0597C11.9822 21.0597 11.923 21.0436 11.8701 21.0116L11.7664 21.1826C11.8507 21.2337 11.9458 21.2597 12.0411 21.2597V21.0597ZM12.2123 21.0119C12.16 21.0435 12.1003 21.0597 12.0411 21.0597V21.2597C12.1363 21.2597 12.2318 21.2338 12.3157 21.1831L12.2123 21.0119ZM18.8392 15.0164C17.4733 16.5824 14.8008 19.436 12.212 21.0121L12.316 21.1829C14.9335 19.5894 17.6233 16.7146 18.9899 15.1478L18.8392 15.0164ZM21.2106 10.9919C20.7555 12.3796 19.9585 13.7335 18.8392 15.0164L18.9899 15.1478C20.124 13.8481 20.9359 12.4712 21.4006 11.0543L21.2106 10.9919ZM19.3395 4.08755C20.4461 4.85087 21.1575 5.8263 21.4719 6.98177C21.7866 8.13872 21.7055 9.485 21.2106 10.9919L21.4006 11.0543C21.9042 9.5209 21.9924 8.13354 21.6648 6.92928C21.3368 5.72354 20.5943 4.71018 19.4531 3.92292L19.3395 4.08755ZM12.1177 4.97899C12.5411 4.47499 13.4107 3.60442 14.6401 3.18367C15.863 2.76516 17.4545 2.78713 19.3395 4.08755L19.4531 3.92293C17.5182 2.58806 15.8607 2.55454 14.5753 2.99445C13.2964 3.43213 12.3984 4.33391 11.9646 4.85035L12.1177 4.97899ZM4.74236 4.08755C6.62733 2.78713 8.21889 2.76494 9.44185 3.18335C10.6713 3.604 11.541 4.47456 11.9646 4.97897L12.1177 4.85036C11.6837 4.33348 10.7855 3.4317 9.50659 2.99412C8.22111 2.55432 6.56368 2.58806 4.62879 3.92293L4.74236 4.08755ZM2.56463 9.81962C2.32833 8.59196 2.40083 7.48583 2.76641 6.52496C3.13182 5.56454 3.79235 4.74305 4.74237 4.08755L4.62878 3.92293C3.64895 4.599 2.96076 5.45172 2.57949 6.45384C2.19839 7.4555 2.12625 8.60023 2.36824 9.85743L2.56463 9.81962ZM2.70305 10.0296C2.63089 9.98073 2.5811 9.9052 2.56463 9.81963L2.36823 9.85742C2.39473 9.99509 2.47483 10.1166 2.5909 10.1952L2.70305 10.0296ZM2.94939 10.0802C2.86382 10.0967 2.7752 10.0785 2.70305 10.0296L2.5909 10.1952C2.70698 10.2738 2.84953 10.3031 2.98719 10.2766L2.94939 10.0802ZM3.06814 10.0319C3.03211 10.0556 2.99176 10.072 2.94939 10.0802L2.98719 10.2766C3.05535 10.2635 3.12026 10.237 3.17822 10.1988L3.06814 10.0319ZM3.15936 9.94177C3.13516 9.9775 3.10417 10.0081 3.06814 10.0319L3.17822 10.1988C3.23617 10.1606 3.28603 10.1114 3.32496 10.0539L3.15936 9.94177ZM3.20995 9.69542C3.22642 9.781 3.20822 9.86961 3.15936 9.94177L3.32496 10.0539C3.40356 9.93784 3.43284 9.79529 3.40634 9.65763L3.20995 9.69542ZM5.11564 4.62836C4.27522 5.20819 3.69125 5.92644 3.37171 6.77755C3.0524 7.62804 2.99985 8.60391 3.20995 9.69543L3.40634 9.65762C3.20159 8.59385 3.25532 7.65658 3.55894 6.84785C3.86233 6.03975 4.41793 5.35272 5.22922 4.79298L5.11564 4.62836ZM11.6398 5.62611C11.3257 5.20244 10.5845 4.34198 9.47478 3.89273C8.35728 3.44032 6.88005 3.41083 5.11564 4.62836L5.22923 4.79297C6.94096 3.61179 8.34758 3.65216 9.39973 4.07811C10.4597 4.50721 11.1739 5.33361 11.4791 5.74522L11.6398 5.62611ZM12.4425 5.62614C12.3519 5.74844 12.2 5.81388 12.0413 5.81388C11.8827 5.81388 11.7306 5.74844 11.6397 5.62607L11.4791 5.74527C11.6142 5.92718 11.8311 6.01388 12.0413 6.01388C12.2516 6.01388 12.4684 5.92718 12.6032 5.7452L12.4425 5.62614ZM18.9662 4.62837C17.2027 3.41103 15.7256 3.44065 14.6081 3.89305C13.4983 4.3423 12.7569 5.20263 12.4426 5.62606L12.6032 5.74527C12.9086 5.33384 13.6232 4.50754 14.6832 4.07843C15.7354 3.65247 17.1418 3.61202 18.8526 4.79297L18.9662 4.62837ZM20.5859 10.7869C21.03 9.43462 21.1211 8.23568 20.8507 7.20177C20.5797 6.16593 19.9483 5.30557 18.9662 4.62834L18.8527 4.79299C19.8004 5.44648 20.3998 6.26848 20.6572 7.25239C20.9151 8.23823 20.832 9.39643 20.3959 10.7245L20.5859 10.7869ZM18.3432 14.5843C19.4013 13.3712 20.1567 12.0942 20.5859 10.7869L20.3958 10.7245C19.9764 12.0023 19.2361 13.2564 18.1925 14.4528L18.3432 14.5843ZM12.0944 20.3106C14.5427 18.7517 17.0484 16.0685 18.3432 14.5843L18.1925 14.4528C16.8987 15.9359 14.409 18.5997 11.987 20.1419L12.0944 20.3106ZM5.7378 14.5843C7.03298 16.0685 9.53831 18.7517 11.987 20.3106L12.0944 20.1419C9.67199 18.5997 7.18274 15.936 5.88849 14.4528L5.7378 14.5843ZM4.3621 12.6898C4.76073 13.3629 5.22139 13.9972 5.73806 14.5846L5.88823 14.4525C5.37978 13.8745 4.92647 13.2502 4.53419 12.5879L4.3621 12.6898ZM4.16404 12.5523C4.24645 12.5718 4.31816 12.6223 4.36428 12.6933L4.53202 12.5844C4.45787 12.4702 4.34256 12.389 4.21006 12.3576L4.16404 12.5523ZM3.92186 12.5887C3.9949 12.5458 4.08164 12.5328 4.16404 12.5523L4.21006 12.3576C4.07757 12.3263 3.93809 12.3473 3.82066 12.4162L3.92186 12.5887ZM3.77193 12.7823C3.79513 12.7009 3.84883 12.6315 3.92186 12.5887L3.82066 12.4162C3.70323 12.4851 3.61688 12.5966 3.57958 12.7275L3.77193 12.7823ZM3.79732 13.0259C3.75783 12.951 3.74873 12.8637 3.77193 12.7823L3.57958 12.7275C3.54228 12.8585 3.5569 12.9987 3.6204 13.1192L3.79732 13.0259ZM5.24282 15.0156C4.69925 14.3974 4.21451 13.7298 3.7949 13.0216L3.62283 13.1235C4.04878 13.8424 4.54084 14.5201 5.09262 15.1477L5.24282 15.0156ZM11.8703 21.0117C9.28149 19.4351 6.60903 16.5815 5.24307 15.0159L5.09237 15.1474C6.45898 16.7138 9.1488 19.5885 11.7663 21.1825L11.8703 21.0117ZM9.56683 15.293H9.55955V15.493H9.56683V15.293ZM9.76654 15.2253C9.70931 15.2693 9.63913 15.2931 9.56695 15.293L9.56671 15.493C9.68306 15.4932 9.79618 15.4548 9.88843 15.3839L9.76654 15.2253ZM9.88331 15.0498C9.86483 15.1196 9.82377 15.1813 9.76654 15.2253L9.88843 15.3839C9.98067 15.313 10.0469 15.2135 10.0766 15.101L9.88331 15.0498ZM11.1489 10.3177L9.88337 15.0496L10.0766 15.1013L11.3421 10.3694L11.1489 10.3177ZM11.6037 11.3988L11.3427 10.3201L11.1483 10.3671L11.4094 11.4458L11.6037 11.3988ZM11.7199 11.5798C11.662 11.5342 11.6211 11.4705 11.6037 11.3988L11.4093 11.4458C11.4372 11.5611 11.503 11.6636 11.5962 11.7369L11.7199 11.5798ZM11.9231 11.6502C11.8494 11.6502 11.7778 11.6254 11.7199 11.5798L11.5962 11.7369C11.6894 11.8103 11.8045 11.8502 11.9231 11.8502V11.6502ZM14.9947 11.6502H11.9231V11.8502H14.9947V11.6502ZM15.227 11.5539C15.1654 11.6155 15.0818 11.6502 14.9947 11.6502V11.8502C15.1349 11.8502 15.2693 11.7945 15.3684 11.6953L15.227 11.5539ZM15.3233 11.3216C15.3233 11.4087 15.2886 11.4923 15.227 11.5539L15.3684 11.6953C15.4676 11.5962 15.5233 11.4618 15.5233 11.3216H15.3233ZM15.227 11.0893C15.2886 11.1509 15.3233 11.2344 15.3233 11.3216H15.5233C15.5233 11.1814 15.4676 11.047 15.3684 10.9478L15.227 11.0893ZM14.9947 10.993C15.0818 10.993 15.1654 11.0276 15.227 11.0893L15.3684 10.9478C15.2693 10.8487 15.1349 10.793 14.9947 10.793V10.993ZM12.2608 10.993H14.9947V10.793H12.2608V10.993ZM11.5863 8.53024L12.1636 10.9165L12.358 10.8695L11.7807 8.48322L11.5863 8.53024ZM11.4717 8.35045C11.5289 8.39597 11.5692 8.45923 11.5863 8.53022L11.7807 8.48324C11.7531 8.36903 11.6883 8.26727 11.5964 8.19404L11.4717 8.35045ZM11.2709 8.27887C11.344 8.27974 11.4146 8.30493 11.4717 8.35045L11.5964 8.19404C11.5045 8.12081 11.3908 8.08029 11.2733 8.07888L11.2709 8.27887ZM11.067 8.34378C11.1251 8.29972 11.1965 8.27681 11.2693 8.27883L11.2749 8.07891C11.1565 8.07562 11.0405 8.11285 10.9461 8.18444L11.067 8.34378ZM10.95 8.52112C10.9677 8.4504 11.009 8.38784 11.067 8.34378L10.9461 8.18444C10.8518 8.25604 10.7847 8.35771 10.756 8.47263L10.95 8.52112ZM9.69258 13.2211L10.9496 8.52272L10.7564 8.47103L9.49937 13.1695L9.69258 13.2211ZM8.06499 7.0336L9.49856 13.2179L9.69339 13.1727L8.25982 6.98843L8.06499 7.0336ZM7.96039 6.8593C8.0128 6.9048 8.04941 6.96576 8.06494 7.0334L8.25987 6.98863C8.23485 6.87971 8.1759 6.78155 8.09152 6.70828L7.96039 6.8593ZM7.77335 6.78023C7.8425 6.78611 7.90799 6.8138 7.9604 6.8593L8.09152 6.70828C8.00713 6.63501 7.90167 6.59043 7.79032 6.58095L7.77335 6.78023ZM7.57481 6.8252C7.63417 6.78943 7.70344 6.77363 7.77243 6.78014L7.79123 6.58103C7.67962 6.5705 7.56758 6.59604 7.47156 6.65392L7.57481 6.8252ZM7.44268 6.97891C7.46915 6.91486 7.51546 6.86098 7.57481 6.8252L7.47156 6.65392C7.37555 6.71179 7.30064 6.79894 7.25784 6.90255L7.44268 6.97891ZM5.80309 10.8608L7.44238 6.97964L7.25814 6.90182L5.61885 10.783L5.80309 10.8608ZM2.67369 10.9219H5.71097V10.7219H2.67369V10.9219ZM2.44135 11.0181C2.50297 10.9565 2.58655 10.9219 2.67369 10.9219V10.7219C2.5335 10.7219 2.39906 10.7776 2.29993 10.8767L2.44135 11.0181ZM2.34512 11.2504C2.34512 11.1633 2.37973 11.0797 2.44135 11.0181L2.29993 10.8767C2.20081 10.9758 2.14512 11.1103 2.14512 11.2504H2.34512ZM2.44135 11.4828C2.37973 11.4212 2.34512 11.3376 2.34512 11.2504H2.14512C2.14512 11.3906 2.20081 11.5251 2.29993 11.6242L2.44135 11.4828ZM2.67369 11.579C2.58655 11.579 2.50297 11.5444 2.44135 11.4828L2.29993 11.6242C2.39906 11.7233 2.5335 11.779 2.67369 11.779V11.579ZM5.99512 11.579H2.67369V11.779H5.99512V11.579ZM6.29778 11.3781C6.2461 11.4999 6.12667 11.579 5.99512 11.579V11.779C6.20728 11.779 6.39899 11.6516 6.48189 11.4562L6.29778 11.3781ZM7.53371 8.45196L6.29771 11.3783L6.48195 11.4561L7.71795 8.52978L7.53371 8.45196ZM9.24639 15.0387L7.72325 8.46829L7.52841 8.51346L9.05156 15.0839L9.24639 15.0387ZM9.36005 15.22C9.303 15.1739 9.26299 15.1101 9.24637 15.0386L9.05158 15.084C9.0783 15.1988 9.14264 15.3015 9.23436 15.3756L9.36005 15.22ZM9.56124 15.293C9.48791 15.2918 9.4171 15.2661 9.36005 15.22L9.23436 15.3756C9.32609 15.4497 9.43995 15.491 9.55785 15.493L9.56124 15.293Z" fill="#0E140F" mask="url(#path-1-outside-1_194_1490)"/>
</g>
</g>
</svg>
