<svg width="24" height="24" viewBox="0 0 24 24" fill="none" xmlns="http://www.w3.org/2000/svg">
<g id="Mental Health" clip-path="url(#clip0_194_633)">
<g id="Union">
<mask id="path-1-outside-1_194_633" maskUnits="userSpaceOnUse" x="-1.00195" y="-0.998535" width="26" height="26" fill="black">
<rect fill="white" x="-1.00195" y="-0.998535" width="26" height="26"/>
<path fill-rule="evenodd" clip-rule="evenodd" d="M16.4227 0.892621C13.6715 -0.409379 11.2659 -0.0737786 8.11752 0.568621C6.31752 0.928621 5.01152 1.56102 4.12072 2.50622C3.41507 3.26163 2.86935 4.15185 2.51632 5.12342C2.36507 5.56412 2.24241 6.01412 2.14912 6.47062C2.05995 6.8635 1.90215 7.21538 1.7575 7.53792C1.56343 7.97067 1.39304 8.35059 1.44392 8.70582C1.50238 9.11432 1.80418 9.39371 2.04321 9.61499C2.21144 9.77073 2.34858 9.89769 2.34792 10.0206C1.86255 11.0905 1.25505 12.1007 0.537521 13.031C-0.262479 14.007 -0.110079 14.4414 0.584321 14.9574C0.696457 15.041 0.856399 15.1243 1.0104 15.2046C1.24424 15.3265 1.46439 15.4412 1.48272 15.5386C1.50872 15.8026 1.43032 16.0666 1.26352 16.2734C0.861136 16.9899 1.04936 17.1348 1.58793 17.5494L1.61232 17.5682C1.50518 17.7139 1.45676 17.8945 1.4767 18.0742C1.49663 18.254 1.58346 18.4196 1.71992 18.5382C1.81214 18.6042 1.90675 18.6585 1.99408 18.7086C2.17417 18.812 2.32332 18.8977 2.35672 19.031C2.38995 19.1625 2.35795 19.3034 2.31856 19.4767C2.24605 19.7958 2.14853 20.2249 2.38672 20.9086C2.48605 21.2739 2.7218 21.5872 3.04534 21.7838C3.36889 21.9803 3.75554 22.0452 4.12552 21.965C5.2658 21.69 6.39015 21.3527 7.49352 20.9546C8.36912 21.4714 8.88752 22.9714 9.03072 23.437C9.08181 23.5986 9.18366 23.7395 9.32115 23.8386C9.45864 23.9378 9.62443 23.99 9.79392 23.9874H18.8399C18.9846 23.9855 19.1262 23.9447 19.2498 23.8695C19.3734 23.7942 19.4746 23.6872 19.5427 23.5595C19.6109 23.4319 19.6436 23.2882 19.6374 23.1437C19.6312 22.9991 19.5864 22.8588 19.5075 22.7374C18.7651 21.6078 18.4623 20.0974 18.2995 18.757C18.1589 17.5612 18.3384 16.3495 18.8195 15.2458C19.0953 14.6204 19.4889 14.0928 19.8936 13.5505C20.7364 12.4211 21.6269 11.2276 21.5999 8.95222C22.1613 8.62756 22.6509 8.1924 23.0393 7.67306C23.4277 7.15372 23.7066 6.56101 23.8593 5.93076C24.0121 5.30052 24.0353 4.64584 23.9278 4.00634C23.8202 3.36684 23.5841 2.7558 23.2336 2.21019C22.8831 1.66458 22.4256 1.19573 21.8887 0.832008C21.3518 0.468287 20.7468 0.21725 20.1101 0.0940837C19.4734 -0.0290825 18.8183 -0.0218186 18.1846 0.115436C17.5508 0.252691 16.9514 0.517084 16.4227 0.892621ZM18.0891 14.9258C17.5508 16.1602 17.3498 17.5155 17.5067 18.853C17.8166 21.405 18.3945 22.4076 18.6981 22.9342C18.757 23.0365 18.8056 23.1208 18.8399 23.195H9.79472C9.53432 22.2456 9.05232 21.3715 8.38832 20.6446L8.49643 20.6069L8.49815 20.6063C8.73274 20.5242 9.22756 20.3513 9.32072 20.3214C11.0291 19.7798 11.8831 19.0014 11.8595 18.0014C11.857 17.8953 11.8125 17.7946 11.7357 17.7213C11.6589 17.6481 11.5562 17.6083 11.4501 17.6108C11.344 17.6133 11.2433 17.6579 11.17 17.7346C11.0968 17.8114 11.057 17.9141 11.0595 18.0202C11.0691 18.4322 10.7335 19.033 9.07872 19.5578C8.90886 19.6116 8.60563 19.718 8.22215 19.8525C7.04602 20.2651 5.11502 20.9425 3.96152 21.1802C3.78202 21.2141 3.59636 21.1773 3.44343 21.0774C3.2905 20.9774 3.18217 20.8222 3.14112 20.6442C2.97265 20.1607 3.04017 19.8831 3.10619 19.6117C3.16102 19.3864 3.21482 19.1652 3.13152 18.8338C3.01745 18.3814 2.70465 18.1981 2.34209 17.9856L2.30832 17.9658C2.34929 17.8799 2.39393 17.8161 2.43346 17.7597C2.50777 17.6536 2.56403 17.5732 2.54392 17.4194C2.52164 17.2505 2.44634 17.1938 2.20052 17.0086L2.2005 17.0086C2.11972 16.9477 2.02051 16.873 1.89872 16.7758C2.19854 16.38 2.33137 15.8824 2.26872 15.3898C2.1779 14.9065 1.73207 14.6758 1.37117 14.489C1.24252 14.4225 1.12466 14.3615 1.03752 14.2966C0.953187 14.2385 0.873725 14.1736 0.799921 14.1026C0.799921 14.0418 0.864721 13.8942 1.16912 13.5218C1.88493 12.6015 2.49641 11.6046 2.99232 10.5494C3.08869 10.3838 3.14204 10.1966 3.14752 10.005C3.12654 9.80725 3.0639 9.61616 2.96372 9.44435C2.86354 9.27254 2.7281 9.1239 2.56632 9.00822C2.17374 8.64518 2.19437 8.59035 2.29018 8.33575L2.29872 8.31302C2.53756 7.80672 2.74046 7.28422 2.90592 6.74942C2.99823 6.29275 3.11845 5.84217 3.26592 5.40022C3.58171 4.52964 4.0703 3.73192 4.70232 3.05502C5.46432 2.24622 6.66592 1.67342 8.27472 1.35262C11.0531 0.786221 13.3047 0.424221 15.7547 1.46542C15.4015 1.83131 15.1085 2.25076 14.8863 2.70822C9.74672 0.475821 4.39992 4.03342 4.39992 7.80022C4.39992 11.171 8.25392 11.6002 11.5959 11.6002C11.9146 11.6 12.2204 11.7262 12.4461 11.9512C12.6718 12.1762 12.7991 12.4815 12.7999 12.8002C12.8052 13.2776 13 13.7333 13.3413 14.0672C13.6826 14.401 14.1425 14.5855 14.6199 14.5802C15.0973 14.5749 15.553 14.3802 15.8869 14.0389C16.2207 13.6976 16.4052 13.2376 16.3999 12.7602V12.1722C16.4019 11.8695 16.4893 11.5735 16.6521 11.3183C16.8148 11.063 17.0463 10.8589 17.3199 10.7294C17.8837 10.4793 18.369 10.0807 18.7239 9.57622C19.4244 9.64688 20.1317 9.5601 20.7943 9.32222C20.7296 11.0913 19.9913 12.0822 19.2406 13.0897C18.8225 13.6508 18.4006 14.2171 18.0891 14.9258ZM17.8399 9.40022C17.5905 9.65267 17.2973 9.85785 16.9747 10.0058C16.5649 10.2009 16.2184 10.5077 15.9752 10.8909C15.732 11.2742 15.6019 11.7183 15.5999 12.1722V12.7602C15.6053 12.9947 15.5297 13.2238 15.3858 13.409C15.2419 13.5942 15.0385 13.724 14.8099 13.7766C14.6642 13.8085 14.5131 13.8072 14.3679 13.7729C14.2227 13.7386 14.087 13.6721 13.9709 13.5784C13.8548 13.4847 13.7612 13.3662 13.697 13.2315C13.6328 13.0968 13.5996 12.9494 13.5999 12.8002C13.5988 12.2695 13.3871 11.7608 13.0114 11.3859C12.6357 11.0109 12.1267 10.8003 11.5959 10.8002C8.78432 10.8002 5.19992 10.5666 5.19992 7.80022C5.19992 4.56542 9.97512 1.42622 14.5955 3.45462C13.8535 5.99182 15.3047 8.65142 17.8399 9.40022ZM19.1999 8.80022C16.9907 8.80022 15.1999 7.00942 15.1999 4.80022C15.1999 2.59102 16.9907 0.800221 19.1999 0.800221C21.4091 0.800221 23.1999 2.59102 23.1999 4.80022C23.1975 7.00822 21.4079 8.79782 19.1999 8.80022ZM20.4802 2.95981L18.357 5.79101L17.883 5.31701C17.8075 5.24414 17.7065 5.20383 17.6016 5.20474C17.4967 5.20565 17.3964 5.24772 17.3222 5.32188C17.2481 5.39604 17.206 5.49637 17.2051 5.60125C17.2042 5.70613 17.2445 5.80717 17.3174 5.88261C17.4799 6.04518 17.612 6.17902 17.7208 6.28918L17.7208 6.28921C18.1952 6.76989 18.2248 6.79981 18.4002 6.79981C18.4623 6.79981 18.5235 6.78535 18.579 6.75758C18.6346 6.72981 18.6829 6.68949 18.7202 6.63981L21.1202 3.43981C21.1838 3.35494 21.2111 3.24826 21.1961 3.14324C21.1811 3.03822 21.125 2.94346 21.0402 2.87981C20.9553 2.81615 20.8486 2.78882 20.7436 2.80383C20.6386 2.81883 20.5438 2.87494 20.4802 2.95981ZM12 5.6H12.8C13.0122 5.6 13.2157 5.68429 13.3657 5.83431C13.5157 5.98434 13.6 6.18783 13.6 6.4V7.2C13.6 7.41217 13.5157 7.61566 13.3657 7.76569C13.2157 7.91571 13.0122 8 12.8 8H12V8.8C12 9.01217 11.9157 9.21566 11.7657 9.36569C11.6157 9.51571 11.4122 9.6 11.2 9.6H10.4C10.1878 9.6 9.98434 9.51571 9.83432 9.36569C9.68429 9.21566 9.6 9.01217 9.6 8.8V8H8.8C8.58783 8 8.38434 7.91571 8.23431 7.76569C8.08429 7.61566 8 7.41217 8 7.2V6.4C8 6.18783 8.08429 5.98434 8.23431 5.83431C8.38434 5.68429 8.58783 5.6 8.8 5.6H9.6V4.8C9.6 4.58783 9.68429 4.38434 9.83432 4.23431C9.98434 4.08429 10.1878 4 10.4 4H11.2C11.4122 4 11.6157 4.08429 11.7657 4.23431C11.9157 4.38434 12 4.58783 12 4.8V5.6ZM11.8 7.2H12.8V6.4H11.8C11.6409 6.4 11.4883 6.33679 11.3757 6.22426C11.2632 6.11174 11.2 5.95913 11.2 5.8V4.8H10.4V5.8C10.4 5.95913 10.3368 6.11174 10.2243 6.22426C10.1117 6.33679 9.95913 6.4 9.8 6.4H8.8V7.2H9.8C9.95913 7.2 10.1117 7.26321 10.2243 7.37574C10.3368 7.48826 10.4 7.64087 10.4 7.8V8.8H11.2V7.8C11.2 7.64087 11.2632 7.48826 11.3757 7.37574C11.4883 7.26321 11.6409 7.2 11.8 7.2Z"/>
</mask>
<path fill-rule="evenodd" clip-rule="evenodd" d="M16.4227 0.892621C13.6715 -0.409379 11.2659 -0.0737786 8.11752 0.568621C6.31752 0.928621 5.01152 1.56102 4.12072 2.50622C3.41507 3.26163 2.86935 4.15185 2.51632 5.12342C2.36507 5.56412 2.24241 6.01412 2.14912 6.47062C2.05995 6.8635 1.90215 7.21538 1.7575 7.53792C1.56343 7.97067 1.39304 8.35059 1.44392 8.70582C1.50238 9.11432 1.80418 9.39371 2.04321 9.61499C2.21144 9.77073 2.34858 9.89769 2.34792 10.0206C1.86255 11.0905 1.25505 12.1007 0.537521 13.031C-0.262479 14.007 -0.110079 14.4414 0.584321 14.9574C0.696457 15.041 0.856399 15.1243 1.0104 15.2046C1.24424 15.3265 1.46439 15.4412 1.48272 15.5386C1.50872 15.8026 1.43032 16.0666 1.26352 16.2734C0.861136 16.9899 1.04936 17.1348 1.58793 17.5494L1.61232 17.5682C1.50518 17.7139 1.45676 17.8945 1.4767 18.0742C1.49663 18.254 1.58346 18.4196 1.71992 18.5382C1.81214 18.6042 1.90675 18.6585 1.99408 18.7086C2.17417 18.812 2.32332 18.8977 2.35672 19.031C2.38995 19.1625 2.35795 19.3034 2.31856 19.4767C2.24605 19.7958 2.14853 20.2249 2.38672 20.9086C2.48605 21.2739 2.7218 21.5872 3.04534 21.7838C3.36889 21.9803 3.75554 22.0452 4.12552 21.965C5.2658 21.69 6.39015 21.3527 7.49352 20.9546C8.36912 21.4714 8.88752 22.9714 9.03072 23.437C9.08181 23.5986 9.18366 23.7395 9.32115 23.8386C9.45864 23.9378 9.62443 23.99 9.79392 23.9874H18.8399C18.9846 23.9855 19.1262 23.9447 19.2498 23.8695C19.3734 23.7942 19.4746 23.6872 19.5427 23.5595C19.6109 23.4319 19.6436 23.2882 19.6374 23.1437C19.6312 22.9991 19.5864 22.8588 19.5075 22.7374C18.7651 21.6078 18.4623 20.0974 18.2995 18.757C18.1589 17.5612 18.3384 16.3495 18.8195 15.2458C19.0953 14.6204 19.4889 14.0928 19.8936 13.5505C20.7364 12.4211 21.6269 11.2276 21.5999 8.95222C22.1613 8.62756 22.6509 8.1924 23.0393 7.67306C23.4277 7.15372 23.7066 6.56101 23.8593 5.93076C24.0121 5.30052 24.0353 4.64584 23.9278 4.00634C23.8202 3.36684 23.5841 2.7558 23.2336 2.21019C22.8831 1.66458 22.4256 1.19573 21.8887 0.832008C21.3518 0.468287 20.7468 0.21725 20.1101 0.0940837C19.4734 -0.0290825 18.8183 -0.0218186 18.1846 0.115436C17.5508 0.252691 16.9514 0.517084 16.4227 0.892621ZM18.0891 14.9258C17.5508 16.1602 17.3498 17.5155 17.5067 18.853C17.8166 21.405 18.3945 22.4076 18.6981 22.9342C18.757 23.0365 18.8056 23.1208 18.8399 23.195H9.79472C9.53432 22.2456 9.05232 21.3715 8.38832 20.6446L8.49643 20.6069L8.49815 20.6063C8.73274 20.5242 9.22756 20.3513 9.32072 20.3214C11.0291 19.7798 11.8831 19.0014 11.8595 18.0014C11.857 17.8953 11.8125 17.7946 11.7357 17.7213C11.6589 17.6481 11.5562 17.6083 11.4501 17.6108C11.344 17.6133 11.2433 17.6579 11.17 17.7346C11.0968 17.8114 11.057 17.9141 11.0595 18.0202C11.0691 18.4322 10.7335 19.033 9.07872 19.5578C8.90886 19.6116 8.60563 19.718 8.22215 19.8525C7.04602 20.2651 5.11502 20.9425 3.96152 21.1802C3.78202 21.2141 3.59636 21.1773 3.44343 21.0774C3.2905 20.9774 3.18217 20.8222 3.14112 20.6442C2.97265 20.1607 3.04017 19.8831 3.10619 19.6117C3.16102 19.3864 3.21482 19.1652 3.13152 18.8338C3.01745 18.3814 2.70465 18.1981 2.34209 17.9856L2.30832 17.9658C2.34929 17.8799 2.39393 17.8161 2.43346 17.7597C2.50777 17.6536 2.56403 17.5732 2.54392 17.4194C2.52164 17.2505 2.44634 17.1938 2.20052 17.0086L2.2005 17.0086C2.11972 16.9477 2.02051 16.873 1.89872 16.7758C2.19854 16.38 2.33137 15.8824 2.26872 15.3898C2.1779 14.9065 1.73207 14.6758 1.37117 14.489C1.24252 14.4225 1.12466 14.3615 1.03752 14.2966C0.953187 14.2385 0.873725 14.1736 0.799921 14.1026C0.799921 14.0418 0.864721 13.8942 1.16912 13.5218C1.88493 12.6015 2.49641 11.6046 2.99232 10.5494C3.08869 10.3838 3.14204 10.1966 3.14752 10.005C3.12654 9.80725 3.0639 9.61616 2.96372 9.44435C2.86354 9.27254 2.7281 9.1239 2.56632 9.00822C2.17374 8.64518 2.19437 8.59035 2.29018 8.33575L2.29872 8.31302C2.53756 7.80672 2.74046 7.28422 2.90592 6.74942C2.99823 6.29275 3.11845 5.84217 3.26592 5.40022C3.58171 4.52964 4.0703 3.73192 4.70232 3.05502C5.46432 2.24622 6.66592 1.67342 8.27472 1.35262C11.0531 0.786221 13.3047 0.424221 15.7547 1.46542C15.4015 1.83131 15.1085 2.25076 14.8863 2.70822C9.74672 0.475821 4.39992 4.03342 4.39992 7.80022C4.39992 11.171 8.25392 11.6002 11.5959 11.6002C11.9146 11.6 12.2204 11.7262 12.4461 11.9512C12.6718 12.1762 12.7991 12.4815 12.7999 12.8002C12.8052 13.2776 13 13.7333 13.3413 14.0672C13.6826 14.401 14.1425 14.5855 14.6199 14.5802C15.0973 14.5749 15.553 14.3802 15.8869 14.0389C16.2207 13.6976 16.4052 13.2376 16.3999 12.7602V12.1722C16.4019 11.8695 16.4893 11.5735 16.6521 11.3183C16.8148 11.063 17.0463 10.8589 17.3199 10.7294C17.8837 10.4793 18.369 10.0807 18.7239 9.57622C19.4244 9.64688 20.1317 9.5601 20.7943 9.32222C20.7296 11.0913 19.9913 12.0822 19.2406 13.0897C18.8225 13.6508 18.4006 14.2171 18.0891 14.9258ZM17.8399 9.40022C17.5905 9.65267 17.2973 9.85785 16.9747 10.0058C16.5649 10.2009 16.2184 10.5077 15.9752 10.8909C15.732 11.2742 15.6019 11.7183 15.5999 12.1722V12.7602C15.6053 12.9947 15.5297 13.2238 15.3858 13.409C15.2419 13.5942 15.0385 13.724 14.8099 13.7766C14.6642 13.8085 14.5131 13.8072 14.3679 13.7729C14.2227 13.7386 14.087 13.6721 13.9709 13.5784C13.8548 13.4847 13.7612 13.3662 13.697 13.2315C13.6328 13.0968 13.5996 12.9494 13.5999 12.8002C13.5988 12.2695 13.3871 11.7608 13.0114 11.3859C12.6357 11.0109 12.1267 10.8003 11.5959 10.8002C8.78432 10.8002 5.19992 10.5666 5.19992 7.80022C5.19992 4.56542 9.97512 1.42622 14.5955 3.45462C13.8535 5.99182 15.3047 8.65142 17.8399 9.40022ZM19.1999 8.80022C16.9907 8.80022 15.1999 7.00942 15.1999 4.80022C15.1999 2.59102 16.9907 0.800221 19.1999 0.800221C21.4091 0.800221 23.1999 2.59102 23.1999 4.80022C23.1975 7.00822 21.4079 8.79782 19.1999 8.80022ZM20.4802 2.95981L18.357 5.79101L17.883 5.31701C17.8075 5.24414 17.7065 5.20383 17.6016 5.20474C17.4967 5.20565 17.3964 5.24772 17.3222 5.32188C17.2481 5.39604 17.206 5.49637 17.2051 5.60125C17.2042 5.70613 17.2445 5.80717 17.3174 5.88261C17.4799 6.04518 17.612 6.17902 17.7208 6.28918L17.7208 6.28921C18.1952 6.76989 18.2248 6.79981 18.4002 6.79981C18.4623 6.79981 18.5235 6.78535 18.579 6.75758C18.6346 6.72981 18.6829 6.68949 18.7202 6.63981L21.1202 3.43981C21.1838 3.35494 21.2111 3.24826 21.1961 3.14324C21.1811 3.03822 21.125 2.94346 21.0402 2.87981C20.9553 2.81615 20.8486 2.78882 20.7436 2.80383C20.6386 2.81883 20.5438 2.87494 20.4802 2.95981ZM12 5.6H12.8C13.0122 5.6 13.2157 5.68429 13.3657 5.83431C13.5157 5.98434 13.6 6.18783 13.6 6.4V7.2C13.6 7.41217 13.5157 7.61566 13.3657 7.76569C13.2157 7.91571 13.0122 8 12.8 8H12V8.8C12 9.01217 11.9157 9.21566 11.7657 9.36569C11.6157 9.51571 11.4122 9.6 11.2 9.6H10.4C10.1878 9.6 9.98434 9.51571 9.83432 9.36569C9.68429 9.21566 9.6 9.01217 9.6 8.8V8H8.8C8.58783 8 8.38434 7.91571 8.23431 7.76569C8.08429 7.61566 8 7.41217 8 7.2V6.4C8 6.18783 8.08429 5.98434 8.23431 5.83431C8.38434 5.68429 8.58783 5.6 8.8 5.6H9.6V4.8C9.6 4.58783 9.68429 4.38434 9.83432 4.23431C9.98434 4.08429 10.1878 4 10.4 4H11.2C11.4122 4 11.6157 4.08429 11.7657 4.23431C11.9157 4.38434 12 4.58783 12 4.8V5.6ZM11.8 7.2H12.8V6.4H11.8C11.6409 6.4 11.4883 6.33679 11.3757 6.22426C11.2632 6.11174 11.2 5.95913 11.2 5.8V4.8H10.4V5.8C10.4 5.95913 10.3368 6.11174 10.2243 6.22426C10.1117 6.33679 9.95913 6.4 9.8 6.4H8.8V7.2H9.8C9.95913 7.2 10.1117 7.26321 10.2243 7.37574C10.3368 7.48826 10.4 7.64087 10.4 7.8V8.8H11.2V7.8C11.2 7.64087 11.2632 7.48826 11.3757 7.37574C11.4883 7.26321 11.6409 7.2 11.8 7.2Z" fill="#50945D"/>
<path d="M8.11752 0.568621L8.13713 0.66668L8.13751 0.666603L8.11752 0.568621ZM16.4227 0.892621L16.3799 0.98301L16.4329 1.00806L16.4806 0.974147L16.4227 0.892621ZM4.12072 2.50622L4.04795 2.43764L4.04764 2.43796L4.12072 2.50622ZM2.51632 5.12342L2.42232 5.08927L2.42174 5.09096L2.51632 5.12342ZM2.14912 6.47062L2.24666 6.49276L2.2471 6.49064L2.14912 6.47062ZM1.7575 7.53792L1.66625 7.497L1.7575 7.53792ZM1.44392 8.70582L1.54291 8.69166L1.54291 8.69164L1.44392 8.70582ZM2.04321 9.61499L2.11114 9.54161H2.11114L2.04321 9.61499ZM2.34792 10.0206L2.43899 10.0619L2.4478 10.0425L2.44792 10.0212L2.34792 10.0206ZM0.537521 13.031L0.614894 13.0944L0.616705 13.0921L0.537521 13.031ZM0.584321 14.9574L0.644066 14.8772L0.643965 14.8772L0.584321 14.9574ZM1.0104 15.2046L1.05662 15.1159L1.0104 15.2046ZM1.48272 15.5386L1.58262 15.5288L1.581 15.5201L1.48272 15.5386ZM1.26352 16.2734L1.18568 16.2106L1.18043 16.2172L1.17633 16.2245L1.26352 16.2734ZM1.58793 17.5494L1.64894 17.4702L1.64894 17.4702L1.58793 17.5494ZM1.61232 17.5682L1.69288 17.6275L1.75084 17.5487L1.67333 17.489L1.61232 17.5682ZM1.4767 18.0742L1.37731 18.0853L1.4767 18.0742ZM1.71992 18.5382L1.65402 18.614L1.66174 18.6196L1.71992 18.5382ZM1.99408 18.7086L1.94429 18.7954L1.94429 18.7954L1.99408 18.7086ZM2.35672 19.031L2.25972 19.0553L2.25977 19.0555L2.35672 19.031ZM2.31856 19.4767L2.41607 19.4989L2.31856 19.4767ZM2.38672 20.9086L2.48345 20.8823L2.48116 20.8757L2.38672 20.9086ZM3.04534 21.7838L3.09727 21.6983L3.04534 21.7838ZM4.12552 21.965L4.14671 22.0628L4.14897 22.0622L4.12552 21.965ZM7.49352 20.9546L7.54435 20.8685L7.50384 20.8446L7.45959 20.8606L7.49352 20.9546ZM9.03072 23.437L8.93514 23.4664L8.93537 23.4672L9.03072 23.437ZM9.32115 23.8386L9.26266 23.9198L9.32115 23.8386ZM9.79392 23.9874V23.8874L9.79242 23.8874L9.79392 23.9874ZM18.8399 23.9874V24.0874L18.8413 24.0874L18.8399 23.9874ZM19.2498 23.8695L19.3018 23.9549L19.2498 23.8695ZM19.5427 23.5595L19.4545 23.5124L19.5427 23.5595ZM19.6374 23.1437L19.7373 23.1394V23.1394L19.6374 23.1437ZM19.5075 22.7374L19.5914 22.6829L19.5911 22.6825L19.5075 22.7374ZM18.2995 18.757L18.2002 18.7687L18.2003 18.7691L18.2995 18.757ZM18.8195 15.2458L18.728 15.2055L18.7279 15.2059L18.8195 15.2458ZM19.8936 13.5505L19.8134 13.4907L19.8936 13.5505ZM21.5999 8.95222L21.5499 8.86566L21.4992 8.89493L21.4999 8.95341L21.5999 8.95222ZM23.0393 7.67306L23.1194 7.73295H23.1194L23.0393 7.67306ZM23.8593 5.93076L23.9565 5.95431L23.8593 5.93076ZM23.9278 4.00634L23.8292 4.02293V4.02293L23.9278 4.00634ZM23.2336 2.21019L23.3177 2.15614V2.15614L23.2336 2.21019ZM21.8887 0.832008L21.8326 0.914798V0.914798L21.8887 0.832008ZM20.1101 0.0940837L20.1291 -0.00409603V-0.00409604L20.1101 0.0940837ZM18.1846 0.115436L18.1634 0.0177017V0.0177017L18.1846 0.115436ZM17.5067 18.853L17.4074 18.8647L17.4074 18.8651L17.5067 18.853ZM18.0891 14.9258L17.9976 14.8856L17.9975 14.8858L18.0891 14.9258ZM18.6981 22.9342L18.6115 22.9842L18.6981 22.9342ZM18.8399 23.195V23.295H18.9963L18.9307 23.1531L18.8399 23.195ZM9.79472 23.195L9.69828 23.2215L9.71846 23.295H9.79472V23.195ZM8.38832 20.6446L8.35534 20.5502L8.21229 20.6002L8.31449 20.7121L8.38832 20.6446ZM8.49643 20.6069L8.52941 20.7013L8.52942 20.7013L8.49643 20.6069ZM8.49815 20.6063L8.53114 20.7007L8.53115 20.7007L8.49815 20.6063ZM9.32072 20.3214L9.2905 20.2261L9.29021 20.2262L9.32072 20.3214ZM11.8595 18.0014L11.7595 18.0038L11.7596 18.0038L11.8595 18.0014ZM11.4501 17.6108L11.4525 17.7108L11.4501 17.6108ZM11.17 17.7346L11.0977 17.6656V17.6656L11.17 17.7346ZM11.0595 18.0202L11.1595 18.0179V18.0179L11.0595 18.0202ZM9.07872 19.5578L9.10892 19.6532L9.10895 19.6531L9.07872 19.5578ZM8.22215 19.8525L8.18904 19.7582L8.22215 19.8525ZM3.96152 21.1802L3.98009 21.2785L3.9817 21.2782L3.96152 21.1802ZM3.14112 20.6442L3.23914 20.6216L3.23555 20.6113L3.14112 20.6442ZM3.10619 19.6117L3.20336 19.6354L3.10619 19.6117ZM3.13152 18.8338L3.2285 18.8094L3.22849 18.8094L3.13152 18.8338ZM2.34209 17.9856L2.29151 18.0719L2.29153 18.0719L2.34209 17.9856ZM2.30832 17.9658L2.21805 17.9228L2.17856 18.0057L2.25774 18.0521L2.30832 17.9658ZM2.43346 17.7597L2.35155 17.7023L2.35155 17.7023L2.43346 17.7597ZM2.54392 17.4194L2.64308 17.4065L2.64306 17.4063L2.54392 17.4194ZM2.20052 17.0086L2.13157 17.0819L2.14034 17.0885L2.20052 17.0086ZM2.2005 17.0086L2.26945 16.9353L2.26068 16.9287L2.2005 17.0086ZM1.89872 16.7758L1.81901 16.7154L1.76013 16.7932L1.83636 16.854L1.89872 16.7758ZM2.26872 15.3898L2.3681 15.3772L2.367 15.3714L2.26872 15.3898ZM1.37117 14.489L1.32521 14.5779H1.32521L1.37117 14.489ZM1.03752 14.2966L1.09727 14.2163L1.09426 14.2143L1.03752 14.2966ZM0.799921 14.1026H0.699921V14.1452L0.730589 14.1747L0.799921 14.1026ZM1.16912 13.5218L1.24657 13.5851L1.24806 13.5832L1.16912 13.5218ZM2.99232 10.5494L2.90555 10.4989L2.90182 10.5069L2.99232 10.5494ZM3.14752 10.005L3.24839 10.0079L3.24696 9.99447L3.14752 10.005ZM2.96372 9.44435L3.05011 9.39398L2.96372 9.44435ZM2.56632 9.00822L2.49789 9.08222L2.50816 9.08957L2.56632 9.00822ZM2.29018 8.33575L2.38377 8.37097L2.38379 8.37093L2.29018 8.33575ZM2.29872 8.31302L2.20798 8.27022L2.20511 8.27785L2.29872 8.31302ZM2.90592 6.74942L3.00194 6.77913L3.00394 6.76923L2.90592 6.74942ZM3.26592 5.40022L3.17188 5.36611L3.17106 5.36857L3.26592 5.40022ZM4.70232 3.05502L4.62954 2.98645L4.62923 2.98678L4.70232 3.05502ZM8.27472 1.35262L8.29428 1.45069L8.2947 1.45061L8.27472 1.35262ZM15.7547 1.46542L15.8267 1.53487L15.9277 1.43026L15.7938 1.37339L15.7547 1.46542ZM14.8863 2.70822L14.8465 2.79994L14.9344 2.83813L14.9763 2.7519L14.8863 2.70822ZM11.5959 11.6002V11.7002H11.596L11.5959 11.6002ZM12.4461 11.9512L12.3755 12.022L12.4461 11.9512ZM12.7999 12.8002L12.6999 12.8005L12.6999 12.8013L12.7999 12.8002ZM14.6199 14.5802L14.621 14.6802L14.6199 14.5802ZM15.8869 14.0389L15.9583 14.1088L15.8869 14.0389ZM16.3999 12.7602H16.2999L16.2999 12.7613L16.3999 12.7602ZM16.3999 12.1722L16.2999 12.1716V12.1722H16.3999ZM17.3199 10.7294L17.2794 10.638L17.2771 10.639L17.3199 10.7294ZM18.7239 9.57622L18.734 9.47673L18.6758 9.47086L18.6421 9.51868L18.7239 9.57622ZM20.7943 9.32222L20.8943 9.32588L20.8997 9.17815L20.7605 9.2281L20.7943 9.32222ZM19.2406 13.0897L19.1604 13.03L19.2406 13.0897ZM16.9747 10.0058L16.933 9.91492L16.9317 9.91553L16.9747 10.0058ZM17.8399 9.40022L17.911 9.47051L18.0285 9.35165L17.8682 9.30432L17.8399 9.40022ZM15.9752 10.8909L16.0596 10.9445L15.9752 10.8909ZM15.5999 12.1722L15.4999 12.1718V12.1722H15.5999ZM15.5999 12.7602H15.4999L15.4999 12.7625L15.5999 12.7602ZM14.8099 13.7766L14.8313 13.8743L14.8324 13.8741L14.8099 13.7766ZM14.3679 13.7729L14.3449 13.8702H14.3449L14.3679 13.7729ZM13.5999 12.8002L13.6999 12.8004L13.6999 12.8L13.5999 12.8002ZM13.0114 11.3859L12.9408 11.4567L13.0114 11.3859ZM11.5959 10.8002L11.5959 10.7002H11.5959V10.8002ZM14.5955 3.45462L14.6915 3.48269L14.7162 3.39837L14.6357 3.36306L14.5955 3.45462ZM19.1999 8.80022V8.90022H19.2L19.1999 8.80022ZM23.1999 4.80022L23.2999 4.80033V4.80022H23.1999ZM18.357 5.79101L18.2863 5.86172L18.3678 5.94325L18.437 5.851L18.357 5.79101ZM20.4802 2.95981L20.4002 2.89981L20.4002 2.89981L20.4802 2.95981ZM17.883 5.31701L17.9537 5.24629L17.9524 5.24508L17.883 5.31701ZM17.6016 5.20474L17.6025 5.30473L17.6016 5.20474ZM17.3222 5.32188L17.3929 5.39259L17.3222 5.32188ZM17.3174 5.88261L17.2454 5.95209L17.2467 5.95332L17.3174 5.88261ZM17.7208 6.28918L17.6495 6.35951L17.6532 6.3629L17.7208 6.28918ZM17.7208 6.28921L17.7921 6.21888L17.7884 6.2155L17.7208 6.28921ZM18.7202 6.63981L18.8002 6.69981V6.69981L18.7202 6.63981ZM21.1202 3.43981L21.0402 3.37981L21.1202 3.43981ZM21.1961 3.14324L21.0971 3.15738V3.15738L21.1961 3.14324ZM21.0402 2.87981L21.1002 2.79981V2.79981L21.0402 2.87981ZM12 5.6H11.9V5.7H12V5.6ZM12 8V7.9H11.9V8H12ZM11.7657 9.36569L11.8364 9.4364V9.4364L11.7657 9.36569ZM9.83432 9.36569L9.90503 9.29498V9.29497L9.83432 9.36569ZM9.6 8H9.7V7.9H9.6V8ZM9.6 5.6V5.7H9.7V5.6H9.6ZM9.83432 4.23431L9.90503 4.30503H9.90503L9.83432 4.23431ZM11.7657 4.23431L11.8364 4.1636L11.7657 4.23431ZM12.8 7.2V7.3H12.9V7.2H12.8ZM12.8 6.4H12.9V6.3H12.8V6.4ZM11.3757 6.22426L11.305 6.29497L11.3757 6.22426ZM11.2 5.8L11.3 5.8V5.8H11.2ZM11.2 4.8H11.3V4.7H11.2V4.8ZM10.4 4.8V4.7H10.3V4.8H10.4ZM10.2243 6.22426L10.1536 6.15355H10.1536L10.2243 6.22426ZM8.8 6.4V6.3H8.7V6.4H8.8ZM8.8 7.2H8.7V7.3H8.8V7.2ZM10.2243 7.37574L10.1536 7.44645H10.1536L10.2243 7.37574ZM10.4 8.8H10.3V8.9H10.4V8.8ZM11.2 8.8V8.9H11.3V8.8H11.2ZM11.3757 7.37574L11.305 7.30503L11.3757 7.37574ZM8.13751 0.666603C11.2844 0.0245016 13.6609 -0.303783 16.3799 0.98301L16.4655 0.802232C13.6822 -0.514975 11.2474 -0.172059 8.09753 0.47064L8.13751 0.666603ZM4.1935 2.57481C5.06525 1.64982 6.3493 1.02425 8.13713 0.666679L8.09791 0.470563C6.28574 0.832997 4.9578 1.47222 4.04795 2.43764L4.1935 2.57481ZM2.61031 5.15757C2.95874 4.19866 3.49734 3.32005 4.1938 2.57448L4.04764 2.43796C3.3328 3.20321 2.77996 4.10503 2.42233 5.08927L2.61031 5.15757ZM2.2471 6.49064C2.33953 6.03836 2.46105 5.59251 2.61091 5.15588L2.42174 5.09096C2.26909 5.53573 2.1453 5.98989 2.05115 6.4506L2.2471 6.49064ZM1.84874 7.57884C1.99291 7.25737 2.15495 6.89678 2.24664 6.49275L2.0516 6.44849C1.96496 6.83022 1.81138 7.1734 1.66625 7.497L1.84874 7.57884ZM1.54291 8.69164C1.5204 8.53451 1.54612 8.36684 1.6043 8.18078C1.66268 7.99406 1.75109 7.79659 1.84874 7.57884L1.66625 7.497C1.56983 7.712 1.47602 7.92086 1.41341 8.1211C1.35059 8.32199 1.31656 8.5219 1.34493 8.72L1.54291 8.69164ZM2.11114 9.54161C1.86783 9.31636 1.59559 9.05975 1.54291 8.69166L1.34493 8.71999C1.40917 9.16889 1.74053 9.47106 1.97528 9.68837L2.11114 9.54161ZM2.44792 10.0212C2.44845 9.92303 2.39472 9.8372 2.33586 9.76626C2.27553 9.69354 2.19368 9.61802 2.11114 9.54161L1.97528 9.68837C2.06097 9.76771 2.13181 9.83354 2.18194 9.89396C2.23354 9.95616 2.24806 9.99528 2.24792 10.0201L2.44792 10.0212ZM0.616705 13.0921C1.33894 12.1557 1.95043 11.1389 2.43899 10.0619L2.25685 9.97931C1.77467 11.0422 1.17115 12.0458 0.458337 12.9699L0.616705 13.0921ZM0.643965 14.8772C0.299245 14.621 0.12112 14.4066 0.100167 14.1583C0.0788338 13.9055 0.216691 13.5802 0.61486 13.0944L0.460182 12.9676C0.0583516 13.4579 -0.127591 13.8378 -0.0991247 14.1751C-0.0702775 14.517 0.174997 14.7778 0.524677 15.0377L0.643965 14.8772ZM1.05662 15.1159C0.900166 15.0344 0.748372 14.9549 0.644066 14.8772L0.524576 15.0376C0.644542 15.127 0.812633 15.2143 0.964188 15.2933L1.05662 15.1159ZM1.581 15.5201C1.57074 15.4656 1.53602 15.4224 1.50411 15.3911C1.47035 15.358 1.4275 15.3265 1.38176 15.2969C1.29038 15.2376 1.17215 15.1761 1.05662 15.1159L0.964188 15.2933C1.0825 15.3549 1.19126 15.4117 1.27299 15.4647C1.31382 15.4911 1.34405 15.5142 1.36404 15.5338C1.38587 15.5553 1.38553 15.5629 1.38444 15.5571L1.581 15.5201ZM1.34136 16.3362C1.52469 16.1089 1.6108 15.8188 1.58224 15.5288L1.3832 15.5484C1.40664 15.7864 1.33596 16.0243 1.18568 16.2106L1.34136 16.3362ZM1.64894 17.4702C1.51289 17.3655 1.40491 17.2822 1.32247 17.2035C1.24059 17.1254 1.19149 17.0587 1.16693 16.9907C1.1194 16.8589 1.14984 16.6801 1.35071 16.3224L1.17633 16.2245C0.974814 16.5833 0.89818 16.8351 0.978803 17.0586C1.01833 17.1681 1.09211 17.2602 1.18442 17.3483C1.27618 17.4358 1.39369 17.5261 1.52693 17.6287L1.64894 17.4702ZM1.67333 17.489L1.64894 17.4702L1.52693 17.6287L1.55131 17.6475L1.67333 17.489ZM1.57609 18.0632C1.55892 17.9085 1.60061 17.7529 1.69288 17.6275L1.53177 17.509C1.40974 17.6749 1.3546 17.8806 1.37731 18.0853L1.57609 18.0632ZM1.78553 18.4628C1.66802 18.3606 1.59326 18.218 1.57609 18.0632L1.37731 18.0853C1.40001 18.2899 1.4989 18.4786 1.65431 18.6137L1.78553 18.4628ZM2.04387 18.6219C1.95602 18.5715 1.86565 18.5195 1.7781 18.4569L1.66174 18.6196C1.75863 18.6889 1.85747 18.7455 1.94429 18.7954L2.04387 18.6219ZM2.45372 19.0067C2.42938 18.9095 2.36453 18.8376 2.29275 18.7804C2.22159 18.7237 2.13193 18.6725 2.04387 18.6219L1.94429 18.7954C2.03632 18.8482 2.11128 18.8915 2.16807 18.9368C2.22423 18.9816 2.25066 19.0192 2.25972 19.0553L2.45372 19.0067ZM2.41607 19.4989C2.4539 19.3324 2.49396 19.166 2.45367 19.0065L2.25977 19.0555C2.28595 19.1591 2.262 19.2744 2.22104 19.4546L2.41607 19.4989ZM2.48116 20.8757C2.25199 20.2179 2.34524 19.8106 2.41607 19.4989L2.22104 19.4546C2.14686 19.781 2.04507 20.2319 2.29229 20.9415L2.48116 20.8757ZM3.09727 21.6983C2.79562 21.515 2.57582 21.223 2.48322 20.8824L2.29022 20.9349C2.39627 21.3249 2.64798 21.6593 2.99342 21.8692L3.09727 21.6983ZM4.10434 21.8673C3.75939 21.942 3.39891 21.8816 3.09727 21.6983L2.99342 21.8692C3.33886 22.0791 3.75168 22.1484 4.1467 22.0628L4.10434 21.8673ZM7.45959 20.8606C6.35965 21.2574 5.2388 21.5936 4.10207 21.8678L4.14897 22.0622C5.2928 21.7863 6.42065 21.448 7.52746 21.0487L7.45959 20.8606ZM9.1263 23.4076C9.05384 23.172 8.8864 22.6744 8.62563 22.1692C8.3666 21.6673 8.00736 21.1418 7.54435 20.8685L7.44269 21.0407C7.85528 21.2843 8.19305 21.7671 8.44791 22.2609C8.70104 22.7513 8.86441 23.2364 8.93514 23.4664L9.1263 23.4076ZM9.37964 23.7575C9.2596 23.671 9.17068 23.548 9.12607 23.4069L8.93537 23.4672C8.99295 23.6493 9.10772 23.808 9.26266 23.9198L9.37964 23.7575ZM9.79242 23.8874C9.64444 23.8897 9.49968 23.8441 9.37964 23.7575L9.26266 23.9198C9.41759 24.0315 9.60443 24.0903 9.79542 24.0874L9.79242 23.8874ZM18.8399 23.8874H9.79392V24.0874H18.8399V23.8874ZM19.1978 23.7841C19.0894 23.85 18.9654 23.8857 18.8386 23.8874L18.8413 24.0874C19.0039 24.0852 19.1629 24.0394 19.3018 23.9549L19.1978 23.7841ZM19.4545 23.5124C19.3948 23.6243 19.3061 23.7181 19.1978 23.7841L19.3018 23.9549C19.4407 23.8703 19.5543 23.7501 19.631 23.6066L19.4545 23.5124ZM19.5375 23.1479C19.5429 23.2747 19.5143 23.4005 19.4545 23.5124L19.631 23.6066C19.7076 23.4632 19.7443 23.3018 19.7373 23.1394L19.5375 23.1479ZM19.4237 22.7919C19.4928 22.8983 19.5321 23.0212 19.5375 23.1479L19.7373 23.1394C19.7304 22.9769 19.68 22.8193 19.5914 22.6829L19.4237 22.7919ZM18.2003 18.7691C18.3633 20.1116 18.668 21.6421 19.424 22.7923L19.5911 22.6825C18.8623 21.5736 18.5613 20.0833 18.3988 18.745L18.2003 18.7691ZM18.7279 15.2059C18.2396 16.3258 18.0576 17.5553 18.2002 18.7687L18.3988 18.7453C18.2603 17.5671 18.4371 16.3733 18.9112 15.2858L18.7279 15.2059ZM19.8134 13.4907C19.4098 14.0317 19.0091 14.568 18.728 15.2055L18.911 15.2862C19.1815 14.6727 19.568 14.154 19.9737 13.6103L19.8134 13.4907ZM21.4999 8.95341C21.5265 11.1942 20.6535 12.365 19.8134 13.4907L19.9737 13.6103C20.8192 12.4773 21.7274 11.2611 21.6999 8.95103L21.4999 8.95341ZM22.9592 7.61317C22.579 8.12168 22.0995 8.54776 21.5499 8.86566L21.65 9.03879C22.2231 8.70735 22.7229 8.26311 23.1194 7.73295L22.9592 7.61317ZM23.7622 5.90721C23.6126 6.52431 23.3395 7.10467 22.9592 7.61317L23.1194 7.73295C23.5158 7.20278 23.8006 6.5977 23.9565 5.95431L23.7622 5.90721ZM23.8292 4.02293C23.9345 4.64909 23.9117 5.29011 23.7622 5.90721L23.9565 5.95431C24.1124 5.31092 24.1362 4.64259 24.0264 3.98975L23.8292 4.02293ZM23.1494 2.26424C23.4926 2.79847 23.7239 3.39676 23.8292 4.02293L24.0264 3.98975C23.9166 3.33692 23.6755 2.71314 23.3177 2.15614L23.1494 2.26424ZM21.8326 0.914798C22.3583 1.27093 22.8063 1.73 23.1494 2.26424L23.3177 2.15614C22.9599 1.59915 22.4929 1.12053 21.9448 0.749219L21.8326 0.914798ZM20.0911 0.192263C20.7145 0.312861 21.3069 0.558662 21.8326 0.914798L21.9448 0.749219C21.3967 0.377911 20.779 0.121639 20.1291 -0.00409603L20.0911 0.192263ZM18.2057 0.213171C18.8263 0.0787784 19.4677 0.071666 20.0911 0.192264L20.1291 -0.00409604C19.4791 -0.129831 18.8104 -0.122416 18.1634 0.0177017L18.2057 0.213171ZM16.4806 0.974147C16.9983 0.606441 17.5851 0.347563 18.2057 0.213171L18.1634 0.0177017C17.5164 0.157819 16.9045 0.427726 16.3648 0.811096L16.4806 0.974147ZM17.606 18.8414C17.4512 17.5214 17.6495 16.184 18.1808 14.9658L17.9975 14.8858C17.452 16.1365 17.2484 17.5096 17.4074 18.8647L17.606 18.8414ZM18.7847 22.8843C18.487 22.3678 17.914 21.3779 17.606 18.841L17.4074 18.8651C17.7191 21.4321 18.3021 22.4475 18.6115 22.9842L18.7847 22.8843ZM18.9307 23.1531C18.8941 23.0739 18.8429 22.9852 18.7847 22.8843L18.6115 22.9842C18.6712 23.0878 18.7172 23.1677 18.7491 23.237L18.9307 23.1531ZM9.79472 23.295H18.8399V23.095H9.79472V23.295ZM8.31449 20.7121C8.96781 21.4273 9.44207 22.2873 9.69828 23.2215L9.89116 23.1686C9.62658 22.2039 9.13682 21.3157 8.46215 20.5772L8.31449 20.7121ZM8.46345 20.5124L8.35534 20.5502L8.4213 20.739L8.52941 20.7013L8.46345 20.5124ZM8.46517 20.5119L8.46345 20.5125L8.52942 20.7013L8.53114 20.7007L8.46517 20.5119ZM9.29021 20.2262C9.1954 20.2566 8.69854 20.4303 8.46515 20.5119L8.53115 20.7007C8.76694 20.6182 9.25972 20.446 9.35124 20.4167L9.29021 20.2262ZM11.7596 18.0038C11.7706 18.4703 11.5786 18.8884 11.1722 19.2595C10.7631 19.6331 10.1378 19.9575 9.2905 20.2261L9.35094 20.4167C10.212 20.1438 10.8679 19.8082 11.3071 19.4072C11.7489 19.0037 11.9721 18.5325 11.9595 17.9991L11.7596 18.0038ZM11.6667 17.7937C11.7243 17.8486 11.7577 17.9242 11.7595 18.0038L11.9595 17.9991C11.9564 17.8665 11.9007 17.7405 11.8047 17.649L11.6667 17.7937ZM11.4525 17.7108C11.532 17.7089 11.6091 17.7387 11.6667 17.7937L11.8047 17.649C11.7088 17.5574 11.5804 17.5077 11.4478 17.5109L11.4525 17.7108ZM11.2424 17.8037C11.2973 17.7461 11.3729 17.7127 11.4525 17.7108L11.4478 17.5109C11.3152 17.514 11.1892 17.5696 11.0977 17.6656L11.2424 17.8037ZM11.1595 18.0179C11.1576 17.9383 11.1874 17.8612 11.2424 17.8037L11.0977 17.6656C11.0061 17.7616 10.9564 17.89 10.9595 18.0226L11.1595 18.0179ZM9.10895 19.6531C9.94327 19.3886 10.4564 19.1015 10.7611 18.8202C11.0687 18.5362 11.1651 18.2565 11.1595 18.0179L10.9595 18.0226C10.9636 18.1959 10.897 18.4226 10.6254 18.6732C10.351 18.9266 9.86898 19.2023 9.04849 19.4625L9.10895 19.6531ZM8.25525 19.9469C8.63962 19.812 8.94093 19.7064 9.10892 19.6532L9.04853 19.4625C8.8768 19.5169 8.57164 19.6239 8.18904 19.7582L8.25525 19.9469ZM3.9817 21.2782C5.1434 21.0388 7.08203 20.3585 8.25525 19.9469L8.18904 19.7582C7.01001 20.1718 5.08663 20.8463 3.94134 21.0823L3.9817 21.2782ZM3.38874 21.1611C3.56329 21.2751 3.7752 21.3172 3.98009 21.2785L3.94296 21.082C3.78884 21.1111 3.62943 21.0794 3.49813 20.9936L3.38874 21.1611ZM3.04368 20.6667C3.09053 20.8699 3.21418 21.047 3.38874 21.1611L3.49813 20.9936C3.36682 20.9079 3.27381 20.7746 3.23856 20.6218L3.04368 20.6667ZM3.00902 19.5881C2.97616 19.7232 2.94012 19.8701 2.93575 20.0459C2.93135 20.223 2.95893 20.4252 3.04669 20.6771L3.23555 20.6113C3.15484 20.3797 3.13195 20.2014 3.13569 20.0509C3.13946 19.8992 3.1702 19.7717 3.20336 19.6354L3.00902 19.5881ZM3.03454 18.8582C3.11157 19.1647 3.06316 19.3656 3.00902 19.5881L3.20336 19.6354C3.25889 19.4071 3.31807 19.1658 3.2285 18.8094L3.03454 18.8582ZM2.29153 18.0719C2.65717 18.2862 2.9319 18.4511 3.03456 18.8583L3.22849 18.8094C3.103 18.3117 2.75214 18.11 2.39265 17.8993L2.29153 18.0719ZM2.25774 18.0521L2.29151 18.0719L2.39267 17.8994L2.3589 17.8796L2.25774 18.0521ZM2.35155 17.7023C2.31194 17.7589 2.26295 17.8286 2.21805 17.9228L2.39859 18.0088C2.43563 17.9311 2.47592 17.8734 2.51537 17.817L2.35155 17.7023ZM2.44476 17.4324C2.45274 17.4934 2.44535 17.5347 2.43113 17.5706C2.41539 17.6103 2.39012 17.6472 2.35155 17.7023L2.51537 17.817C2.5511 17.766 2.59112 17.7097 2.61706 17.6443C2.64452 17.575 2.65521 17.4992 2.64308 17.4065L2.44476 17.4324ZM2.14034 17.0885C2.26684 17.1838 2.33734 17.2375 2.38155 17.2868C2.41893 17.3286 2.43595 17.3656 2.44478 17.4325L2.64306 17.4063C2.62961 17.3044 2.59785 17.2286 2.53054 17.1534C2.47008 17.0859 2.38002 17.0186 2.26069 16.9287L2.14034 17.0885ZM2.13197 17.0814L2.13198 17.0814L2.26905 16.9358L2.26904 16.9358L2.13197 17.0814ZM1.83636 16.854C1.95932 16.9521 2.05948 17.0275 2.14033 17.0885L2.26068 16.9287C2.17995 16.8679 2.0817 16.7939 1.96108 16.6976L1.83636 16.854ZM2.16952 15.4024C2.22887 15.8691 2.10304 16.3404 1.81901 16.7154L1.97844 16.8362C2.29405 16.4195 2.43387 15.8958 2.36792 15.3772L2.16952 15.4024ZM1.32521 14.5779C1.69617 14.7698 2.09009 14.9807 2.17044 15.4083L2.367 15.3714C2.26571 14.8323 1.76797 14.5818 1.41713 14.4002L1.32521 14.5779ZM0.977816 14.3768C1.07289 14.4476 1.19899 14.5125 1.32521 14.5779L1.41713 14.4002C1.28605 14.3324 1.17643 14.2754 1.09723 14.2164L0.977816 14.3768ZM0.730589 14.1747C0.808304 14.2495 0.891978 14.3178 0.980781 14.379L1.09426 14.2143C1.0144 14.1592 0.939146 14.0978 0.869254 14.0306L0.730589 14.1747ZM1.0917 13.4585C0.93807 13.6465 0.842315 13.7808 0.784464 13.8779C0.729147 13.9707 0.699921 14.0431 0.699921 14.1026H0.899921C0.899921 14.1042 0.899759 14.0963 0.908156 14.0744C0.916307 14.0532 0.930986 14.0227 0.956278 13.9803C1.00693 13.8953 1.09577 13.7696 1.24655 13.5851L1.0917 13.4585ZM2.90182 10.5069C2.40905 11.5554 1.80146 12.546 1.09019 13.4604L1.24806 13.5832C1.96841 12.6571 2.58376 11.6538 3.08282 10.592L2.90182 10.5069ZM3.04756 10.0022C3.04256 10.1771 2.99385 10.3479 2.90588 10.4991L3.07876 10.5997C3.18352 10.4196 3.24152 10.2161 3.24748 10.0079L3.04756 10.0022ZM2.87733 9.49472C2.9704 9.65433 3.02859 9.83184 3.04808 10.0156L3.24696 9.99447C3.22449 9.78265 3.1574 9.578 3.05011 9.39398L2.87733 9.49472ZM2.50816 9.08957C2.65845 9.19703 2.78427 9.33511 2.87733 9.49472L3.05011 9.39398C2.94282 9.20997 2.79776 9.05077 2.62448 8.92688L2.50816 9.08957ZM2.19659 8.30053C2.15197 8.4191 2.10458 8.53302 2.15076 8.66447C2.17265 8.72679 2.21288 8.78663 2.26828 8.85102C2.32391 8.91567 2.39966 8.99031 2.49843 9.08164L2.63422 8.9348C2.53669 8.84462 2.4678 8.77626 2.41988 8.72057C2.37173 8.66461 2.34949 8.62677 2.33945 8.59818C2.32175 8.5478 2.33258 8.507 2.38377 8.37097L2.19659 8.30053ZM2.20511 8.27785L2.19657 8.30058L2.38379 8.37093L2.39233 8.34819L2.20511 8.27785ZM2.81039 6.71987C2.64632 7.25018 2.44512 7.7683 2.20828 8.27036L2.38916 8.35569C2.63 7.84514 2.83461 7.31826 3.00145 6.77898L2.81039 6.71987ZM3.17106 5.36857C3.0223 5.8144 2.90102 6.26893 2.8079 6.72961L3.00394 6.76923C3.09544 6.31657 3.21461 5.86995 3.36078 5.43187L3.17106 5.36857ZM4.62923 2.98678C3.98801 3.67353 3.4923 4.48287 3.17191 5.36612L3.35993 5.43432C3.67112 4.57642 4.1526 3.79031 4.77541 3.12327L4.62923 2.98678ZM8.25517 1.25455C6.6352 1.57758 5.4111 2.15689 4.62954 2.98645L4.77511 3.12359C5.51755 2.33556 6.69664 1.76926 8.29428 1.45069L8.25517 1.25455ZM15.7938 1.37339C13.3123 0.318797 11.0323 0.688407 8.25475 1.25464L8.2947 1.45061C11.0739 0.884036 13.2971 0.529646 15.7156 1.55746L15.7938 1.37339ZM14.9763 2.7519C15.1938 2.30393 15.4808 1.89318 15.8267 1.53487L15.6828 1.39597C15.3223 1.76945 15.0231 2.1976 14.7964 2.66454L14.9763 2.7519ZM4.49992 7.80022C4.49992 5.96451 5.80556 4.16201 7.76371 3.09228C9.71829 2.0245 12.3075 1.69713 14.8465 2.79994L14.9262 2.6165C12.3255 1.48691 9.67155 1.82214 7.66783 2.91676C5.66769 4.00943 4.29992 5.86914 4.29992 7.80022H4.49992ZM11.5959 11.5002C9.92559 11.5002 8.14296 11.3924 6.78042 10.8709C6.10057 10.6107 5.53138 10.2497 5.13226 9.75336C4.73436 9.25855 4.49992 8.62239 4.49992 7.80022H4.29992C4.29992 8.66346 4.54723 9.34499 4.9764 9.87869C5.40434 10.4109 6.00753 10.7892 6.70893 11.0577C8.10888 11.5935 9.92426 11.7002 11.5959 11.7002V11.5002ZM12.5167 11.8804C12.2722 11.6367 11.941 11.5 11.5959 11.5002L11.596 11.7002C11.8882 11.7 12.1685 11.8158 12.3755 12.022L12.5167 11.8804ZM12.8999 12.8C12.899 12.4548 12.7612 12.1241 12.5167 11.8804L12.3755 12.022C12.5825 12.2283 12.6991 12.5083 12.6999 12.8005L12.8999 12.8ZM13.4112 13.9957C13.0888 13.6804 12.9049 13.25 12.8999 12.7991L12.6999 12.8013C12.7055 13.3052 12.9111 13.7863 13.2713 14.1386L13.4112 13.9957ZM14.6188 14.4802C14.1679 14.4852 13.7335 14.3109 13.4112 13.9957L13.2713 14.1386C13.6316 14.491 14.1171 14.6858 14.621 14.6802L14.6188 14.4802ZM15.8154 13.969C15.5001 14.2913 15.0697 14.4752 14.6188 14.4802L14.621 14.6802C15.1249 14.6746 15.606 14.4691 15.9583 14.1088L15.8154 13.969ZM16.2999 12.7613C16.3049 13.2122 16.1306 13.6466 15.8154 13.969L15.9583 14.1088C16.3107 13.7485 16.5055 13.263 16.4999 12.7591L16.2999 12.7613ZM16.2999 12.1722V12.7602H16.4999V12.1722H16.2999ZM16.5678 11.2645C16.3949 11.5356 16.302 11.85 16.2999 12.1716L16.4999 12.1729C16.5018 11.889 16.5838 11.6114 16.7364 11.372L16.5678 11.2645ZM17.2771 10.639C16.9865 10.7766 16.7406 10.9934 16.5678 11.2645L16.7364 11.372C16.889 11.1327 17.1061 10.9413 17.3627 10.8198L17.2771 10.639ZM18.6421 9.51868C18.2976 10.0083 17.8266 10.3952 17.2794 10.638L17.3605 10.8208C17.9408 10.5633 18.4403 10.153 18.8057 9.63377L18.6421 9.51868ZM20.7605 9.2281C20.112 9.46095 19.4196 9.54589 18.734 9.47673L18.7139 9.67572C19.4291 9.74788 20.1515 9.65926 20.8281 9.41634L20.7605 9.2281ZM19.3208 13.1495C20.0728 12.1402 20.8283 11.1279 20.8943 9.32588L20.6944 9.31856C20.6309 11.0547 19.9098 12.0242 19.1604 13.03L19.3208 13.1495ZM18.1807 14.9661C18.487 14.2692 18.902 13.7115 19.3208 13.1495L19.1604 13.03C18.743 13.5902 18.3143 14.165 17.9976 14.8856L18.1807 14.9661ZM17.0164 10.0967C17.35 9.94371 17.6531 9.73155 17.911 9.47051L17.7688 9.32993C17.5278 9.57379 17.2447 9.77199 16.933 9.91493L17.0164 10.0967ZM16.0596 10.9445C16.2927 10.5772 16.6248 10.2831 17.0177 10.0961L16.9317 9.91553C16.5049 10.1187 16.144 10.4382 15.8907 10.8374L16.0596 10.9445ZM15.6999 12.1727C15.7018 11.7376 15.8265 11.3119 16.0596 10.9445L15.8907 10.8374C15.6374 11.2365 15.502 11.6991 15.4999 12.1718L15.6999 12.1727ZM15.6999 12.7602V12.1722H15.4999V12.7602H15.6999ZM15.4647 13.4704C15.6228 13.267 15.7059 13.0154 15.6999 12.7579L15.4999 12.7625C15.5048 12.974 15.4366 13.1806 15.3068 13.3476L15.4647 13.4704ZM14.8324 13.8741C15.0833 13.8163 15.3067 13.6737 15.4647 13.4704L15.3068 13.3476C15.177 13.5146 14.9936 13.6317 14.7875 13.6792L14.8324 13.8741ZM14.3449 13.8702C14.5047 13.9079 14.6709 13.9094 14.8313 13.8743L14.7886 13.6789C14.6574 13.7076 14.5215 13.7064 14.3909 13.6756L14.3449 13.8702ZM13.9081 13.6563C14.0359 13.7594 14.1851 13.8325 14.3449 13.8702L14.3909 13.6756C14.2602 13.6447 14.1382 13.5849 14.0337 13.5006L13.9081 13.6563ZM13.6067 13.2745C13.6773 13.4227 13.7803 13.5532 13.9081 13.6563L14.0337 13.5006C13.9292 13.4163 13.845 13.3096 13.7872 13.1885L13.6067 13.2745ZM13.4999 12.8C13.4996 12.9642 13.5361 13.1263 13.6067 13.2745L13.7872 13.1885C13.7295 13.0673 13.6996 12.9347 13.6999 12.8004L13.4999 12.8ZM12.9408 11.4567C13.2977 11.8129 13.4988 12.2962 13.4999 12.8004L13.6999 12.8C13.6987 12.2428 13.4765 11.7087 13.0821 11.3151L12.9408 11.4567ZM11.5959 10.9002C12.1002 10.9003 12.5839 11.1004 12.9408 11.4567L13.0821 11.3151C12.6876 10.9215 12.1532 10.7003 11.5959 10.7002L11.5959 10.9002ZM5.09992 7.80022C5.09992 8.51576 5.33262 9.07365 5.73049 9.50394C6.12619 9.93188 6.67959 10.2276 7.31275 10.4328C8.57709 10.8424 10.1908 10.9002 11.5959 10.9002V10.7002C10.1895 10.7002 8.60515 10.6413 7.37439 10.2425C6.76 10.0434 6.24158 9.76207 5.87734 9.36816C5.51527 8.97659 5.29992 8.46788 5.29992 7.80022H5.09992ZM14.6357 3.36306C12.2952 2.33554 9.91427 2.61673 8.11837 3.5653C6.32668 4.51164 5.09992 6.13352 5.09992 7.80022H5.29992C5.29992 6.23213 6.46076 4.667 8.21177 3.74215C9.95857 2.81951 12.2755 2.54531 14.5553 3.54619L14.6357 3.36306ZM17.8682 9.30432C15.3859 8.57113 13.965 5.96699 14.6915 3.48269L14.4995 3.42655C13.7421 6.01665 15.2235 8.73171 17.8116 9.49613L17.8682 9.30432ZM15.0999 4.80022C15.0999 7.06465 16.9355 8.90022 19.1999 8.90022V8.70022C17.0459 8.70022 15.2999 6.95419 15.2999 4.80022H15.0999ZM19.1999 0.700221C16.9355 0.700221 15.0999 2.53579 15.0999 4.80022H15.2999C15.2999 2.64625 17.0459 0.900221 19.1999 0.900221V0.700221ZM23.2999 4.80022C23.2999 2.53579 21.4643 0.700221 19.1999 0.700221V0.900221C21.3539 0.900221 23.0999 2.64625 23.0999 4.80022H23.2999ZM19.2 8.90022C21.4632 8.89776 23.2975 7.06347 23.2999 4.80033L23.0999 4.80011C23.0976 6.95297 21.3527 8.69788 19.1998 8.70022L19.2 8.90022ZM18.437 5.851L20.5602 3.0198L20.4002 2.89981L18.277 5.73101L18.437 5.851ZM17.8123 5.38772L18.2863 5.86172L18.4277 5.7203L17.9537 5.2463L17.8123 5.38772ZM17.6025 5.30473C17.6811 5.30405 17.7569 5.33429 17.8135 5.38894L17.9524 5.24508C17.8581 5.154 17.7318 5.1036 17.6007 5.10474L17.6025 5.30473ZM17.3929 5.39259C17.4486 5.33697 17.5238 5.30542 17.6025 5.30473L17.6007 5.10474C17.4696 5.10588 17.3442 5.15846 17.2515 5.25117L17.3929 5.39259ZM17.3051 5.60212C17.3058 5.52346 17.3373 5.44821 17.3929 5.39259L17.2515 5.25117C17.1588 5.34387 17.1062 5.46928 17.1051 5.60038L17.3051 5.60212ZM17.3893 5.81313C17.3346 5.75655 17.3044 5.68077 17.3051 5.60212L17.1051 5.60038C17.104 5.73148 17.1544 5.85778 17.2454 5.95208L17.3893 5.81313ZM17.7919 6.21893C17.6832 6.10876 17.5509 5.97472 17.3881 5.8119L17.2467 5.95332C17.409 6.11564 17.5409 6.24927 17.6496 6.35943L17.7919 6.21893ZM17.7884 6.2155L17.7883 6.21547L17.6532 6.3629L17.6532 6.36293L17.7884 6.2155ZM18.4002 6.69981C18.3582 6.69981 18.3355 6.69776 18.3151 6.69173C18.2956 6.68597 18.2716 6.67445 18.2333 6.64524C18.1518 6.58315 18.0324 6.46256 17.792 6.21896L17.6496 6.35946C17.8836 6.59654 18.0162 6.73125 18.112 6.80429C18.1623 6.84265 18.2081 6.86864 18.2584 6.88351C18.3077 6.89812 18.3545 6.89981 18.4002 6.89981V6.69981ZM18.5343 6.66813C18.4927 6.68896 18.4467 6.69981 18.4002 6.69981V6.89981C18.4778 6.89981 18.5543 6.88173 18.6238 6.84702L18.5343 6.66813ZM18.6402 6.57981C18.6122 6.61707 18.576 6.64731 18.5343 6.66813L18.6238 6.84702C18.6932 6.81231 18.7536 6.76191 18.8002 6.69981L18.6402 6.57981ZM21.0402 3.37981L18.6402 6.57981L18.8002 6.69981L21.2002 3.49981L21.0402 3.37981ZM21.0971 3.15738C21.1084 3.23615 21.0879 3.31615 21.0402 3.37981L21.2002 3.49981C21.2797 3.39372 21.3139 3.26037 21.2951 3.1291L21.0971 3.15738ZM20.9802 2.95981C21.0438 3.00755 21.0859 3.07861 21.0971 3.15738L21.2951 3.1291C21.2764 2.99782 21.2062 2.87937 21.1002 2.79981L20.9802 2.95981ZM20.7577 2.90282C20.8365 2.89157 20.9165 2.91207 20.9802 2.95981L21.1002 2.79981C20.9941 2.72024 20.8607 2.68608 20.7295 2.70483L20.7577 2.90282ZM20.5602 3.01981C20.6079 2.95615 20.679 2.91407 20.7577 2.90282L20.7295 2.70483C20.5982 2.72359 20.4797 2.79372 20.4002 2.89981L20.5602 3.01981ZM12.8 5.5H12V5.7H12.8V5.5ZM13.4364 5.7636C13.2676 5.59482 13.0387 5.5 12.8 5.5V5.7C12.9857 5.7 13.1637 5.77375 13.295 5.90503L13.4364 5.7636ZM13.7 6.4C13.7 6.16131 13.6052 5.93239 13.4364 5.7636L13.295 5.90503C13.4263 6.0363 13.5 6.21435 13.5 6.4H13.7ZM13.7 7.2V6.4H13.5V7.2H13.7ZM13.4364 7.8364C13.6052 7.66761 13.7 7.43869 13.7 7.2H13.5C13.5 7.38565 13.4263 7.5637 13.295 7.69497L13.4364 7.8364ZM12.8 8.1C13.0387 8.1 13.2676 8.00518 13.4364 7.8364L13.295 7.69497C13.1637 7.82625 12.9857 7.9 12.8 7.9V8.1ZM12 8.1H12.8V7.9H12V8.1ZM12.1 8.8V8H11.9V8.8H12.1ZM11.8364 9.4364C12.0052 9.26761 12.1 9.0387 12.1 8.8H11.9C11.9 8.98565 11.8263 9.1637 11.695 9.29498L11.8364 9.4364ZM11.2 9.7C11.4387 9.7 11.6676 9.60518 11.8364 9.4364L11.695 9.29497C11.5637 9.42625 11.3857 9.5 11.2 9.5V9.7ZM10.4 9.7H11.2V9.5H10.4V9.7ZM9.7636 9.4364C9.93239 9.60518 10.1613 9.7 10.4 9.7V9.5C10.2143 9.5 10.0363 9.42625 9.90503 9.29498L9.7636 9.4364ZM9.5 8.8C9.5 9.0387 9.59482 9.26761 9.7636 9.4364L9.90503 9.29497C9.77375 9.1637 9.7 8.98565 9.7 8.8H9.5ZM9.5 8V8.8H9.7V8H9.5ZM8.8 8.1H9.6V7.9H8.8V8.1ZM8.1636 7.8364C8.33239 8.00518 8.56131 8.1 8.8 8.1V7.9C8.61435 7.9 8.4363 7.82625 8.30503 7.69497L8.1636 7.8364ZM7.9 7.2C7.9 7.43869 7.99482 7.66761 8.1636 7.8364L8.30503 7.69497C8.17375 7.5637 8.1 7.38565 8.1 7.2H7.9ZM7.9 6.4V7.2H8.1V6.4H7.9ZM8.1636 5.7636C7.99482 5.93239 7.9 6.16131 7.9 6.4H8.1C8.1 6.21435 8.17375 6.0363 8.30503 5.90503L8.1636 5.7636ZM8.8 5.5C8.56131 5.5 8.33239 5.59482 8.1636 5.7636L8.30503 5.90503C8.4363 5.77375 8.61435 5.7 8.8 5.7V5.5ZM9.6 5.5H8.8V5.7H9.6V5.5ZM9.5 4.8V5.6H9.7V4.8H9.5ZM9.76361 4.1636C9.59482 4.33239 9.5 4.56131 9.5 4.8H9.7C9.7 4.61435 9.77375 4.4363 9.90503 4.30503L9.76361 4.1636ZM10.4 3.9C10.1613 3.9 9.93239 3.99482 9.7636 4.1636L9.90503 4.30503C10.0363 4.17375 10.2143 4.1 10.4 4.1V3.9ZM11.2 3.9H10.4V4.1H11.2V3.9ZM11.8364 4.1636C11.6676 3.99482 11.4387 3.9 11.2 3.9V4.1C11.3857 4.1 11.5637 4.17375 11.695 4.30503L11.8364 4.1636ZM12.1 4.8C12.1 4.56131 12.0052 4.33239 11.8364 4.1636L11.695 4.30503C11.8263 4.4363 11.9 4.61435 11.9 4.8H12.1ZM12.1 5.6V4.8H11.9V5.6H12.1ZM12.8 7.1H11.8V7.3H12.8V7.1ZM12.7 6.4V7.2H12.9V6.4H12.7ZM11.8 6.5H12.8V6.3H11.8V6.5ZM11.305 6.29497C11.4363 6.42625 11.6143 6.5 11.8 6.5V6.3C11.6674 6.3 11.5402 6.24732 11.4464 6.15355L11.305 6.29497ZM11.1 5.8C11.1 5.98565 11.1738 6.1637 11.305 6.29497L11.4464 6.15355C11.3527 6.05979 11.3 5.93261 11.3 5.8L11.1 5.8ZM11.1 4.8V5.8H11.3V4.8H11.1ZM10.4 4.9H11.2V4.7H10.4V4.9ZM10.5 5.8V4.8H10.3V5.8H10.5ZM10.295 6.29497C10.4263 6.1637 10.5 5.98565 10.5 5.8H10.3C10.3 5.93261 10.2473 6.05979 10.1536 6.15355L10.295 6.29497ZM9.8 6.5C9.98565 6.5 10.1637 6.42625 10.295 6.29497L10.1536 6.15355C10.0598 6.24732 9.93261 6.3 9.8 6.3V6.5ZM8.8 6.5H9.8V6.3H8.8V6.5ZM8.9 7.2V6.4H8.7V7.2H8.9ZM9.8 7.1H8.8V7.3H9.8V7.1ZM10.295 7.30503C10.1637 7.17375 9.98565 7.1 9.8 7.1V7.3C9.93261 7.3 10.0598 7.35268 10.1536 7.44645L10.295 7.30503ZM10.5 7.8C10.5 7.61435 10.4263 7.4363 10.295 7.30503L10.1536 7.44645C10.2473 7.54022 10.3 7.66739 10.3 7.8H10.5ZM10.5 8.8V7.8H10.3V8.8H10.5ZM11.2 8.7H10.4V8.9H11.2V8.7ZM11.1 7.8V8.8H11.3V7.8H11.1ZM11.305 7.30503C11.1738 7.4363 11.1 7.61435 11.1 7.8H11.3C11.3 7.66739 11.3527 7.54022 11.4464 7.44645L11.305 7.30503ZM11.8 7.1C11.6143 7.1 11.4363 7.17375 11.305 7.30503L11.4464 7.44645C11.5402 7.35268 11.6674 7.3 11.8 7.3V7.1Z" fill="#50945D" mask="url(#path-1-outside-1_194_633)"/>
</g>
</g>
<defs>
<clipPath id="clip0_194_633">
<rect width="24" height="24" fill="white"/>
</clipPath>
</defs>
</svg>
