<svg width="24" height="24" viewBox="0 0 24 24" fill="none" xmlns="http://www.w3.org/2000/svg">
<g id="Neurology" clip-path="url(#clip0_194_38)">
<g id="Union">
<mask id="path-1-outside-1_194_38" maskUnits="userSpaceOnUse" x="0.244141" y="-1" width="23" height="26" fill="black">
<rect fill="white" x="0.244141" y="-1" width="23" height="26"/>
<path fill-rule="evenodd" clip-rule="evenodd" d="M22.756 11.5853C22.7564 11.1498 22.6701 10.7185 22.5021 10.3166C22.3341 9.91476 22.0878 9.55035 21.7776 9.24461C21.8766 8.92846 21.9268 8.59909 21.9266 8.26782C21.9266 6.66744 20.7784 5.33085 19.2626 5.03694C19.3792 4.74566 19.439 4.43472 19.4385 4.12095C19.4385 3.1072 18.8226 2.2348 17.9453 1.85775C16.4838 0.693719 14.8854 0 13.6588 0C12.977 0 12.3724 0.335274 12.0001 0.849279C11.6277 0.335274 11.0231 0 10.3413 0C9.11479 0 7.51633 0.693719 6.05482 1.85775C5.1776 2.2348 4.56164 3.1072 4.56164 4.12095C4.56164 4.4386 4.62172 4.74816 4.73757 5.03694C3.22178 5.33085 2.07352 6.66744 2.07352 8.26782C2.07352 8.6005 2.12354 8.92795 2.22254 9.24461C1.91232 9.55035 1.66605 9.91476 1.49807 10.3166C1.3301 10.7185 1.24378 11.1498 1.24414 11.5853C1.24414 12.2772 1.45921 12.9196 1.82538 13.4501C1.44485 14.0002 1.24414 14.6419 1.24414 15.3175C1.24414 16.5143 1.8966 17.6108 2.92964 18.189C2.91184 18.337 2.90291 18.4859 2.90289 18.635C2.90289 20.2494 3.95594 21.6767 5.4838 22.1631C6.14838 23.3005 7.35896 24 8.68259 24C10.1337 24 11.392 23.1612 12.0001 21.9435C12.6082 23.1612 13.8664 24 15.3176 24C16.6412 24 17.8518 23.3005 18.5164 22.1631C20.0442 21.6766 21.0973 20.2493 21.0973 18.635C21.0973 18.486 21.0883 18.3368 21.0705 18.189C22.1036 17.6108 22.756 16.5143 22.756 15.3175C22.756 14.6419 22.5553 14.0002 22.1748 13.4501C22.541 12.9196 22.756 12.2772 22.756 11.5853ZM8.68259 23.2225C7.59253 23.2225 6.59925 22.6215 6.09033 21.6541C6.0654 21.6067 6.03095 21.565 5.98913 21.5315C5.94731 21.4981 5.89903 21.4736 5.84732 21.4597C4.57149 21.1163 3.68043 19.9548 3.68043 18.635C3.68043 18.4375 3.70033 18.2397 3.73957 18.047C3.75723 17.9602 3.74476 17.87 3.70421 17.7913C3.66366 17.7126 3.59747 17.6501 3.51657 17.6141C2.60846 17.2104 2.02168 16.3089 2.02168 15.3175C2.02168 14.8666 2.13862 14.4356 2.36178 14.0538C2.94213 14.5655 3.70303 14.8769 4.53572 14.8769C4.75042 14.8769 4.92449 14.7029 4.92449 14.4881C4.92449 14.2734 4.75042 14.0994 4.53572 14.0994C3.14947 14.0994 2.02168 12.9716 2.02168 11.5853C2.02168 10.8391 2.35094 10.1358 2.92508 9.65593C2.98824 9.60314 3.03301 9.53166 3.05295 9.45178C3.07288 9.37191 3.06695 9.28777 3.036 9.21149C2.91384 8.91187 2.85102 8.59138 2.85105 8.26782C2.85105 6.88157 3.97885 5.75378 5.36509 5.75378C6.75134 5.75378 7.87913 6.88157 7.87913 8.26782C7.87913 8.48257 8.0532 8.65659 8.2679 8.65659C8.4826 8.65659 8.65667 8.48257 8.65667 8.26782C8.65667 6.52396 7.29328 5.09324 5.57653 4.98376C5.42092 4.72365 5.33917 4.42787 5.33917 4.12095C5.33917 3.42796 5.75987 2.83153 6.3592 2.57318C6.38262 2.56625 6.40532 2.55711 6.427 2.54587C6.61762 2.47332 6.81988 2.43618 7.02384 2.43629C7.67474 2.43629 8.25582 2.80022 8.54035 3.38618C8.56264 3.43211 8.59377 3.4732 8.63195 3.5071C8.67013 3.54101 8.71461 3.56705 8.76286 3.58376C8.81111 3.60046 8.86217 3.60749 8.91314 3.60446C8.96411 3.60142 9.01398 3.58837 9.0599 3.56605C9.10583 3.54375 9.14691 3.51263 9.18081 3.47446C9.21471 3.43628 9.24075 3.3918 9.25745 3.34356C9.27416 3.29532 9.28119 3.24426 9.27816 3.1933C9.27513 3.14233 9.26208 3.09247 9.23977 3.04655C8.91497 2.37771 8.30025 1.89698 7.59232 1.7267C8.58457 1.12126 9.56141 0.777538 10.3413 0.777538C11.0416 0.777538 11.6113 1.34721 11.6113 2.04752V7.07824C11.262 6.80112 10.8208 6.63499 10.3413 6.63499C10.1266 6.63499 9.95257 6.809 9.95257 7.02376C9.95257 7.23851 10.1266 7.41253 10.3413 7.41253C11.0416 7.41253 11.6113 7.9822 11.6113 8.68251V18.0274C11.1279 17.4038 10.4465 16.9331 9.64492 16.7177C9.5955 16.7041 9.54389 16.7004 9.49304 16.7069C9.4422 16.7133 9.39312 16.7297 9.34865 16.7552C9.30417 16.7806 9.26516 16.8146 9.23387 16.8552C9.20259 16.8958 9.17963 16.9422 9.16633 16.9917C9.15304 17.0412 9.14966 17.0928 9.15639 17.1436C9.16312 17.1944 9.17983 17.2434 9.20556 17.2877C9.23129 17.3321 9.26553 17.3709 9.30631 17.4019C9.34708 17.433 9.3936 17.4556 9.44317 17.4686C10.7197 17.8116 11.6113 18.9733 11.6113 20.2937C11.6113 21.9086 10.2975 23.2225 8.68259 23.2225ZM20.4836 17.6142C20.4027 17.6502 20.3365 17.7127 20.2959 17.7914C20.2554 17.8701 20.2429 17.9603 20.2606 18.047C20.2999 18.2406 20.3197 18.4375 20.3197 18.635C20.3197 19.9548 19.4287 21.1164 18.1528 21.4597C18.1011 21.4736 18.0528 21.4981 18.011 21.5316C17.9692 21.565 17.9348 21.6068 17.9098 21.6542C17.4009 22.6215 16.4076 23.2225 15.3176 23.2225C13.7027 23.2225 12.3889 21.9086 12.3889 20.2937C12.3889 20.1844 12.3838 20.076 12.3743 19.9687C12.3838 19.9347 12.3887 19.8996 12.3889 19.8644V7.02376C12.3889 6.32346 12.9586 5.75378 13.6588 5.75378C13.8735 5.75378 14.0476 5.57977 14.0476 5.36501C14.0476 5.15025 13.8735 4.97624 13.6588 4.97624C13.1793 4.97624 12.7382 5.14238 12.3889 5.41949V2.04752C12.3889 1.34721 12.9586 0.777538 13.6588 0.777538C14.4388 0.777538 15.4156 1.12126 16.4078 1.7267C15.6999 1.89693 15.0852 2.37771 14.7604 3.04655C14.7381 3.09247 14.725 3.14233 14.722 3.1933C14.719 3.24426 14.726 3.29532 14.7427 3.34356C14.7594 3.3918 14.7855 3.43628 14.8194 3.47446C14.8532 3.51263 14.8943 3.54375 14.9403 3.56605C14.9862 3.58836 15.0361 3.6014 15.087 3.60444C15.138 3.60747 15.1891 3.60044 15.2373 3.58374C15.2855 3.56703 15.33 3.54099 15.3682 3.50709C15.4064 3.47319 15.4375 3.43211 15.4598 3.38618C15.7443 2.80022 16.3254 2.43629 16.9763 2.43629C17.1864 2.43629 17.3875 2.47527 17.5732 2.54587C17.595 2.55727 17.6177 2.56624 17.6408 2.57313C18.2402 2.83148 18.661 3.42791 18.661 4.12095C18.661 4.42787 18.5792 4.72365 18.4236 4.98376C16.7069 5.09324 15.3435 6.52396 15.3435 8.26782C15.3435 8.48257 15.5176 8.65659 15.7323 8.65659C15.947 8.65659 16.121 8.48257 16.121 8.26782C16.121 6.88157 17.2488 5.75378 18.6351 5.75378C20.0213 5.75378 21.1491 6.88157 21.1491 8.26782C21.1491 8.59148 21.0869 8.90898 20.9642 9.21149C20.9333 9.28777 20.9273 9.37191 20.9473 9.45178C20.9672 9.53166 21.012 9.60314 21.0751 9.65593C21.6492 10.1358 21.9785 10.8391 21.9785 11.5853C21.9785 12.9716 20.8507 14.0994 19.4644 14.0994C19.2497 14.0994 19.0757 14.2734 19.0757 14.4881C19.0757 14.7029 19.2497 14.8769 19.4644 14.8769C20.2971 14.8769 21.058 14.5655 21.6384 14.0538C21.8616 14.4356 21.9785 14.8666 21.9785 15.3175C21.9785 16.3089 21.3917 17.2104 20.4836 17.6142ZM7.84023 11.5305C7.67483 12.287 7.00003 12.8551 6.19471 12.8551C5.98 12.8551 5.80594 13.0292 5.80594 13.2439C5.80594 13.4587 5.98 13.6327 6.19471 13.6327C7.42705 13.6327 8.45071 12.7226 8.62923 11.5392C9.38375 11.4577 10.0803 11.1214 10.6195 10.5711C10.69 10.4971 10.7286 10.3984 10.7269 10.2962C10.7251 10.194 10.6832 10.0966 10.6102 10.025C10.5372 9.95349 10.4389 9.91358 10.3367 9.91394C10.2345 9.9143 10.1366 9.95489 10.064 10.0269C9.58721 10.5137 8.94942 10.7817 8.26814 10.7817C6.88189 10.7817 5.7541 9.65392 5.7541 8.26768C5.7541 8.05292 5.58004 7.87891 5.36533 7.87891C5.15063 7.87891 4.97656 8.05292 4.97656 8.26768C4.97656 9.93757 6.22679 11.32 7.84023 11.5305ZM9.48628 14.9027C9.48628 14.7996 9.44532 14.7007 9.37241 14.6278C9.29951 14.5549 9.20062 14.5139 9.09751 14.5139C7.28253 14.5139 5.80594 15.9905 5.80594 17.8055C5.80594 17.8177 5.80622 17.8299 5.80651 17.8421L5.80692 17.8619C5.66057 17.8418 5.51304 17.8317 5.36533 17.8314C5.15063 17.8314 4.97656 18.0054 4.97656 18.2202C4.97656 18.4349 5.15063 18.6089 5.36533 18.6089C6.75158 18.6089 7.87937 19.7367 7.87937 21.123C7.87937 21.3377 8.05344 21.5117 8.26814 21.5117C8.48284 21.5117 8.65691 21.3377 8.65691 21.123C8.65691 19.7436 7.80359 18.5604 6.59742 18.0715C6.58815 17.9832 6.5835 17.8943 6.58348 17.8055C6.58348 16.4192 7.71127 15.2914 9.09751 15.2914C9.20062 15.2914 9.29951 15.2505 9.37241 15.1776C9.44532 15.1047 9.48628 15.0058 9.48628 14.9027ZM16.989 11.116C17.1544 11.8724 17.8292 12.4406 18.6345 12.4406C18.8492 12.4406 19.0233 12.6146 19.0233 12.8294C19.0233 13.0441 18.8492 13.2181 18.6345 13.2181C17.4022 13.2181 16.3785 12.3081 16.2 11.1247C15.4455 11.0431 14.749 10.7069 14.2098 10.1566C14.1376 10.0829 14.0977 9.9836 14.0987 9.88049C14.0998 9.77738 14.1418 9.67892 14.2154 9.60676C14.2891 9.5346 14.3884 9.49465 14.4915 9.4957C14.5946 9.49676 14.693 9.53873 14.7652 9.61238C15.242 10.0991 15.8798 10.3672 16.5611 10.3672C17.9474 10.3672 19.0751 9.23937 19.0751 7.85312C19.0751 7.63837 19.2492 7.46436 19.4639 7.46436C19.6786 7.46436 19.8527 7.63837 19.8527 7.85312C19.8527 9.52302 18.6025 10.9054 16.989 11.116ZM16.9489 17.0326C17.0935 17.0131 17.2407 17.0022 17.3905 17.0022C17.6052 17.0022 17.7793 17.1762 17.7793 17.3909C17.7793 17.6057 17.6052 17.7797 17.3905 17.7797C16.0042 17.7797 14.8764 18.9075 14.8764 20.2937C14.8764 20.5085 14.7024 20.6825 14.4877 20.6825C14.273 20.6825 14.0989 20.5085 14.0989 20.2937C14.0989 18.9143 14.9522 17.7311 16.1584 17.2423C16.1677 17.1539 16.1723 17.0651 16.1723 16.9762C16.1723 15.59 15.0445 14.4622 13.6583 14.4622C13.4436 14.4622 13.2695 14.2882 13.2695 14.0734C13.2695 13.8587 13.4436 13.6847 13.6583 13.6847C15.4733 13.6847 16.9499 15.1613 16.9499 16.9762C16.9499 16.9884 16.9496 17.0007 16.9493 17.0129C16.9492 17.0195 16.949 17.026 16.9489 17.0326Z"/>
</mask>
<path fill-rule="evenodd" clip-rule="evenodd" d="M22.756 11.5853C22.7564 11.1498 22.6701 10.7185 22.5021 10.3166C22.3341 9.91476 22.0878 9.55035 21.7776 9.24461C21.8766 8.92846 21.9268 8.59909 21.9266 8.26782C21.9266 6.66744 20.7784 5.33085 19.2626 5.03694C19.3792 4.74566 19.439 4.43472 19.4385 4.12095C19.4385 3.1072 18.8226 2.2348 17.9453 1.85775C16.4838 0.693719 14.8854 0 13.6588 0C12.977 0 12.3724 0.335274 12.0001 0.849279C11.6277 0.335274 11.0231 0 10.3413 0C9.11479 0 7.51633 0.693719 6.05482 1.85775C5.1776 2.2348 4.56164 3.1072 4.56164 4.12095C4.56164 4.4386 4.62172 4.74816 4.73757 5.03694C3.22178 5.33085 2.07352 6.66744 2.07352 8.26782C2.07352 8.6005 2.12354 8.92795 2.22254 9.24461C1.91232 9.55035 1.66605 9.91476 1.49807 10.3166C1.3301 10.7185 1.24378 11.1498 1.24414 11.5853C1.24414 12.2772 1.45921 12.9196 1.82538 13.4501C1.44485 14.0002 1.24414 14.6419 1.24414 15.3175C1.24414 16.5143 1.8966 17.6108 2.92964 18.189C2.91184 18.337 2.90291 18.4859 2.90289 18.635C2.90289 20.2494 3.95594 21.6767 5.4838 22.1631C6.14838 23.3005 7.35896 24 8.68259 24C10.1337 24 11.392 23.1612 12.0001 21.9435C12.6082 23.1612 13.8664 24 15.3176 24C16.6412 24 17.8518 23.3005 18.5164 22.1631C20.0442 21.6766 21.0973 20.2493 21.0973 18.635C21.0973 18.486 21.0883 18.3368 21.0705 18.189C22.1036 17.6108 22.756 16.5143 22.756 15.3175C22.756 14.6419 22.5553 14.0002 22.1748 13.4501C22.541 12.9196 22.756 12.2772 22.756 11.5853ZM8.68259 23.2225C7.59253 23.2225 6.59925 22.6215 6.09033 21.6541C6.0654 21.6067 6.03095 21.565 5.98913 21.5315C5.94731 21.4981 5.89903 21.4736 5.84732 21.4597C4.57149 21.1163 3.68043 19.9548 3.68043 18.635C3.68043 18.4375 3.70033 18.2397 3.73957 18.047C3.75723 17.9602 3.74476 17.87 3.70421 17.7913C3.66366 17.7126 3.59747 17.6501 3.51657 17.6141C2.60846 17.2104 2.02168 16.3089 2.02168 15.3175C2.02168 14.8666 2.13862 14.4356 2.36178 14.0538C2.94213 14.5655 3.70303 14.8769 4.53572 14.8769C4.75042 14.8769 4.92449 14.7029 4.92449 14.4881C4.92449 14.2734 4.75042 14.0994 4.53572 14.0994C3.14947 14.0994 2.02168 12.9716 2.02168 11.5853C2.02168 10.8391 2.35094 10.1358 2.92508 9.65593C2.98824 9.60314 3.03301 9.53166 3.05295 9.45178C3.07288 9.37191 3.06695 9.28777 3.036 9.21149C2.91384 8.91187 2.85102 8.59138 2.85105 8.26782C2.85105 6.88157 3.97885 5.75378 5.36509 5.75378C6.75134 5.75378 7.87913 6.88157 7.87913 8.26782C7.87913 8.48257 8.0532 8.65659 8.2679 8.65659C8.4826 8.65659 8.65667 8.48257 8.65667 8.26782C8.65667 6.52396 7.29328 5.09324 5.57653 4.98376C5.42092 4.72365 5.33917 4.42787 5.33917 4.12095C5.33917 3.42796 5.75987 2.83153 6.3592 2.57318C6.38262 2.56625 6.40532 2.55711 6.427 2.54587C6.61762 2.47332 6.81988 2.43618 7.02384 2.43629C7.67474 2.43629 8.25582 2.80022 8.54035 3.38618C8.56264 3.43211 8.59377 3.4732 8.63195 3.5071C8.67013 3.54101 8.71461 3.56705 8.76286 3.58376C8.81111 3.60046 8.86217 3.60749 8.91314 3.60446C8.96411 3.60142 9.01398 3.58837 9.0599 3.56605C9.10583 3.54375 9.14691 3.51263 9.18081 3.47446C9.21471 3.43628 9.24075 3.3918 9.25745 3.34356C9.27416 3.29532 9.28119 3.24426 9.27816 3.1933C9.27513 3.14233 9.26208 3.09247 9.23977 3.04655C8.91497 2.37771 8.30025 1.89698 7.59232 1.7267C8.58457 1.12126 9.56141 0.777538 10.3413 0.777538C11.0416 0.777538 11.6113 1.34721 11.6113 2.04752V7.07824C11.262 6.80112 10.8208 6.63499 10.3413 6.63499C10.1266 6.63499 9.95257 6.809 9.95257 7.02376C9.95257 7.23851 10.1266 7.41253 10.3413 7.41253C11.0416 7.41253 11.6113 7.9822 11.6113 8.68251V18.0274C11.1279 17.4038 10.4465 16.9331 9.64492 16.7177C9.5955 16.7041 9.54389 16.7004 9.49304 16.7069C9.4422 16.7133 9.39312 16.7297 9.34865 16.7552C9.30417 16.7806 9.26516 16.8146 9.23387 16.8552C9.20259 16.8958 9.17963 16.9422 9.16633 16.9917C9.15304 17.0412 9.14966 17.0928 9.15639 17.1436C9.16312 17.1944 9.17983 17.2434 9.20556 17.2877C9.23129 17.3321 9.26553 17.3709 9.30631 17.4019C9.34708 17.433 9.3936 17.4556 9.44317 17.4686C10.7197 17.8116 11.6113 18.9733 11.6113 20.2937C11.6113 21.9086 10.2975 23.2225 8.68259 23.2225ZM20.4836 17.6142C20.4027 17.6502 20.3365 17.7127 20.2959 17.7914C20.2554 17.8701 20.2429 17.9603 20.2606 18.047C20.2999 18.2406 20.3197 18.4375 20.3197 18.635C20.3197 19.9548 19.4287 21.1164 18.1528 21.4597C18.1011 21.4736 18.0528 21.4981 18.011 21.5316C17.9692 21.565 17.9348 21.6068 17.9098 21.6542C17.4009 22.6215 16.4076 23.2225 15.3176 23.2225C13.7027 23.2225 12.3889 21.9086 12.3889 20.2937C12.3889 20.1844 12.3838 20.076 12.3743 19.9687C12.3838 19.9347 12.3887 19.8996 12.3889 19.8644V7.02376C12.3889 6.32346 12.9586 5.75378 13.6588 5.75378C13.8735 5.75378 14.0476 5.57977 14.0476 5.36501C14.0476 5.15025 13.8735 4.97624 13.6588 4.97624C13.1793 4.97624 12.7382 5.14238 12.3889 5.41949V2.04752C12.3889 1.34721 12.9586 0.777538 13.6588 0.777538C14.4388 0.777538 15.4156 1.12126 16.4078 1.7267C15.6999 1.89693 15.0852 2.37771 14.7604 3.04655C14.7381 3.09247 14.725 3.14233 14.722 3.1933C14.719 3.24426 14.726 3.29532 14.7427 3.34356C14.7594 3.3918 14.7855 3.43628 14.8194 3.47446C14.8532 3.51263 14.8943 3.54375 14.9403 3.56605C14.9862 3.58836 15.0361 3.6014 15.087 3.60444C15.138 3.60747 15.1891 3.60044 15.2373 3.58374C15.2855 3.56703 15.33 3.54099 15.3682 3.50709C15.4064 3.47319 15.4375 3.43211 15.4598 3.38618C15.7443 2.80022 16.3254 2.43629 16.9763 2.43629C17.1864 2.43629 17.3875 2.47527 17.5732 2.54587C17.595 2.55727 17.6177 2.56624 17.6408 2.57313C18.2402 2.83148 18.661 3.42791 18.661 4.12095C18.661 4.42787 18.5792 4.72365 18.4236 4.98376C16.7069 5.09324 15.3435 6.52396 15.3435 8.26782C15.3435 8.48257 15.5176 8.65659 15.7323 8.65659C15.947 8.65659 16.121 8.48257 16.121 8.26782C16.121 6.88157 17.2488 5.75378 18.6351 5.75378C20.0213 5.75378 21.1491 6.88157 21.1491 8.26782C21.1491 8.59148 21.0869 8.90898 20.9642 9.21149C20.9333 9.28777 20.9273 9.37191 20.9473 9.45178C20.9672 9.53166 21.012 9.60314 21.0751 9.65593C21.6492 10.1358 21.9785 10.8391 21.9785 11.5853C21.9785 12.9716 20.8507 14.0994 19.4644 14.0994C19.2497 14.0994 19.0757 14.2734 19.0757 14.4881C19.0757 14.7029 19.2497 14.8769 19.4644 14.8769C20.2971 14.8769 21.058 14.5655 21.6384 14.0538C21.8616 14.4356 21.9785 14.8666 21.9785 15.3175C21.9785 16.3089 21.3917 17.2104 20.4836 17.6142ZM7.84023 11.5305C7.67483 12.287 7.00003 12.8551 6.19471 12.8551C5.98 12.8551 5.80594 13.0292 5.80594 13.2439C5.80594 13.4587 5.98 13.6327 6.19471 13.6327C7.42705 13.6327 8.45071 12.7226 8.62923 11.5392C9.38375 11.4577 10.0803 11.1214 10.6195 10.5711C10.69 10.4971 10.7286 10.3984 10.7269 10.2962C10.7251 10.194 10.6832 10.0966 10.6102 10.025C10.5372 9.95349 10.4389 9.91358 10.3367 9.91394C10.2345 9.9143 10.1366 9.95489 10.064 10.0269C9.58721 10.5137 8.94942 10.7817 8.26814 10.7817C6.88189 10.7817 5.7541 9.65392 5.7541 8.26768C5.7541 8.05292 5.58004 7.87891 5.36533 7.87891C5.15063 7.87891 4.97656 8.05292 4.97656 8.26768C4.97656 9.93757 6.22679 11.32 7.84023 11.5305ZM9.48628 14.9027C9.48628 14.7996 9.44532 14.7007 9.37241 14.6278C9.29951 14.5549 9.20062 14.5139 9.09751 14.5139C7.28253 14.5139 5.80594 15.9905 5.80594 17.8055C5.80594 17.8177 5.80622 17.8299 5.80651 17.8421L5.80692 17.8619C5.66057 17.8418 5.51304 17.8317 5.36533 17.8314C5.15063 17.8314 4.97656 18.0054 4.97656 18.2202C4.97656 18.4349 5.15063 18.6089 5.36533 18.6089C6.75158 18.6089 7.87937 19.7367 7.87937 21.123C7.87937 21.3377 8.05344 21.5117 8.26814 21.5117C8.48284 21.5117 8.65691 21.3377 8.65691 21.123C8.65691 19.7436 7.80359 18.5604 6.59742 18.0715C6.58815 17.9832 6.5835 17.8943 6.58348 17.8055C6.58348 16.4192 7.71127 15.2914 9.09751 15.2914C9.20062 15.2914 9.29951 15.2505 9.37241 15.1776C9.44532 15.1047 9.48628 15.0058 9.48628 14.9027ZM16.989 11.116C17.1544 11.8724 17.8292 12.4406 18.6345 12.4406C18.8492 12.4406 19.0233 12.6146 19.0233 12.8294C19.0233 13.0441 18.8492 13.2181 18.6345 13.2181C17.4022 13.2181 16.3785 12.3081 16.2 11.1247C15.4455 11.0431 14.749 10.7069 14.2098 10.1566C14.1376 10.0829 14.0977 9.9836 14.0987 9.88049C14.0998 9.77738 14.1418 9.67892 14.2154 9.60676C14.2891 9.5346 14.3884 9.49465 14.4915 9.4957C14.5946 9.49676 14.693 9.53873 14.7652 9.61238C15.242 10.0991 15.8798 10.3672 16.5611 10.3672C17.9474 10.3672 19.0751 9.23937 19.0751 7.85312C19.0751 7.63837 19.2492 7.46436 19.4639 7.46436C19.6786 7.46436 19.8527 7.63837 19.8527 7.85312C19.8527 9.52302 18.6025 10.9054 16.989 11.116ZM16.9489 17.0326C17.0935 17.0131 17.2407 17.0022 17.3905 17.0022C17.6052 17.0022 17.7793 17.1762 17.7793 17.3909C17.7793 17.6057 17.6052 17.7797 17.3905 17.7797C16.0042 17.7797 14.8764 18.9075 14.8764 20.2937C14.8764 20.5085 14.7024 20.6825 14.4877 20.6825C14.273 20.6825 14.0989 20.5085 14.0989 20.2937C14.0989 18.9143 14.9522 17.7311 16.1584 17.2423C16.1677 17.1539 16.1723 17.0651 16.1723 16.9762C16.1723 15.59 15.0445 14.4622 13.6583 14.4622C13.4436 14.4622 13.2695 14.2882 13.2695 14.0734C13.2695 13.8587 13.4436 13.6847 13.6583 13.6847C15.4733 13.6847 16.9499 15.1613 16.9499 16.9762C16.9499 16.9884 16.9496 17.0007 16.9493 17.0129C16.9492 17.0195 16.949 17.026 16.9489 17.0326Z" fill="#50945D"/>
<path d="M22.5021 10.3166L22.4098 10.3552V10.3552L22.5021 10.3166ZM22.756 11.5853L22.656 11.5852V11.5853H22.756ZM21.7776 9.24461L21.6822 9.21475L21.664 9.273L21.7074 9.31584L21.7776 9.24461ZM21.9266 8.26782H21.8266V8.26787L21.9266 8.26782ZM19.2626 5.03694L19.1698 4.99977L19.1248 5.11208L19.2436 5.13511L19.2626 5.03694ZM19.4385 4.12095H19.3385V4.12109L19.4385 4.12095ZM17.9453 1.85775L17.883 1.93597L17.8935 1.94432L17.9059 1.94962L17.9453 1.85775ZM12.0001 0.849279L11.9191 0.907943L12.0001 1.01974L12.0811 0.907943L12.0001 0.849279ZM6.05482 1.85775L6.09431 1.94962L6.10663 1.94432L6.11712 1.93597L6.05482 1.85775ZM4.73757 5.03694L4.7566 5.13511L4.87545 5.11207L4.83038 4.99971L4.73757 5.03694ZM2.22254 9.24461L2.29274 9.31584L2.3362 9.27301L2.31799 9.21477L2.22254 9.24461ZM1.49807 10.3166L1.40581 10.2781L1.49807 10.3166ZM1.24414 11.5853H1.34414L1.34414 11.5852L1.24414 11.5853ZM1.82538 13.4501L1.90762 13.507L1.94693 13.4502L1.90768 13.3933L1.82538 13.4501ZM2.92964 18.189L3.02892 18.2009L3.03692 18.1344L2.97848 18.1017L2.92964 18.189ZM2.90289 18.635L2.80289 18.635V18.635H2.90289ZM5.4838 22.1631L5.57014 22.1126L5.55075 22.0795L5.51413 22.0678L5.4838 22.1631ZM12.0001 21.9435L12.0895 21.8988L12.0001 21.7196L11.9106 21.8988L12.0001 21.9435ZM18.5164 22.1631L18.486 22.0678L18.4494 22.0795L18.43 22.1126L18.5164 22.1631ZM21.0705 18.189L21.0217 18.1017L20.9632 18.1344L20.9712 18.2009L21.0705 18.189ZM22.1748 13.4501L22.0925 13.3933L22.0532 13.4502L22.0925 13.507L22.1748 13.4501ZM6.09033 21.6541L6.00182 21.7007L6.00183 21.7007L6.09033 21.6541ZM5.84732 21.4597L5.87332 21.3631L5.87331 21.3631L5.84732 21.4597ZM3.73957 18.047L3.83756 18.0669L3.83756 18.0669L3.73957 18.047ZM3.70421 17.7913L3.61531 17.8371L3.70421 17.7913ZM3.51657 17.6141L3.55721 17.5228L3.5572 17.5228L3.51657 17.6141ZM2.36178 14.0538L2.42791 13.9788L2.33676 13.8984L2.27544 14.0033L2.36178 14.0538ZM2.92508 9.65593L2.9892 9.73266L2.98921 9.73266L2.92508 9.65593ZM3.05295 9.45178L2.95593 9.42757V9.42757L3.05295 9.45178ZM3.036 9.21149L3.12867 9.1739L3.1286 9.17373L3.036 9.21149ZM2.85105 8.26782L2.95105 8.26783V8.26782H2.85105ZM5.57653 4.98376L5.49072 5.0351L5.5177 5.08021L5.57017 5.08356L5.57653 4.98376ZM6.3592 2.57318L6.33062 2.47661L6.31962 2.48135L6.3592 2.57318ZM6.427 2.54587L6.3912 2.45179L6.38097 2.45709L6.427 2.54587ZM7.02384 2.43629L7.02379 2.53628H7.02384V2.43629ZM8.54035 3.38618L8.63031 3.34251L8.6303 3.3425L8.54035 3.38618ZM8.63195 3.5071L8.69834 3.43233V3.43233L8.63195 3.5071ZM8.76286 3.58376L8.79557 3.48926H8.79557L8.76286 3.58376ZM8.91314 3.60446L8.90719 3.50463H8.90719L8.91314 3.60446ZM9.0599 3.56605L9.01623 3.47609L9.01619 3.47611L9.0599 3.56605ZM9.18081 3.47446L9.25559 3.54085V3.54085L9.18081 3.47446ZM9.25745 3.34356L9.16296 3.31084L9.16296 3.31084L9.25745 3.34356ZM9.27816 3.1933L9.37798 3.18735L9.37798 3.18735L9.27816 3.1933ZM9.23977 3.04655L9.14982 3.09023L9.14982 3.09025L9.23977 3.04655ZM7.59232 1.7267L7.54024 1.64134L7.33372 1.76735L7.56894 1.82393L7.59232 1.7267ZM11.6113 7.07824L11.5492 7.15658L11.7113 7.28521V7.07824H11.6113ZM11.6113 18.0274L11.5323 18.0887L11.7113 18.3197V18.0274H11.6113ZM9.64492 16.7177L9.61839 16.8142L9.61897 16.8143L9.64492 16.7177ZM9.23387 16.8552L9.31308 16.9163L9.31308 16.9163L9.23387 16.8552ZM9.16633 16.9917L9.06976 16.9658L9.16633 16.9917ZM9.30631 17.4019L9.36688 17.3223L9.36688 17.3223L9.30631 17.4019ZM9.44317 17.4686L9.46912 17.3721L9.46854 17.3719L9.44317 17.4686ZM20.2959 17.7914L20.3848 17.8372V17.8372L20.2959 17.7914ZM20.4836 17.6142L20.443 17.5228H20.443L20.4836 17.6142ZM20.2606 18.047L20.3586 18.0271L20.3586 18.0271L20.2606 18.047ZM20.3197 18.635H20.4197V18.635L20.3197 18.635ZM18.1528 21.4597L18.1788 21.5563L18.1788 21.5563L18.1528 21.4597ZM18.011 21.5316L17.9485 21.4535L18.011 21.5316ZM17.9098 21.6542L17.9983 21.7007L17.9983 21.7007L17.9098 21.6542ZM12.3743 19.9687L12.278 19.9416L12.2731 19.9592L12.2747 19.9775L12.3743 19.9687ZM12.3889 19.8644L12.4889 19.8647V19.8644H12.3889ZM12.3889 5.41949H12.2889V5.62646L12.451 5.49783L12.3889 5.41949ZM16.4078 1.7267L16.4312 1.82393L16.6665 1.76736L16.4599 1.64134L16.4078 1.7267ZM14.7604 3.04655L14.8503 3.09025L14.8503 3.09023L14.7604 3.04655ZM14.722 3.1933L14.8218 3.19924L14.8218 3.19924L14.722 3.1933ZM14.7427 3.34356L14.8372 3.31084V3.31084L14.7427 3.34356ZM14.8194 3.47446L14.7446 3.54085L14.7446 3.54085L14.8194 3.47446ZM14.9403 3.56605L14.984 3.4761L14.9839 3.47609L14.9403 3.56605ZM15.087 3.60444L15.093 3.50462H15.093L15.087 3.60444ZM15.3682 3.50709L15.3018 3.43231L15.3018 3.43231L15.3682 3.50709ZM15.4598 3.38618L15.3699 3.3425L15.3699 3.3425L15.4598 3.38618ZM17.5732 2.54587L17.6197 2.45658L17.6087 2.4524L17.5732 2.54587ZM17.6408 2.57313L17.6807 2.48067L17.6694 2.47732L17.6408 2.57313ZM18.4236 4.98376L18.43 5.08356L18.4825 5.08021L18.5094 5.0351L18.4236 4.98376ZM20.9642 9.21149L21.0569 9.24908L21.0569 9.24908L20.9642 9.21149ZM20.9473 9.45178L21.0443 9.42757L20.9473 9.45178ZM21.0751 9.65593L21.1393 9.5792V9.5792L21.0751 9.65593ZM21.6384 14.0538L21.7247 14.0033L21.6634 13.8984L21.5723 13.9788L21.6384 14.0538ZM7.84023 11.5305L7.93793 11.5519L7.9612 11.4455L7.85318 11.4314L7.84023 11.5305ZM8.62923 11.5392L8.61848 11.4398L8.54185 11.4481L8.53035 11.5243L8.62923 11.5392ZM10.6195 10.5711L10.6909 10.6411L10.6918 10.6401L10.6195 10.5711ZM10.7269 10.2962L10.6269 10.2979V10.2979L10.7269 10.2962ZM10.6102 10.025L10.6802 9.95359H10.6802L10.6102 10.025ZM10.064 10.0269L9.99356 9.95599L9.99261 9.95695L10.064 10.0269ZM5.80651 17.8421L5.90648 17.84L5.90648 17.8398L5.80651 17.8421ZM5.80692 17.8619L5.79336 17.9609L5.90936 17.9768L5.9069 17.8598L5.80692 17.8619ZM5.36533 17.8314L5.36551 17.7314H5.36533V17.8314ZM6.59742 18.0715L6.49796 18.082L6.50422 18.1417L6.55986 18.1642L6.59742 18.0715ZM6.58348 17.8055H6.48348V17.8055L6.58348 17.8055ZM16.989 11.116L16.9761 11.0168L16.8681 11.0309L16.8913 11.1373L16.989 11.116ZM16.2 11.1247L16.2989 11.1098L16.2874 11.0336L16.2108 11.0253L16.2 11.1247ZM14.2098 10.1566L14.1384 10.2265L14.2098 10.1566ZM14.0987 9.88049L14.1987 9.88151L14.0987 9.88049ZM14.2154 9.60676L14.1454 9.53533V9.53533L14.2154 9.60676ZM14.4915 9.4957L14.4904 9.5957L14.4915 9.4957ZM14.7652 9.61238L14.8366 9.5424L14.8366 9.5424L14.7652 9.61238ZM16.9489 17.0326L16.8489 17.031L16.847 17.1473L16.9623 17.1317L16.9489 17.0326ZM16.1584 17.2423L16.196 17.335L16.2516 17.3124L16.2579 17.2527L16.1584 17.2423ZM16.1723 16.9762L16.2723 16.9763V16.9762H16.1723ZM16.9493 17.0129L16.8493 17.0105L16.9493 17.0129ZM22.4098 10.3552C22.5727 10.7448 22.6564 11.1629 22.656 11.5852L22.856 11.5854C22.8564 11.1366 22.7675 10.6922 22.5944 10.2781L22.4098 10.3552ZM21.7074 9.31584C22.0082 9.61226 22.247 9.96557 22.4098 10.3552L22.5944 10.2781C22.4213 9.86395 22.1675 9.48844 21.8478 9.17339L21.7074 9.31584ZM21.8266 8.26787C21.8268 8.58899 21.7781 8.90828 21.6822 9.21475L21.8731 9.27448C21.975 8.94864 22.0268 8.60919 22.0266 8.26777L21.8266 8.26787ZM19.2436 5.13511C20.7133 5.4201 21.8266 6.71634 21.8266 8.26782H22.0266C22.0266 6.61854 20.8434 5.2416 19.2816 4.93877L19.2436 5.13511ZM19.3385 4.12109C19.3389 4.42208 19.2817 4.72035 19.1698 4.99977L19.3554 5.07412C19.4768 4.77097 19.539 4.44736 19.5385 4.12081L19.3385 4.12109ZM17.9059 1.94962C18.7478 2.31151 19.3385 3.1487 19.3385 4.12095H19.5385C19.5385 3.06569 18.8973 2.15809 17.9848 1.76587L17.9059 1.94962ZM13.6588 0.1C14.8535 0.1 16.4304 0.778974 17.883 1.93597L18.0076 1.77952C16.5373 0.608465 14.9172 -0.1 13.6588 -0.1V0.1ZM12.0811 0.907943C12.4355 0.418652 13.0106 0.1 13.6588 0.1V-0.1C12.9435 -0.1 12.3093 0.251897 11.9191 0.790615L12.0811 0.907943ZM10.3413 0.1C10.9896 0.1 11.5647 0.418652 11.9191 0.907943L12.0811 0.790615C11.6908 0.251897 11.0567 -0.1 10.3413 -0.1V0.1ZM6.11712 1.93597C7.5698 0.778974 9.14663 0.1 10.3413 0.1V-0.1C9.08296 -0.1 7.46286 0.608465 5.99252 1.77952L6.11712 1.93597ZM4.66164 4.12095C4.66164 3.1487 5.25237 2.31151 6.09431 1.94962L6.01533 1.76587C5.10283 2.15809 4.46164 3.06569 4.46164 4.12095H4.66164ZM4.83038 4.99971C4.7193 4.72284 4.66164 4.42591 4.66164 4.12095H4.46164C4.46164 4.45129 4.52413 4.77349 4.64476 5.07418L4.83038 4.99971ZM2.17352 8.26782C2.17352 6.71634 3.28683 5.4201 4.7566 5.13511L4.71853 4.93877C3.15674 5.2416 1.97352 6.61854 1.97352 8.26782H2.17352ZM2.31799 9.21477C2.222 8.90777 2.17352 8.59039 2.17352 8.26782H1.97352C1.97352 8.61061 2.02507 8.94812 2.1271 9.27445L2.31799 9.21477ZM1.59034 10.3552C1.7532 9.96557 1.99197 9.61226 2.29274 9.31584L2.15235 9.17339C1.83268 9.48843 1.5789 9.86395 1.40581 10.2781L1.59034 10.3552ZM1.34414 11.5852C1.34379 11.1629 1.42748 10.7448 1.59034 10.3552L1.40581 10.2781C1.23271 10.6922 1.14377 11.1366 1.14414 11.5854L1.34414 11.5852ZM1.90768 13.3933C1.5526 12.8789 1.34414 12.2562 1.34414 11.5853H1.14414C1.14414 12.2983 1.36582 12.9604 1.74308 13.5069L1.90768 13.3933ZM1.34414 15.3175C1.34414 14.6621 1.53869 14.0403 1.90762 13.507L1.74314 13.3932C1.35101 13.9601 1.14414 14.6216 1.14414 15.3175H1.34414ZM2.97848 18.1017C1.97674 17.5411 1.34414 16.4777 1.34414 15.3175H1.14414C1.14414 16.5508 1.81646 17.6806 2.8808 18.2763L2.97848 18.1017ZM3.00289 18.635C3.00291 18.4899 3.0116 18.345 3.02892 18.2009L2.83035 18.1771C2.81208 18.329 2.80291 18.4819 2.80289 18.635L3.00289 18.635ZM5.51413 22.0678C4.02753 21.5945 3.00289 20.2056 3.00289 18.635H2.80289C2.80289 20.2931 3.88434 21.7588 5.45346 22.2584L5.51413 22.0678ZM8.68259 23.9C7.39466 23.9 6.21687 23.2195 5.57014 22.1126L5.39746 22.2135C6.0799 23.3815 7.32326 24.1 8.68259 24.1V23.9ZM11.9106 21.8988C11.3187 23.0841 10.0942 23.9 8.68259 23.9V24.1C10.1732 24.1 11.4653 23.2384 12.0895 21.9881L11.9106 21.8988ZM15.3176 23.9C13.9059 23.9 12.6814 23.0841 12.0895 21.8988L11.9106 21.9881C12.5349 23.2384 13.8269 24.1 15.3176 24.1V23.9ZM18.43 22.1126C17.7833 23.2195 16.6055 23.9 15.3176 23.9V24.1C16.6769 24.1 17.9203 23.3815 18.6027 22.2135L18.43 22.1126ZM20.9973 18.635C20.9973 20.2055 19.9726 21.5945 18.486 22.0678L18.5467 22.2584C20.1158 21.7588 21.1973 20.2931 21.1973 18.635H20.9973ZM20.9712 18.2009C20.9885 18.3448 20.9973 18.49 20.9973 18.635H21.1973C21.1973 18.482 21.1881 18.3288 21.1698 18.1771L20.9712 18.2009ZM22.656 15.3175C22.656 16.4777 22.0234 17.5411 21.0217 18.1017L21.1194 18.2763C22.1837 17.6806 22.856 16.5508 22.856 15.3175H22.656ZM22.0925 13.507C22.4615 14.0403 22.656 14.6621 22.656 15.3175H22.856C22.856 14.6216 22.6492 13.9601 22.257 13.3932L22.0925 13.507ZM22.656 11.5853C22.656 12.2562 22.4476 12.8789 22.0925 13.3933L22.2571 13.5069C22.6343 12.9604 22.856 12.2983 22.856 11.5853H22.656ZM6.00183 21.7007C6.52798 22.7008 7.55526 23.3225 8.68259 23.3225V23.1225C7.6298 23.1225 6.67053 22.5422 6.17883 21.6076L6.00183 21.7007ZM5.92665 21.6096C5.95772 21.6345 5.98331 21.6655 6.00182 21.7007L6.17883 21.6076C6.14749 21.548 6.10418 21.4955 6.05161 21.4534L5.92665 21.6096ZM5.82132 21.5562C5.85973 21.5666 5.89559 21.5848 5.92665 21.6096L6.05161 21.4534C5.99903 21.4114 5.93834 21.3806 5.87332 21.3631L5.82132 21.5562ZM3.58043 18.635C3.58043 20.0001 4.5019 21.2012 5.82133 21.5562L5.87331 21.3631C4.64107 21.0315 3.78043 19.9095 3.78043 18.635H3.58043ZM3.64158 18.027C3.601 18.2263 3.58043 18.4308 3.58043 18.635H3.78043C3.78043 18.4442 3.79966 18.2531 3.83756 18.0669L3.64158 18.027ZM3.61531 17.8371C3.64543 17.8956 3.6547 17.9626 3.64158 18.027L3.83756 18.0669C3.85977 17.9578 3.84408 17.8445 3.79311 17.7455L3.61531 17.8371ZM3.47594 17.7055C3.53603 17.7322 3.58519 17.7787 3.61531 17.8371L3.79311 17.7455C3.74213 17.6466 3.65891 17.568 3.55721 17.5228L3.47594 17.7055ZM1.92168 15.3175C1.92168 16.3485 2.53184 17.2858 3.47595 17.7055L3.5572 17.5228C2.68508 17.1351 2.12168 16.2693 2.12168 15.3175H1.92168ZM2.27544 14.0033C2.04327 14.4005 1.92168 14.849 1.92168 15.3175H2.12168C2.12168 14.8842 2.23398 14.4706 2.44811 14.1043L2.27544 14.0033ZM4.53572 14.7769C3.72845 14.7769 2.99082 14.4751 2.42791 13.9788L2.29564 14.1288C2.89344 14.6559 3.67761 14.9769 4.53572 14.9769V14.7769ZM4.82449 14.4881C4.82449 14.6476 4.6952 14.7769 4.53572 14.7769V14.9769C4.80564 14.9769 5.02449 14.7581 5.02449 14.4881H4.82449ZM4.53572 14.1994C4.6952 14.1994 4.82449 14.3286 4.82449 14.4881H5.02449C5.02449 14.2181 4.80564 13.9994 4.53572 13.9994V14.1994ZM1.92168 11.5853C1.92168 13.0268 3.09424 14.1994 4.53572 14.1994V13.9994C3.2047 13.9994 2.12168 12.9163 2.12168 11.5853H1.92168ZM2.86095 9.5792C2.26415 10.078 1.92168 10.8094 1.92168 11.5853H2.12168C2.12168 10.8688 2.43774 10.1936 2.9892 9.73266L2.86095 9.5792ZM2.95593 9.42757C2.94112 9.48689 2.90786 9.53999 2.86094 9.5792L2.98921 9.73266C3.06862 9.66628 3.12491 9.57642 3.14997 9.476L2.95593 9.42757ZM2.94334 9.24908C2.96633 9.30575 2.97073 9.36824 2.95593 9.42757L3.14997 9.476C3.17504 9.37558 3.16758 9.2698 3.12867 9.1739L2.94334 9.24908ZM2.75105 8.26781C2.75102 8.60432 2.81635 8.93764 2.94341 9.24925L3.1286 9.17373C3.01132 8.88611 2.95102 8.57844 2.95105 8.26783L2.75105 8.26781ZM5.36509 5.65378C3.92362 5.65378 2.75105 6.82634 2.75105 8.26782H2.95105C2.95105 6.9368 4.03408 5.85378 5.36509 5.85378V5.65378ZM7.97913 8.26782C7.97913 6.82634 6.80657 5.65378 5.36509 5.65378V5.85378C6.69611 5.85378 7.77913 6.9368 7.77913 8.26782H7.97913ZM8.2679 8.55659C8.10842 8.55659 7.97913 8.42734 7.97913 8.26782H7.77913C7.77913 8.53781 7.99798 8.75659 8.2679 8.75659V8.55659ZM8.55667 8.26782C8.55667 8.42734 8.42738 8.55659 8.2679 8.55659V8.75659C8.53782 8.75659 8.75667 8.53781 8.75667 8.26782H8.55667ZM5.57017 5.08356C7.23468 5.1897 8.55667 6.57712 8.55667 8.26782H8.75667C8.75667 6.47079 7.35189 4.99677 5.5829 4.88396L5.57017 5.08356ZM5.23917 4.12095C5.23917 4.44584 5.32577 4.75937 5.49072 5.0351L5.66235 4.93242C5.51608 4.68792 5.43918 4.4099 5.43918 4.12095H5.23917ZM6.31962 2.48135C5.68506 2.75489 5.23917 3.38649 5.23917 4.12095H5.43918C5.43918 3.46942 5.83469 2.90818 6.39879 2.66501L6.31962 2.48135ZM6.38097 2.45709C6.36494 2.4654 6.34815 2.47217 6.33083 2.47729L6.38758 2.66907C6.41709 2.66034 6.44571 2.64881 6.47303 2.63464L6.38097 2.45709ZM7.02389 2.33629C6.80776 2.33618 6.59343 2.37553 6.39143 2.45241L6.46257 2.63933C6.64181 2.57111 6.83201 2.53619 7.02379 2.53628L7.02389 2.33629ZM8.6303 3.3425C8.32906 2.72212 7.71307 2.33629 7.02384 2.33629V2.53628C7.63642 2.53628 8.18258 2.87833 8.45039 3.42986L8.6303 3.3425ZM8.69834 3.43233C8.66999 3.40715 8.64687 3.37663 8.63031 3.34251L8.45038 3.42984C8.47841 3.48759 8.51755 3.53926 8.56555 3.58188L8.69834 3.43233ZM8.79557 3.48926C8.75974 3.47685 8.7267 3.45751 8.69834 3.43233L8.56555 3.58188C8.61355 3.6245 8.66948 3.65725 8.73014 3.67825L8.79557 3.48926ZM8.90719 3.50463C8.86934 3.50689 8.83141 3.50167 8.79557 3.48926L8.73014 3.67825C8.79081 3.69926 8.85501 3.7081 8.91909 3.70428L8.90719 3.50463ZM9.01619 3.47611C8.98208 3.49268 8.94504 3.50238 8.90719 3.50463L8.91909 3.70428C8.98317 3.70046 9.04587 3.68405 9.10361 3.65599L9.01619 3.47611ZM9.10603 3.40806C9.08086 3.43641 9.05034 3.45953 9.01623 3.47609L9.10357 3.65601C9.16131 3.62798 9.21297 3.58885 9.25559 3.54085L9.10603 3.40806ZM9.16296 3.31084C9.15055 3.34667 9.13121 3.37971 9.10603 3.40806L9.25559 3.54085C9.29821 3.49286 9.33095 3.43693 9.35195 3.37628L9.16296 3.31084ZM9.17834 3.19924C9.18059 3.23709 9.17536 3.27501 9.16296 3.31084L9.35195 3.37628C9.37295 3.31562 9.3818 3.25143 9.37798 3.18735L9.17834 3.19924ZM9.14982 3.09025C9.16639 3.12435 9.17608 3.16139 9.17834 3.19924L9.37798 3.18735C9.37417 3.12328 9.35777 3.06058 9.32972 3.00285L9.14982 3.09025ZM7.56894 1.82393C8.24852 1.98739 8.83841 2.44897 9.14982 3.09023L9.32972 3.00286C8.99153 2.30645 8.35197 1.80658 7.61571 1.62948L7.56894 1.82393ZM10.3413 0.677538C9.53561 0.677538 8.54031 1.03112 7.54024 1.64134L7.64441 1.81207C8.62882 1.2114 9.58721 0.877538 10.3413 0.877538V0.677538ZM11.7113 2.04752C11.7113 1.29198 11.0968 0.677538 10.3413 0.677538V0.877538C10.9864 0.877538 11.5113 1.40244 11.5113 2.04752H11.7113ZM11.7113 7.07824V2.04752H11.5113V7.07824H11.7113ZM10.3413 6.73499C10.7973 6.73499 11.2168 6.89289 11.5492 7.15658L11.6735 6.9999C11.3072 6.70936 10.8443 6.53499 10.3413 6.53499V6.73499ZM10.0526 7.02376C10.0526 6.86424 10.1818 6.73499 10.3413 6.73499V6.53499C10.0714 6.53499 9.85257 6.75377 9.85257 7.02376H10.0526ZM10.3413 7.31253C10.1818 7.31253 10.0526 7.18328 10.0526 7.02376H9.85257C9.85257 7.29375 10.0714 7.51253 10.3413 7.51253V7.31253ZM11.7113 8.68251C11.7113 7.92697 11.0968 7.31253 10.3413 7.31253V7.51253C10.9864 7.51253 11.5113 8.03743 11.5113 8.68251H11.7113ZM11.7113 18.0274V8.68251H11.5113V18.0274H11.7113ZM9.61897 16.8143C10.3988 17.0238 11.0618 17.4817 11.5323 18.0887L11.6904 17.9662C11.194 17.3258 10.4942 16.8424 9.67087 16.6212L9.61897 16.8143ZM9.50558 16.8061C9.54335 16.8013 9.58169 16.8041 9.61839 16.8142L9.67145 16.6213C9.60932 16.6042 9.54443 16.5996 9.48051 16.6077L9.50558 16.8061ZM9.39832 16.842C9.43137 16.8231 9.46782 16.8109 9.50558 16.8061L9.48051 16.6077C9.41658 16.6157 9.35488 16.6364 9.29897 16.6684L9.39832 16.842ZM9.31308 16.9163C9.33632 16.8861 9.36529 16.8609 9.39832 16.842L9.29897 16.6684C9.24305 16.7004 9.19401 16.7432 9.15467 16.7942L9.31308 16.9163ZM9.26291 17.0176C9.27279 16.9809 9.28984 16.9464 9.31308 16.9163L9.15467 16.7942C9.11534 16.8452 9.08648 16.9035 9.06976 16.9658L9.26291 17.0176ZM9.25552 17.1305C9.25052 17.0928 9.25303 17.0544 9.26291 17.0176L9.06976 16.9658C9.05304 17.028 9.04879 17.0929 9.05725 17.1568L9.25552 17.1305ZM9.29204 17.2375C9.27293 17.2046 9.26052 17.1682 9.25552 17.1305L9.05725 17.1568C9.06572 17.2206 9.08673 17.2822 9.11907 17.3379L9.29204 17.2375ZM9.36688 17.3223C9.33659 17.2993 9.31116 17.2705 9.29204 17.2375L9.11907 17.3379C9.15142 17.3937 9.19447 17.4425 9.24574 17.4815L9.36688 17.3223ZM9.46854 17.3719C9.43172 17.3622 9.39717 17.3454 9.36688 17.3223L9.24573 17.4815C9.297 17.5205 9.35548 17.549 9.41781 17.5654L9.46854 17.3719ZM11.7113 20.2937C11.7113 18.928 10.7893 17.7268 9.46912 17.3721L9.41723 17.5652C10.6502 17.8965 11.5113 19.0186 11.5113 20.2937H11.7113ZM8.68259 23.3225C10.3527 23.3225 11.7113 21.9639 11.7113 20.2937H11.5113C11.5113 21.8534 10.2423 23.1225 8.68259 23.1225V23.3225ZM20.3848 17.8372C20.415 17.7787 20.4641 17.7323 20.5242 17.7056L20.443 17.5228C20.3413 17.568 20.258 17.6466 20.207 17.7456L20.3848 17.8372ZM20.3586 18.0271C20.3455 17.9626 20.3547 17.8956 20.3848 17.8372L20.207 17.7456C20.1561 17.8445 20.1404 17.9579 20.1626 18.067L20.3586 18.0271ZM20.4197 18.635C20.4197 18.4309 20.3992 18.2272 20.3586 18.0271L20.1626 18.0669C20.2006 18.2539 20.2197 18.4442 20.2197 18.635L20.4197 18.635ZM18.1788 21.5563C19.4983 21.2012 20.4197 20.0001 20.4197 18.635H20.2197C20.2197 19.9095 19.3591 21.0315 18.1269 21.3632L18.1788 21.5563ZM18.0735 21.6096C18.1046 21.5848 18.1404 21.5666 18.1788 21.5563L18.1269 21.3632C18.0618 21.3807 18.0011 21.4114 17.9485 21.4535L18.0735 21.6096ZM17.9983 21.7007C18.0169 21.6655 18.0424 21.6345 18.0735 21.6096L17.9485 21.4535C17.896 21.4956 17.8527 21.548 17.8213 21.6076L17.9983 21.7007ZM15.3176 23.3225C16.4449 23.3225 17.4722 22.7008 17.9983 21.7007L17.8213 21.6076C17.3296 22.5422 16.3704 23.1225 15.3176 23.1225V23.3225ZM12.2889 20.2937C12.2889 21.9639 13.6475 23.3225 15.3176 23.3225V23.1225C13.7579 23.1225 12.4889 21.8534 12.4889 20.2937H12.2889ZM12.2747 19.9775C12.2839 20.0821 12.2889 20.1875 12.2889 20.2937H12.4889C12.4889 20.1813 12.4836 20.07 12.4739 19.9599L12.2747 19.9775ZM12.2889 19.8641C12.2888 19.8903 12.2851 19.9163 12.278 19.9416L12.4705 19.9958C12.4826 19.9531 12.4887 19.909 12.4888 19.8647L12.2889 19.8641ZM12.2889 7.02376V19.8644H12.4889V7.02376H12.2889ZM13.6588 5.65378C12.9034 5.65378 12.2889 6.26822 12.2889 7.02376H12.4889C12.4889 6.37869 13.0138 5.85378 13.6588 5.85378V5.65378ZM13.9476 5.36501C13.9476 5.52453 13.8183 5.65378 13.6588 5.65378V5.85378C13.9288 5.85378 14.1476 5.635 14.1476 5.36501H13.9476ZM13.6588 5.07624C13.8183 5.07624 13.9476 5.20549 13.9476 5.36501H14.1476C14.1476 5.09502 13.9288 4.87624 13.6588 4.87624V5.07624ZM12.451 5.49783C12.7834 5.23414 13.2029 5.07624 13.6588 5.07624V4.87624C13.1558 4.87624 12.6929 5.05061 12.3267 5.34115L12.451 5.49783ZM12.2889 2.04752V5.41949H12.4889V2.04752H12.2889ZM13.6588 0.677538C12.9034 0.677538 12.2889 1.29198 12.2889 2.04752H12.4889C12.4889 1.40244 13.0138 0.877538 13.6588 0.877538V0.677538ZM16.4599 1.64134C15.4599 1.03112 14.4646 0.677538 13.6588 0.677538V0.877538C14.4129 0.877538 15.3713 1.2114 16.3558 1.81207L16.4599 1.64134ZM14.8503 3.09023C15.1618 2.44897 15.7516 1.98734 16.4312 1.82393L16.3845 1.62948C15.6482 1.80652 15.0086 2.30645 14.6704 3.00286L14.8503 3.09023ZM14.8218 3.19924C14.8241 3.16139 14.8338 3.12435 14.8503 3.09025L14.6704 3.00285C14.6424 3.06058 14.626 3.12328 14.6222 3.18735L14.8218 3.19924ZM14.8372 3.31084C14.8248 3.27501 14.8196 3.23709 14.8218 3.19924L14.6222 3.18735C14.6184 3.25142 14.6272 3.31562 14.6482 3.37628L14.8372 3.31084ZM14.8941 3.40806C14.869 3.37971 14.8496 3.34667 14.8372 3.31084L14.6482 3.37628C14.6692 3.43693 14.702 3.49286 14.7446 3.54085L14.8941 3.40806ZM14.9839 3.47609C14.9498 3.45953 14.9193 3.43641 14.8941 3.40806L14.7446 3.54085C14.7872 3.58885 14.8389 3.62798 14.8966 3.65601L14.9839 3.47609ZM15.093 3.50462C15.0551 3.50236 15.0181 3.49267 14.984 3.4761L14.8966 3.65599C14.9543 3.68404 15.017 3.70045 15.0811 3.70426L15.093 3.50462ZM15.2046 3.48924C15.1687 3.50164 15.1308 3.50687 15.093 3.50462L15.0811 3.70426C15.1452 3.70808 15.2094 3.69923 15.27 3.67823L15.2046 3.48924ZM15.3018 3.43231C15.2735 3.45749 15.2404 3.47683 15.2046 3.48924L15.27 3.67823C15.3307 3.65723 15.3866 3.62449 15.4346 3.58187L15.3018 3.43231ZM15.3699 3.3425C15.3533 3.37662 15.3302 3.40713 15.3018 3.43231L15.4346 3.58187C15.4826 3.53925 15.5217 3.4876 15.5498 3.42985L15.3699 3.3425ZM16.9763 2.33629C16.2871 2.33629 15.6711 2.72212 15.3699 3.3425L15.5498 3.42986C15.8176 2.87833 16.3637 2.53628 16.9763 2.53628V2.33629ZM17.6087 2.4524C17.412 2.37759 17.1989 2.33629 16.9763 2.33629V2.53628C17.174 2.53628 17.363 2.57294 17.5376 2.63933L17.6087 2.4524ZM17.6694 2.47732C17.6519 2.47208 17.6352 2.46542 17.6194 2.45719L17.5269 2.63454C17.5549 2.64912 17.5836 2.66039 17.6122 2.66894L17.6694 2.47732ZM18.761 4.12095C18.761 3.38643 18.315 2.75483 17.6804 2.4813L17.6012 2.66497C18.1654 2.90813 18.561 3.46938 18.561 4.12095H18.761ZM18.5094 5.0351C18.6744 4.75937 18.761 4.44584 18.761 4.12095H18.561C18.561 4.4099 18.4841 4.68792 18.3378 4.93242L18.5094 5.0351ZM15.4435 8.26782C15.4435 6.57712 16.7655 5.1897 18.43 5.08356L18.4173 4.88396C16.6483 4.99677 15.2435 6.47079 15.2435 8.26782H15.4435ZM15.7323 8.55659C15.5728 8.55659 15.4435 8.42734 15.4435 8.26782H15.2435C15.2435 8.53781 15.4623 8.75659 15.7323 8.75659V8.55659ZM16.021 8.26782C16.021 8.42734 15.8917 8.55659 15.7323 8.55659V8.75659C16.0022 8.75659 16.221 8.53781 16.221 8.26782H16.021ZM18.6351 5.65378C17.1936 5.65378 16.021 6.82634 16.021 8.26782H16.221C16.221 6.9368 17.3041 5.85378 18.6351 5.85378V5.65378ZM21.2491 8.26782C21.2491 6.82634 20.0765 5.65378 18.6351 5.65378V5.85378C19.9661 5.85378 21.0491 6.9368 21.0491 8.26782H21.2491ZM21.0569 9.24908C21.1844 8.93473 21.2491 8.60448 21.2491 8.26782H21.0491C21.0491 8.57849 20.9894 8.88323 20.8715 9.17391L21.0569 9.24908ZM21.0443 9.42757C21.0295 9.36824 21.0339 9.30575 21.0569 9.24908L20.8715 9.1739C20.8326 9.2698 20.8252 9.37558 20.8502 9.476L21.0443 9.42757ZM21.1393 9.5792C21.0924 9.53999 21.0591 9.4869 21.0443 9.42757L20.8502 9.476C20.8753 9.57642 20.9316 9.66628 21.011 9.73266L21.1393 9.5792ZM22.0785 11.5853C22.0785 10.8094 21.736 10.078 21.1393 9.5792L21.011 9.73266C21.5624 10.1936 21.8785 10.8688 21.8785 11.5853H22.0785ZM19.4644 14.1994C20.9059 14.1994 22.0785 13.0268 22.0785 11.5853H21.8785C21.8785 12.9163 20.7955 13.9994 19.4644 13.9994V14.1994ZM19.1757 14.4881C19.1757 14.3286 19.305 14.1994 19.4644 14.1994V13.9994C19.1945 13.9994 18.9757 14.2181 18.9757 14.4881H19.1757ZM19.4644 14.7769C19.305 14.7769 19.1757 14.6476 19.1757 14.4881H18.9757C18.9757 14.7581 19.1945 14.9769 19.4644 14.9769V14.7769ZM21.5723 13.9788C21.0093 14.4751 20.2717 14.7769 19.4644 14.7769V14.9769C20.3226 14.9769 21.1067 14.6559 21.7045 14.1288L21.5723 13.9788ZM22.0785 15.3175C22.0785 14.849 21.957 14.4005 21.7247 14.0033L21.5521 14.1043C21.7662 14.4706 21.8785 14.8842 21.8785 15.3175H22.0785ZM20.5242 17.7056C21.4683 17.2858 22.0785 16.3485 22.0785 15.3175H21.8785C21.8785 16.2693 21.3151 17.1351 20.443 17.5228L20.5242 17.7056ZM6.19471 12.9551C7.04813 12.9551 7.76272 12.3532 7.93793 11.5519L7.74254 11.5092C7.58694 12.2208 6.95192 12.7551 6.19471 12.7551V12.9551ZM5.90594 13.2439C5.90594 13.0844 6.03522 12.9551 6.19471 12.9551V12.7551C5.92478 12.7551 5.70594 12.9739 5.70594 13.2439H5.90594ZM6.19471 13.5327C6.03522 13.5327 5.90594 13.4034 5.90594 13.2439H5.70594C5.70594 13.5139 5.92478 13.7327 6.19471 13.7327V13.5327ZM8.53035 11.5243C8.35908 12.6596 7.37677 13.5327 6.19471 13.5327V13.7327C7.47733 13.7327 8.54233 12.7856 8.72811 11.5542L8.53035 11.5243ZM10.548 10.5011C10.025 11.0349 9.34994 11.3607 8.61848 11.4398L8.63998 11.6387C9.41757 11.5546 10.1355 11.2079 10.6909 10.6411L10.548 10.5011ZM10.6269 10.2979C10.6282 10.3738 10.5995 10.4471 10.5471 10.5021L10.6918 10.6401C10.7805 10.5471 10.829 10.423 10.8268 10.2945L10.6269 10.2979ZM10.5402 10.0965C10.5945 10.1496 10.6256 10.2219 10.6269 10.2979L10.8268 10.2945C10.8247 10.166 10.772 10.0435 10.6802 9.95359L10.5402 10.0965ZM10.3371 10.0139C10.413 10.0137 10.486 10.0433 10.5402 10.0965L10.6802 9.95359C10.5884 9.86366 10.4649 9.81349 10.3364 9.81394L10.3371 10.0139ZM10.1345 10.0979C10.1884 10.0444 10.2612 10.0142 10.3371 10.0139L10.3364 9.81394C10.2079 9.81439 10.0847 9.86542 9.99356 9.95599L10.1345 10.0979ZM8.26814 10.8817C8.9763 10.8817 9.63983 10.6028 10.1355 10.0969L9.99261 9.95695C9.53458 10.4245 8.92254 10.6817 8.26814 10.6817V10.8817ZM5.6541 8.26768C5.6541 9.70915 6.82667 10.8817 8.26814 10.8817V10.6817C6.93712 10.6817 5.8541 9.59869 5.8541 8.26768H5.6541ZM5.36533 7.97891C5.52482 7.97891 5.6541 8.10816 5.6541 8.26768H5.8541C5.8541 7.99768 5.63526 7.77891 5.36533 7.77891V7.97891ZM5.07656 8.26768C5.07656 8.10816 5.20585 7.97891 5.36533 7.97891V7.77891C5.09541 7.77891 4.87656 7.99768 4.87656 8.26768H5.07656ZM7.85318 11.4314C6.28878 11.2272 5.07656 9.88658 5.07656 8.26768H4.87656C4.87656 9.98855 6.16481 11.4127 7.82729 11.6297L7.85318 11.4314ZM9.3017 14.6985C9.35586 14.7526 9.38628 14.8261 9.38628 14.9027H9.58628C9.58628 14.773 9.53479 14.6487 9.44313 14.5571L9.3017 14.6985ZM9.09751 14.6139C9.1741 14.6139 9.24755 14.6443 9.3017 14.6985L9.44313 14.5571C9.35146 14.4654 9.22714 14.4139 9.09751 14.4139V14.6139ZM5.90594 17.8055C5.90594 16.0457 7.33776 14.6139 9.09751 14.6139V14.4139C7.2273 14.4139 5.70594 15.9353 5.70594 17.8055H5.90594ZM5.90648 17.8398C5.90619 17.8273 5.90594 17.8163 5.90594 17.8055H5.70594C5.70594 17.819 5.70625 17.8324 5.70653 17.8444L5.90648 17.8398ZM5.9069 17.8598L5.90648 17.84L5.70653 17.8442L5.70694 17.864L5.9069 17.8598ZM5.36515 17.9314C5.50839 17.9317 5.65145 17.9415 5.79336 17.9609L5.82048 17.7628C5.6697 17.7422 5.5177 17.7317 5.36551 17.7314L5.36515 17.9314ZM5.07656 18.2202C5.07656 18.0606 5.20585 17.9314 5.36533 17.9314V17.7314C5.09541 17.7314 4.87656 17.9502 4.87656 18.2202H5.07656ZM5.36533 18.5089C5.20585 18.5089 5.07656 18.3797 5.07656 18.2202H4.87656C4.87656 18.4902 5.09541 18.7089 5.36533 18.7089V18.5089ZM7.97937 21.123C7.97937 19.6815 6.80681 18.5089 5.36533 18.5089V18.7089C6.69635 18.7089 7.77937 19.7919 7.77937 21.123H7.97937ZM8.26814 21.4117C8.10866 21.4117 7.97937 21.2825 7.97937 21.123H7.77937C7.77937 21.393 7.99822 21.6117 8.26814 21.6117V21.4117ZM8.55691 21.123C8.55691 21.2825 8.42763 21.4117 8.26814 21.4117V21.6117C8.53806 21.6117 8.75691 21.393 8.75691 21.123H8.55691ZM6.55986 18.1642C7.72973 18.6383 8.55691 19.7858 8.55691 21.123H8.75691C8.75691 19.7013 7.87744 18.4824 6.63498 17.9789L6.55986 18.1642ZM6.48348 17.8055C6.4835 17.8978 6.48833 17.9901 6.49796 18.082L6.69687 18.0611C6.68797 17.9762 6.6835 17.8908 6.68348 17.8054L6.48348 17.8055ZM9.09751 15.1914C7.65604 15.1914 6.48348 16.364 6.48348 17.8055H6.68348C6.68348 16.4745 7.7665 15.3914 9.09751 15.3914V15.1914ZM9.3017 15.1069C9.24755 15.161 9.1741 15.1914 9.09751 15.1914V15.3914C9.22714 15.3914 9.35146 15.3399 9.44313 15.2483L9.3017 15.1069ZM9.38628 14.9027C9.38628 14.9792 9.35586 15.0527 9.3017 15.1069L9.44313 15.2483C9.53479 15.1566 9.58628 15.0323 9.58628 14.9027H9.38628ZM18.6345 12.3406C17.8773 12.3406 17.2423 11.8062 17.0867 11.0946L16.8913 11.1373C17.0665 11.9386 17.7811 12.5406 18.6345 12.5406V12.3406ZM19.1233 12.8294C19.1233 12.5594 18.9045 12.3406 18.6345 12.3406V12.5406C18.794 12.5406 18.9233 12.6698 18.9233 12.8294H19.1233ZM18.6345 13.3181C18.9045 13.3181 19.1233 13.0994 19.1233 12.8294H18.9233C18.9233 12.9889 18.794 13.1181 18.6345 13.1181V13.3181ZM16.1011 11.1396C16.2869 12.3711 17.3519 13.3181 18.6345 13.3181V13.1181C17.4525 13.1181 16.4702 12.245 16.2989 11.1098L16.1011 11.1396ZM14.1384 10.2265C14.6937 10.7934 15.4117 11.14 16.1893 11.2241L16.2108 11.0253C15.4793 10.9462 14.8042 10.6204 14.2812 10.0866L14.1384 10.2265ZM13.9987 9.87947C13.9974 10.0091 14.0476 10.1339 14.1384 10.2265L14.2812 10.0866C14.2276 10.0319 14.1979 9.9581 14.1987 9.88151L13.9987 9.87947ZM14.1454 9.53533C14.0528 9.62605 14.0001 9.74984 13.9987 9.87947L14.1987 9.88151C14.1995 9.80493 14.2307 9.73179 14.2854 9.67819L14.1454 9.53533ZM14.4925 9.39571C14.3629 9.39438 14.238 9.4446 14.1454 9.53533L14.2854 9.67819C14.3401 9.62459 14.4139 9.59491 14.4904 9.5957L14.4925 9.39571ZM14.8366 9.5424C14.7459 9.4498 14.6221 9.39703 14.4925 9.39571L14.4904 9.5957C14.567 9.59648 14.6402 9.62766 14.6938 9.68237L14.8366 9.5424ZM16.5611 10.2672C15.9067 10.2672 15.2947 10.0099 14.8366 9.5424L14.6938 9.68236C15.1894 10.1883 15.8529 10.4672 16.5611 10.4672V10.2672ZM18.9751 7.85312C18.9751 9.18414 17.8921 10.2672 16.5611 10.2672V10.4672C18.0026 10.4672 19.1751 9.2946 19.1751 7.85312H18.9751ZM19.4639 7.36436C19.194 7.36436 18.9751 7.58313 18.9751 7.85312H19.1751C19.1751 7.69361 19.3044 7.56436 19.4639 7.56436V7.36436ZM19.9527 7.85312C19.9527 7.58313 19.7338 7.36436 19.4639 7.36436V7.56436C19.6234 7.56436 19.7527 7.69361 19.7527 7.85312H19.9527ZM17.002 11.2151C18.6644 10.9982 19.9527 9.574 19.9527 7.85312H19.7527C19.7527 9.47203 18.5405 10.8127 16.9761 11.0168L17.002 11.2151ZM17.3905 16.9022C17.2358 16.9022 17.0841 16.9135 16.9355 16.9335L16.9623 17.1317C17.1028 17.1128 17.2456 17.1022 17.3905 17.1022V16.9022ZM17.8793 17.3909C17.8793 17.1209 17.6604 16.9022 17.3905 16.9022V17.1022C17.55 17.1022 17.6793 17.2314 17.6793 17.3909H17.8793ZM17.3905 17.8797C17.6604 17.8797 17.8793 17.6609 17.8793 17.3909H17.6793C17.6793 17.5504 17.55 17.6797 17.3905 17.6797V17.8797ZM14.9764 20.2937C14.9764 18.9627 16.0595 17.8797 17.3905 17.8797V17.6797C15.949 17.6797 14.7764 18.8523 14.7764 20.2937H14.9764ZM14.4877 20.7825C14.7576 20.7825 14.9764 20.5637 14.9764 20.2937H14.7764C14.7764 20.4532 14.6472 20.5825 14.4877 20.5825V20.7825ZM13.9989 20.2937C13.9989 20.5637 14.2178 20.7825 14.4877 20.7825V20.5825C14.3282 20.5825 14.1989 20.4532 14.1989 20.2937H13.9989ZM16.1208 17.1496C14.8784 17.6532 13.9989 18.8721 13.9989 20.2937H14.1989C14.1989 18.9566 15.0261 17.8091 16.196 17.335L16.1208 17.1496ZM16.0723 16.9762C16.0723 17.0616 16.0678 17.1469 16.0589 17.2319L16.2579 17.2527C16.2675 17.1609 16.2723 17.0686 16.2723 16.9763L16.0723 16.9762ZM13.6583 14.5622C14.9893 14.5622 16.0723 15.6452 16.0723 16.9762H16.2723C16.2723 15.5348 15.0998 14.3622 13.6583 14.3622V14.5622ZM13.1695 14.0734C13.1695 14.3434 13.3884 14.5622 13.6583 14.5622V14.3622C13.4988 14.3622 13.3695 14.2329 13.3695 14.0734H13.1695ZM13.6583 13.5847C13.3884 13.5847 13.1695 13.8034 13.1695 14.0734H13.3695C13.3695 13.9139 13.4988 13.7847 13.6583 13.7847V13.5847ZM17.0499 16.9762C17.0499 15.106 15.5285 13.5847 13.6583 13.5847V13.7847C15.4181 13.7847 16.8499 15.2165 16.8499 16.9762H17.0499ZM17.0493 17.0152C17.0496 17.0032 17.0499 16.9898 17.0499 16.9762H16.8499C16.8499 16.9871 16.8496 16.9981 16.8493 17.0105L17.0493 17.0152ZM17.0489 17.0343C17.049 17.0281 17.0491 17.0218 17.0493 17.0152L16.8493 17.0105C16.8492 17.0171 16.849 17.024 16.8489 17.031L17.0489 17.0343Z" fill="#50945D" mask="url(#path-1-outside-1_194_38)"/>
</g>
</g>
<defs>
<clipPath id="clip0_194_38">
<rect width="24" height="24" fill="white"/>
</clipPath>
</defs>
</svg>
