<svg width="24" height="24" viewBox="0 0 24 24" fill="none" xmlns="http://www.w3.org/2000/svg">
<g id="Primary Care" clip-path="url(#clip0_178_83)">
<g id="Union">
<mask id="path-1-outside-1_178_83" maskUnits="userSpaceOnUse" x="-0.160156" y="-0.175293" width="24" height="24" fill="black">
<rect fill="white" x="-0.160156" y="-0.175293" width="24" height="24"/>
<path fill-rule="evenodd" clip-rule="evenodd" d="M16.0888 1.11056C16.5439 1.29932 16.9574 1.57598 17.3055 1.92472C18.0075 2.62811 18.4017 3.58123 18.4018 4.57495C18.4019 5.56867 18.0078 6.52185 17.3059 7.22534L12.2659 12.2653C12.1956 12.3356 12.1002 12.3751 12.0008 12.3751C11.9013 12.3751 11.806 12.3356 11.7357 12.2653L6.69566 7.22534C5.99379 6.52196 5.59961 5.56888 5.59961 4.57522C5.59961 3.58155 5.99379 2.62847 6.69566 1.92509C7.04371 1.5763 7.45713 1.29957 7.91226 1.11077C8.36739 0.921957 8.85529 0.824771 9.34803 0.824771C9.84078 0.824771 10.3287 0.921957 10.7838 1.11077C11.2389 1.29957 11.6524 1.5763 12.0004 1.92509C12.3485 1.5763 12.7619 1.29958 13.2171 1.11077C13.6722 0.92195 14.1601 0.824742 14.6529 0.824707C15.1457 0.824672 15.6336 0.921811 16.0888 1.11056ZM7.22554 6.69509L12.0004 11.47L16.7753 6.69434C17.337 6.13185 17.6525 5.36941 17.6525 4.57447C17.6525 3.77952 17.337 3.01708 16.7753 2.45459C16.4969 2.17569 16.1662 1.95442 15.8022 1.80345C15.4382 1.65248 15.048 1.57477 14.6539 1.57477C14.2598 1.57477 13.8696 1.65248 13.5056 1.80345C13.1416 1.95442 12.8109 2.17569 12.5325 2.45459L12.2655 2.72159C12.1952 2.79189 12.0998 2.83139 12.0004 2.83139C11.901 2.83139 11.8056 2.79189 11.7353 2.72159L11.469 2.45534C11.1918 2.17527 10.8616 1.95321 10.4976 1.8021C10.1336 1.65099 9.74324 1.57386 9.34916 1.57522C8.75592 1.57505 8.17594 1.75077 7.68255 2.08016C7.18916 2.40956 6.80451 2.87785 6.57722 3.42582C6.34993 3.9738 6.29021 4.57686 6.4056 5.15877C6.521 5.74068 6.80633 6.27532 7.22554 6.69509ZM13.1248 4.875H14.2498C14.3493 4.875 14.4447 4.91451 14.515 4.98484C14.5853 5.05516 14.6248 5.15054 14.6248 5.25V6.75C14.6248 6.84946 14.5853 6.94484 14.515 7.01517C14.4447 7.08549 14.3493 7.125 14.2498 7.125H13.1248V8.25C13.1248 8.34946 13.0853 8.44484 13.015 8.51517C12.9447 8.58549 12.8493 8.625 12.7498 8.625H11.2498C11.1504 8.625 11.055 8.58549 10.9847 8.51517C10.9144 8.44484 10.8748 8.34946 10.8748 8.25V7.125H9.74984C9.65039 7.125 9.55501 7.08549 9.48468 7.01517C9.41435 6.94484 9.37484 6.84946 9.37484 6.75V5.25C9.37484 5.15054 9.41435 5.05516 9.48468 4.98484C9.55501 4.91451 9.65039 4.875 9.74984 4.875H10.8748V3.75C10.8748 3.65054 10.9144 3.55516 10.9847 3.48484C11.055 3.41451 11.1504 3.375 11.2498 3.375H12.7498C12.8493 3.375 12.9447 3.41451 13.015 3.48484C13.0853 3.55516 13.1248 3.65054 13.1248 3.75V4.875ZM12.7498 6.375H13.8748V5.625H12.7498C12.6504 5.625 12.555 5.58549 12.4847 5.51516C12.4144 5.44484 12.3748 5.34946 12.3748 5.25V4.125H11.6248V5.25C11.6248 5.34946 11.5853 5.44484 11.515 5.51516C11.4447 5.58549 11.3493 5.625 11.2498 5.625H10.1248V6.375H11.2498C11.3493 6.375 11.4447 6.41451 11.515 6.48483C11.5853 6.55516 11.6248 6.65054 11.6248 6.75V7.875H12.3748V6.75C12.3748 6.65054 12.4144 6.55516 12.4847 6.48483C12.555 6.41451 12.6504 6.375 12.7498 6.375ZM22.4098 6.68625C22.4099 6.75266 22.4062 6.81902 22.3986 6.885C22.6286 7.01597 22.82 7.20518 22.9536 7.4336C23.0872 7.66203 23.1584 7.92161 23.1598 8.18625C23.1597 8.318 23.1421 8.44916 23.1073 8.57625L21.4798 14.6625C21.3856 15.0187 21.1871 15.3386 20.9098 15.5812L18.3748 17.835C18.2574 17.9413 18.1634 18.0709 18.0988 18.2155C18.0343 18.3601 18.0005 18.5166 17.9998 18.675V19.5C18.0993 19.5 18.1947 19.5395 18.265 19.6098C18.3353 19.6802 18.3748 19.7755 18.3748 19.875V22.875C18.3748 22.9745 18.3353 23.0698 18.265 23.1402C18.1947 23.2105 18.0993 23.25 17.9998 23.25H12.7498C12.6504 23.25 12.555 23.2105 12.4847 23.1402C12.4144 23.0698 12.3748 22.9745 12.3748 22.875V19.875C12.3748 19.7755 12.4144 19.6802 12.4847 19.6098C12.555 19.5395 12.6504 19.5 12.7498 19.5V15.9675C12.7508 15.3792 12.9053 14.8013 13.1979 14.291C13.4906 13.7806 13.9113 13.3555 14.4186 13.0575L17.7336 11.115C17.7566 11.1022 17.7804 11.091 17.8048 11.0812L19.4548 6.33375C19.5527 5.95926 19.7892 5.63592 20.1164 5.42915C20.4436 5.22238 20.8371 5.14762 21.2173 5.22C21.5535 5.29182 21.855 5.47637 22.0719 5.74305C22.2888 6.00972 22.408 6.34251 22.4098 6.68625ZM20.5 6.08041C20.3346 6.19161 20.2171 6.36107 20.1711 6.555L18.6523 10.9275C18.8266 10.9467 18.9964 10.9949 19.1548 11.07L20.2011 7.84125C20.286 7.51717 20.4745 7.22969 20.7378 7.02256C21.0011 6.81542 21.3249 6.69997 21.6598 6.69375V6.68625C21.6592 6.51452 21.5996 6.34821 21.4911 6.21512C21.3826 6.08202 21.2317 5.9902 21.0636 5.955C20.8666 5.92443 20.6654 5.9692 20.5 6.08041ZM13.1248 22.5H17.6248V20.25H13.1248V22.5ZM20.7523 14.4713L22.3836 8.38125C22.4023 8.31797 22.4111 8.25221 22.4098 8.18625C22.4092 8.01452 22.3496 7.84821 22.2411 7.71512C22.1326 7.58202 21.9817 7.4902 21.8136 7.455C21.6166 7.42443 21.4154 7.4692 21.25 7.58041C21.0846 7.69161 20.9671 7.86107 20.9211 8.055L19.7623 11.6287L19.7848 11.6625C19.983 12.0066 20.0369 12.4151 19.9348 12.7987C19.8846 12.9897 19.7967 13.1687 19.6763 13.3252C19.5559 13.4817 19.4053 13.6126 19.2336 13.71L17.0848 14.9513C16.9991 14.9961 16.8994 15.0061 16.8065 14.9791C16.7136 14.9522 16.6348 14.8904 16.5864 14.8066C16.538 14.7229 16.5238 14.6237 16.5468 14.5298C16.5698 14.4358 16.6282 14.3544 16.7098 14.3025L18.8586 13.0613C18.9443 13.0125 19.0195 12.9473 19.08 12.8695C19.1405 12.7916 19.185 12.7026 19.2111 12.6075C19.2604 12.4149 19.2335 12.2108 19.1361 12.0375C19.0868 11.9519 19.021 11.8768 18.9426 11.8167C18.8642 11.7566 18.7747 11.7125 18.6792 11.6871C18.5838 11.6616 18.4842 11.6553 18.3863 11.6685C18.2883 11.6816 18.194 11.714 18.1086 11.7638L14.7973 13.7025C14.4036 13.9355 14.0771 14.2668 13.8497 14.6638C13.6222 15.0608 13.5017 15.51 13.4998 15.9675V19.5H17.2498V18.675C17.2506 18.4105 17.3067 18.149 17.4146 17.9075C17.5224 17.666 17.6796 17.4497 17.8761 17.2725L20.4148 15.0187C20.5785 14.8733 20.6959 14.6829 20.7523 14.4713ZM11.2498 15.9675V19.5C11.3493 19.5 11.4447 19.5395 11.515 19.6098C11.5853 19.6802 11.6248 19.7755 11.6248 19.875V22.875C11.6248 22.9745 11.5853 23.0698 11.515 23.1402C11.4447 23.2105 11.3493 23.25 11.2498 23.25H5.99984C5.90039 23.25 5.80501 23.2105 5.73468 23.1402C5.66435 23.0698 5.62484 22.9745 5.62484 22.875V19.875C5.62484 19.7755 5.66435 19.6802 5.73468 19.6098C5.80501 19.5395 5.90039 19.5 5.99984 19.5V18.675C5.9993 18.5162 5.96528 18.3594 5.90002 18.2146C5.83476 18.0699 5.73972 17.9405 5.62109 17.835L3.08984 15.5812C2.81166 15.3378 2.61306 15.0164 2.51984 14.6588L0.888594 8.57625C0.856937 8.44864 0.840572 8.31772 0.839844 8.18625C0.841315 7.92161 0.912444 7.66203 1.04608 7.4336C1.17971 7.20518 1.37113 7.01597 1.60109 6.885C1.5935 6.81902 1.58975 6.75266 1.58984 6.68625C1.59166 6.34251 1.7109 6.00972 1.92779 5.74305C2.14468 5.47637 2.44619 5.29182 2.78234 5.22C3.16753 5.14882 3.56537 5.22709 3.89489 5.43888C4.22441 5.65066 4.46085 5.98005 4.55609 6.36L6.19484 11.0812C6.20609 11.0869 6.21828 11.0916 6.23047 11.0962C6.24266 11.1009 6.25484 11.1056 6.26609 11.1112L9.58109 13.0575C10.0884 13.3555 10.5091 13.7806 10.8018 14.291C11.0944 14.8013 11.2489 15.3792 11.2498 15.9675ZM2.50712 6.21612C2.39933 6.34914 2.34031 6.51504 2.33984 6.68625V6.69375C2.67776 6.70248 3.00364 6.82102 3.26819 7.03144C3.53273 7.24186 3.72156 7.53271 3.80609 7.86L4.84484 11.07C5.00325 10.9949 5.17308 10.9467 5.34734 10.9275L3.83984 6.58125C3.7955 6.38162 3.67733 6.20614 3.50902 6.08999C3.34071 5.97385 3.13472 5.92563 2.93234 5.955C2.76495 5.99095 2.6149 6.0831 2.50712 6.21612ZM3.58484 15.0187L6.11984 17.2725C6.31745 17.4489 6.47568 17.665 6.58423 17.9066C6.69277 18.1483 6.74921 18.4101 6.74984 18.675V19.5H10.4998V15.9675C10.498 15.51 10.3775 15.0608 10.15 14.6638C9.92261 14.2668 9.59608 13.9355 9.20234 13.7025L5.88734 11.76C5.8019 11.711 5.70765 11.6793 5.60996 11.6667C5.51227 11.6542 5.41306 11.6609 5.31799 11.6867C5.22293 11.7125 5.13387 11.7567 5.0559 11.8169C4.97794 11.8771 4.91259 11.9521 4.86359 12.0375C4.76619 12.2108 4.73933 12.4149 4.78859 12.6075C4.81464 12.7026 4.85918 12.7916 4.91967 12.8695C4.98015 12.9473 5.0554 13.0125 5.14109 13.0613L7.28984 14.3025C7.37147 14.3544 7.42989 14.4358 7.4529 14.5298C7.47591 14.6237 7.46173 14.7229 7.41333 14.8066C7.36493 14.8904 7.28604 14.9522 7.19315 14.9791C7.10026 15.0061 7.00055 14.9961 6.91484 14.9513L4.76609 13.71C4.59434 13.6126 4.44382 13.4817 4.32339 13.3252C4.20296 13.1687 4.11505 12.9897 4.06484 12.7987C3.96276 12.4151 4.01669 12.0066 4.21484 11.6625L4.23734 11.6287L3.08609 8.07375C3.04153 7.8755 2.92354 7.70148 2.75587 7.58668C2.58821 7.47189 2.38329 7.42484 2.18234 7.455C2.01495 7.49095 1.8649 7.5831 1.75712 7.71612C1.64933 7.84914 1.59031 8.01504 1.58984 8.18625C1.58926 8.25193 1.59682 8.31743 1.61234 8.38125L3.24734 14.4675C3.30277 14.6806 3.42024 14.8725 3.58484 15.0187ZM6.37484 22.5H10.8748V20.25H6.37484V22.5Z"/>
</mask>
<path fill-rule="evenodd" clip-rule="evenodd" d="M16.0888 1.11056C16.5439 1.29932 16.9574 1.57598 17.3055 1.92472C18.0075 2.62811 18.4017 3.58123 18.4018 4.57495C18.4019 5.56867 18.0078 6.52185 17.3059 7.22534L12.2659 12.2653C12.1956 12.3356 12.1002 12.3751 12.0008 12.3751C11.9013 12.3751 11.806 12.3356 11.7357 12.2653L6.69566 7.22534C5.99379 6.52196 5.59961 5.56888 5.59961 4.57522C5.59961 3.58155 5.99379 2.62847 6.69566 1.92509C7.04371 1.5763 7.45713 1.29957 7.91226 1.11077C8.36739 0.921957 8.85529 0.824771 9.34803 0.824771C9.84078 0.824771 10.3287 0.921957 10.7838 1.11077C11.2389 1.29957 11.6524 1.5763 12.0004 1.92509C12.3485 1.5763 12.7619 1.29958 13.2171 1.11077C13.6722 0.92195 14.1601 0.824742 14.6529 0.824707C15.1457 0.824672 15.6336 0.921811 16.0888 1.11056ZM7.22554 6.69509L12.0004 11.47L16.7753 6.69434C17.337 6.13185 17.6525 5.36941 17.6525 4.57447C17.6525 3.77952 17.337 3.01708 16.7753 2.45459C16.4969 2.17569 16.1662 1.95442 15.8022 1.80345C15.4382 1.65248 15.048 1.57477 14.6539 1.57477C14.2598 1.57477 13.8696 1.65248 13.5056 1.80345C13.1416 1.95442 12.8109 2.17569 12.5325 2.45459L12.2655 2.72159C12.1952 2.79189 12.0998 2.83139 12.0004 2.83139C11.901 2.83139 11.8056 2.79189 11.7353 2.72159L11.469 2.45534C11.1918 2.17527 10.8616 1.95321 10.4976 1.8021C10.1336 1.65099 9.74324 1.57386 9.34916 1.57522C8.75592 1.57505 8.17594 1.75077 7.68255 2.08016C7.18916 2.40956 6.80451 2.87785 6.57722 3.42582C6.34993 3.9738 6.29021 4.57686 6.4056 5.15877C6.521 5.74068 6.80633 6.27532 7.22554 6.69509ZM13.1248 4.875H14.2498C14.3493 4.875 14.4447 4.91451 14.515 4.98484C14.5853 5.05516 14.6248 5.15054 14.6248 5.25V6.75C14.6248 6.84946 14.5853 6.94484 14.515 7.01517C14.4447 7.08549 14.3493 7.125 14.2498 7.125H13.1248V8.25C13.1248 8.34946 13.0853 8.44484 13.015 8.51517C12.9447 8.58549 12.8493 8.625 12.7498 8.625H11.2498C11.1504 8.625 11.055 8.58549 10.9847 8.51517C10.9144 8.44484 10.8748 8.34946 10.8748 8.25V7.125H9.74984C9.65039 7.125 9.55501 7.08549 9.48468 7.01517C9.41435 6.94484 9.37484 6.84946 9.37484 6.75V5.25C9.37484 5.15054 9.41435 5.05516 9.48468 4.98484C9.55501 4.91451 9.65039 4.875 9.74984 4.875H10.8748V3.75C10.8748 3.65054 10.9144 3.55516 10.9847 3.48484C11.055 3.41451 11.1504 3.375 11.2498 3.375H12.7498C12.8493 3.375 12.9447 3.41451 13.015 3.48484C13.0853 3.55516 13.1248 3.65054 13.1248 3.75V4.875ZM12.7498 6.375H13.8748V5.625H12.7498C12.6504 5.625 12.555 5.58549 12.4847 5.51516C12.4144 5.44484 12.3748 5.34946 12.3748 5.25V4.125H11.6248V5.25C11.6248 5.34946 11.5853 5.44484 11.515 5.51516C11.4447 5.58549 11.3493 5.625 11.2498 5.625H10.1248V6.375H11.2498C11.3493 6.375 11.4447 6.41451 11.515 6.48483C11.5853 6.55516 11.6248 6.65054 11.6248 6.75V7.875H12.3748V6.75C12.3748 6.65054 12.4144 6.55516 12.4847 6.48483C12.555 6.41451 12.6504 6.375 12.7498 6.375ZM22.4098 6.68625C22.4099 6.75266 22.4062 6.81902 22.3986 6.885C22.6286 7.01597 22.82 7.20518 22.9536 7.4336C23.0872 7.66203 23.1584 7.92161 23.1598 8.18625C23.1597 8.318 23.1421 8.44916 23.1073 8.57625L21.4798 14.6625C21.3856 15.0187 21.1871 15.3386 20.9098 15.5812L18.3748 17.835C18.2574 17.9413 18.1634 18.0709 18.0988 18.2155C18.0343 18.3601 18.0005 18.5166 17.9998 18.675V19.5C18.0993 19.5 18.1947 19.5395 18.265 19.6098C18.3353 19.6802 18.3748 19.7755 18.3748 19.875V22.875C18.3748 22.9745 18.3353 23.0698 18.265 23.1402C18.1947 23.2105 18.0993 23.25 17.9998 23.25H12.7498C12.6504 23.25 12.555 23.2105 12.4847 23.1402C12.4144 23.0698 12.3748 22.9745 12.3748 22.875V19.875C12.3748 19.7755 12.4144 19.6802 12.4847 19.6098C12.555 19.5395 12.6504 19.5 12.7498 19.5V15.9675C12.7508 15.3792 12.9053 14.8013 13.1979 14.291C13.4906 13.7806 13.9113 13.3555 14.4186 13.0575L17.7336 11.115C17.7566 11.1022 17.7804 11.091 17.8048 11.0812L19.4548 6.33375C19.5527 5.95926 19.7892 5.63592 20.1164 5.42915C20.4436 5.22238 20.8371 5.14762 21.2173 5.22C21.5535 5.29182 21.855 5.47637 22.0719 5.74305C22.2888 6.00972 22.408 6.34251 22.4098 6.68625ZM20.5 6.08041C20.3346 6.19161 20.2171 6.36107 20.1711 6.555L18.6523 10.9275C18.8266 10.9467 18.9964 10.9949 19.1548 11.07L20.2011 7.84125C20.286 7.51717 20.4745 7.22969 20.7378 7.02256C21.0011 6.81542 21.3249 6.69997 21.6598 6.69375V6.68625C21.6592 6.51452 21.5996 6.34821 21.4911 6.21512C21.3826 6.08202 21.2317 5.9902 21.0636 5.955C20.8666 5.92443 20.6654 5.9692 20.5 6.08041ZM13.1248 22.5H17.6248V20.25H13.1248V22.5ZM20.7523 14.4713L22.3836 8.38125C22.4023 8.31797 22.4111 8.25221 22.4098 8.18625C22.4092 8.01452 22.3496 7.84821 22.2411 7.71512C22.1326 7.58202 21.9817 7.4902 21.8136 7.455C21.6166 7.42443 21.4154 7.4692 21.25 7.58041C21.0846 7.69161 20.9671 7.86107 20.9211 8.055L19.7623 11.6287L19.7848 11.6625C19.983 12.0066 20.0369 12.4151 19.9348 12.7987C19.8846 12.9897 19.7967 13.1687 19.6763 13.3252C19.5559 13.4817 19.4053 13.6126 19.2336 13.71L17.0848 14.9513C16.9991 14.9961 16.8994 15.0061 16.8065 14.9791C16.7136 14.9522 16.6348 14.8904 16.5864 14.8066C16.538 14.7229 16.5238 14.6237 16.5468 14.5298C16.5698 14.4358 16.6282 14.3544 16.7098 14.3025L18.8586 13.0613C18.9443 13.0125 19.0195 12.9473 19.08 12.8695C19.1405 12.7916 19.185 12.7026 19.2111 12.6075C19.2604 12.4149 19.2335 12.2108 19.1361 12.0375C19.0868 11.9519 19.021 11.8768 18.9426 11.8167C18.8642 11.7566 18.7747 11.7125 18.6792 11.6871C18.5838 11.6616 18.4842 11.6553 18.3863 11.6685C18.2883 11.6816 18.194 11.714 18.1086 11.7638L14.7973 13.7025C14.4036 13.9355 14.0771 14.2668 13.8497 14.6638C13.6222 15.0608 13.5017 15.51 13.4998 15.9675V19.5H17.2498V18.675C17.2506 18.4105 17.3067 18.149 17.4146 17.9075C17.5224 17.666 17.6796 17.4497 17.8761 17.2725L20.4148 15.0187C20.5785 14.8733 20.6959 14.6829 20.7523 14.4713ZM11.2498 15.9675V19.5C11.3493 19.5 11.4447 19.5395 11.515 19.6098C11.5853 19.6802 11.6248 19.7755 11.6248 19.875V22.875C11.6248 22.9745 11.5853 23.0698 11.515 23.1402C11.4447 23.2105 11.3493 23.25 11.2498 23.25H5.99984C5.90039 23.25 5.80501 23.2105 5.73468 23.1402C5.66435 23.0698 5.62484 22.9745 5.62484 22.875V19.875C5.62484 19.7755 5.66435 19.6802 5.73468 19.6098C5.80501 19.5395 5.90039 19.5 5.99984 19.5V18.675C5.9993 18.5162 5.96528 18.3594 5.90002 18.2146C5.83476 18.0699 5.73972 17.9405 5.62109 17.835L3.08984 15.5812C2.81166 15.3378 2.61306 15.0164 2.51984 14.6588L0.888594 8.57625C0.856937 8.44864 0.840572 8.31772 0.839844 8.18625C0.841315 7.92161 0.912444 7.66203 1.04608 7.4336C1.17971 7.20518 1.37113 7.01597 1.60109 6.885C1.5935 6.81902 1.58975 6.75266 1.58984 6.68625C1.59166 6.34251 1.7109 6.00972 1.92779 5.74305C2.14468 5.47637 2.44619 5.29182 2.78234 5.22C3.16753 5.14882 3.56537 5.22709 3.89489 5.43888C4.22441 5.65066 4.46085 5.98005 4.55609 6.36L6.19484 11.0812C6.20609 11.0869 6.21828 11.0916 6.23047 11.0962C6.24266 11.1009 6.25484 11.1056 6.26609 11.1112L9.58109 13.0575C10.0884 13.3555 10.5091 13.7806 10.8018 14.291C11.0944 14.8013 11.2489 15.3792 11.2498 15.9675ZM2.50712 6.21612C2.39933 6.34914 2.34031 6.51504 2.33984 6.68625V6.69375C2.67776 6.70248 3.00364 6.82102 3.26819 7.03144C3.53273 7.24186 3.72156 7.53271 3.80609 7.86L4.84484 11.07C5.00325 10.9949 5.17308 10.9467 5.34734 10.9275L3.83984 6.58125C3.7955 6.38162 3.67733 6.20614 3.50902 6.08999C3.34071 5.97385 3.13472 5.92563 2.93234 5.955C2.76495 5.99095 2.6149 6.0831 2.50712 6.21612ZM3.58484 15.0187L6.11984 17.2725C6.31745 17.4489 6.47568 17.665 6.58423 17.9066C6.69277 18.1483 6.74921 18.4101 6.74984 18.675V19.5H10.4998V15.9675C10.498 15.51 10.3775 15.0608 10.15 14.6638C9.92261 14.2668 9.59608 13.9355 9.20234 13.7025L5.88734 11.76C5.8019 11.711 5.70765 11.6793 5.60996 11.6667C5.51227 11.6542 5.41306 11.6609 5.31799 11.6867C5.22293 11.7125 5.13387 11.7567 5.0559 11.8169C4.97794 11.8771 4.91259 11.9521 4.86359 12.0375C4.76619 12.2108 4.73933 12.4149 4.78859 12.6075C4.81464 12.7026 4.85918 12.7916 4.91967 12.8695C4.98015 12.9473 5.0554 13.0125 5.14109 13.0613L7.28984 14.3025C7.37147 14.3544 7.42989 14.4358 7.4529 14.5298C7.47591 14.6237 7.46173 14.7229 7.41333 14.8066C7.36493 14.8904 7.28604 14.9522 7.19315 14.9791C7.10026 15.0061 7.00055 14.9961 6.91484 14.9513L4.76609 13.71C4.59434 13.6126 4.44382 13.4817 4.32339 13.3252C4.20296 13.1687 4.11505 12.9897 4.06484 12.7987C3.96276 12.4151 4.01669 12.0066 4.21484 11.6625L4.23734 11.6287L3.08609 8.07375C3.04153 7.8755 2.92354 7.70148 2.75587 7.58668C2.58821 7.47189 2.38329 7.42484 2.18234 7.455C2.01495 7.49095 1.8649 7.5831 1.75712 7.71612C1.64933 7.84914 1.59031 8.01504 1.58984 8.18625C1.58926 8.25193 1.59682 8.31743 1.61234 8.38125L3.24734 14.4675C3.30277 14.6806 3.42024 14.8725 3.58484 15.0187ZM6.37484 22.5H10.8748V20.25H6.37484V22.5Z" fill="#50945D"/>
<path d="M17.3055 1.92472L17.3763 1.85408L17.3763 1.85407L17.3055 1.92472ZM16.0888 1.11056L16.0504 1.20294V1.20294L16.0888 1.11056ZM18.4018 4.57495L18.3018 4.57496L18.4018 4.57495ZM17.3059 7.22534L17.3766 7.29605L17.3767 7.29597L17.3059 7.22534ZM12.2659 12.2653L12.3366 12.3361L12.3366 12.3361L12.2659 12.2653ZM11.7357 12.2653L11.6649 12.3361L11.665 12.3361L11.7357 12.2653ZM6.69566 7.22534L6.62487 7.29598L6.62495 7.29605L6.69566 7.22534ZM6.69566 1.92509L6.76645 1.99573L6.69566 1.92509ZM7.91226 1.11077L7.87394 1.0184L7.91226 1.11077ZM10.7838 1.11077L10.7455 1.20313V1.20313L10.7838 1.11077ZM12.0004 1.92509L11.9296 1.99573L12.0004 2.06666L12.0712 1.99573L12.0004 1.92509ZM13.2171 1.11077L13.1788 1.0184L13.2171 1.11077ZM14.6529 0.824707L14.6529 0.724707L14.6529 0.824707ZM12.0004 11.47L11.9297 11.5407L12.0004 11.6114L12.0711 11.5407L12.0004 11.47ZM7.22554 6.69509L7.15478 6.76575L7.15482 6.7658L7.22554 6.69509ZM16.7753 6.69434L16.846 6.76505L16.846 6.765L16.7753 6.69434ZM16.7753 2.45459L16.7045 2.52524L16.7045 2.52525L16.7753 2.45459ZM15.8022 1.80345L15.7639 1.89582L15.8022 1.80345ZM13.5056 1.80345L13.4673 1.71108V1.71108L13.5056 1.80345ZM12.5325 2.45459L12.6032 2.5253L12.6033 2.52524L12.5325 2.45459ZM12.2655 2.72159L12.3362 2.79231L12.3362 2.7923L12.2655 2.72159ZM11.7353 2.72159L11.6646 2.7923L11.6646 2.79231L11.7353 2.72159ZM11.469 2.45534L11.398 2.52569L11.3983 2.52605L11.469 2.45534ZM9.34916 1.57522L9.34913 1.67522L9.3495 1.67521L9.34916 1.57522ZM7.68255 2.08016L7.62703 1.997L7.68255 2.08016ZM6.4056 5.15877L6.50369 5.13932L6.4056 5.15877ZM13.1248 4.875H13.0248V4.975H13.1248V4.875ZM14.515 4.98484L14.5857 4.91412L14.5857 4.91412L14.515 4.98484ZM14.515 7.01517L14.5857 7.08588L14.5857 7.08588L14.515 7.01517ZM13.1248 7.125V7.025H13.0248V7.125H13.1248ZM13.015 8.51517L13.0857 8.58588L13.0857 8.58588L13.015 8.51517ZM10.8748 7.125H10.9748V7.025H10.8748V7.125ZM9.48468 4.98484L9.55539 5.05555L9.48468 4.98484ZM10.8748 4.875V4.975H10.9748V4.875H10.8748ZM10.9847 3.48484L11.0554 3.55555V3.55555L10.9847 3.48484ZM13.015 3.48484L13.0857 3.41412L13.0857 3.41412L13.015 3.48484ZM13.8748 6.375V6.475H13.9748V6.375H13.8748ZM13.8748 5.625H13.9748V5.525H13.8748V5.625ZM12.4847 5.51516L12.414 5.58588L12.414 5.58588L12.4847 5.51516ZM12.3748 4.125H12.4748V4.025H12.3748V4.125ZM11.6248 4.125V4.025H11.5248V4.125H11.6248ZM11.515 5.51516L11.4443 5.44445L11.515 5.51516ZM10.1248 5.625V5.525H10.0248V5.625H10.1248ZM10.1248 6.375H10.0248V6.475H10.1248V6.375ZM11.6248 7.875H11.5248V7.975H11.6248V7.875ZM12.3748 7.875V7.975H12.4748V7.875H12.3748ZM12.4847 6.48483L12.414 6.41412L12.414 6.41412L12.4847 6.48483ZM22.3986 6.885L22.2992 6.87357L22.2917 6.9392L22.3491 6.9719L22.3986 6.885ZM22.4098 6.68625L22.5098 6.6861L22.5098 6.68572L22.4098 6.68625ZM22.9536 7.4336L23.0399 7.38311V7.38311L22.9536 7.4336ZM23.1598 8.18625L23.2598 8.18633L23.2598 8.18569L23.1598 8.18625ZM23.1073 8.57625L23.0109 8.54988L23.0107 8.55042L23.1073 8.57625ZM21.4798 14.6625L21.3832 14.6367L21.3832 14.6369L21.4798 14.6625ZM20.9098 15.5812L20.844 15.506L20.8434 15.5065L20.9098 15.5812ZM18.3748 17.835L18.3084 17.7603L18.3078 17.7608L18.3748 17.835ZM18.0988 18.2155L18.1901 18.2562V18.2562L18.0988 18.2155ZM17.9998 18.675L17.8998 18.6746V18.675H17.9998ZM17.9998 19.5H17.8998V19.6H17.9998V19.5ZM18.265 19.6098L18.1943 19.6805H18.1943L18.265 19.6098ZM18.265 23.1402L18.1943 23.0695H18.1943L18.265 23.1402ZM12.4847 23.1402L12.414 23.2109H12.414L12.4847 23.1402ZM12.4847 19.6098L12.414 19.5391H12.414L12.4847 19.6098ZM12.7498 19.5V19.6H12.8498V19.5H12.7498ZM12.7498 15.9675L12.6498 15.9673V15.9675H12.7498ZM13.1979 14.291L13.2847 14.3407L13.1979 14.291ZM14.4186 13.0575L14.368 12.9712L14.3679 12.9713L14.4186 13.0575ZM17.7336 11.115L17.685 11.0275L17.683 11.0287L17.7336 11.115ZM17.8048 11.0812L17.8417 11.1742L17.8843 11.1573L17.8993 11.1141L17.8048 11.0812ZM19.4548 6.33375L19.5496 6.36668L19.5516 6.35903L19.4548 6.33375ZM20.1164 5.42915L20.1698 5.51369L20.1164 5.42915ZM21.2173 5.22L21.2382 5.12218L21.236 5.12176L21.2173 5.22ZM20.1711 6.555L20.266 6.58798L20.2684 6.57809L20.1711 6.555ZM20.5 6.08041L20.5558 6.1634L20.5 6.08041ZM18.6523 10.9275L18.5579 10.8947L18.5167 11.0132L18.6414 11.0269L18.6523 10.9275ZM19.1548 11.07L19.112 11.1604L19.2149 11.2092L19.25 11.1008L19.1548 11.07ZM20.2011 7.84125L20.2964 7.87213L20.2978 7.8666L20.2011 7.84125ZM20.7378 7.02256L20.7996 7.10116V7.10116L20.7378 7.02256ZM21.6598 6.69375L21.6617 6.79373L21.7598 6.79191V6.69375H21.6598ZM21.6598 6.68625H21.7598L21.7598 6.68587L21.6598 6.68625ZM21.4911 6.21512L21.4136 6.27831V6.27831L21.4911 6.21512ZM21.0636 5.955L21.0841 5.85699L21.0789 5.85618L21.0636 5.955ZM17.6248 22.5V22.6H17.7248V22.5H17.6248ZM13.1248 22.5H13.0248V22.6H13.1248V22.5ZM17.6248 20.25H17.7248V20.15H17.6248V20.25ZM13.1248 20.25V20.15H13.0248V20.25H13.1248ZM22.3836 8.38125L22.2876 8.35296L22.287 8.35538L22.3836 8.38125ZM20.7523 14.4713L20.6557 14.4454L20.6557 14.4455L20.7523 14.4713ZM22.4098 8.18625L22.3098 8.18663L22.3099 8.18816L22.4098 8.18625ZM22.2411 7.71512L22.1636 7.77831V7.77831L22.2411 7.71512ZM21.8136 7.455L21.8341 7.35699L21.8289 7.35618L21.8136 7.455ZM21.25 7.58041L21.3058 7.6634L21.25 7.58041ZM20.9211 8.055L21.0165 8.08594L21.0184 8.07809L20.9211 8.055ZM19.7623 11.6287L19.6672 11.5979L19.6523 11.6439L19.6791 11.6842L19.7623 11.6287ZM19.7848 11.6625L19.8717 11.6125L19.868 11.607L19.7848 11.6625ZM19.9348 12.7987L19.8382 12.773L19.8381 12.7733L19.9348 12.7987ZM19.2336 13.71L19.1842 13.623L19.1836 13.6234L19.2336 13.71ZM17.0848 14.9513L17.1312 15.0399L17.1349 15.0378L17.0848 14.9513ZM16.8065 14.9791L16.8344 14.8831H16.8344L16.8065 14.9791ZM16.5864 14.8066L16.6729 14.7566H16.6729L16.5864 14.8066ZM16.5468 14.5298L16.4497 14.506V14.506L16.5468 14.5298ZM16.7098 14.3025L16.6598 14.2158L16.6562 14.2181L16.7098 14.3025ZM18.8586 13.0613L18.8091 12.9743L18.8086 12.9747L18.8586 13.0613ZM19.2111 12.6075L19.3076 12.6339L19.308 12.6323L19.2111 12.6075ZM19.1361 12.0375L19.2233 11.9885L19.2228 11.9876L19.1361 12.0375ZM18.9426 11.8167L19.0035 11.7373L18.9426 11.8167ZM18.3863 11.6685L18.3729 11.5694H18.3729L18.3863 11.6685ZM18.1086 11.7638L18.0583 11.6773L18.0581 11.6775L18.1086 11.7638ZM14.7973 13.7025L14.7468 13.6162L14.7464 13.6164L14.7973 13.7025ZM13.4998 15.9675L13.3998 15.9671V15.9675H13.4998ZM13.4998 19.5H13.3998V19.6H13.4998V19.5ZM17.2498 19.5V19.6H17.3498V19.5H17.2498ZM17.2498 18.675L17.1498 18.6747V18.675H17.2498ZM17.4146 17.9075L17.3233 17.8667V17.8667L17.4146 17.9075ZM17.8761 17.2725L17.8097 17.1977L17.8091 17.1982L17.8761 17.2725ZM20.4148 15.0187L20.4812 15.0935L20.4813 15.0935L20.4148 15.0187ZM11.2498 19.5H11.1498V19.6H11.2498V19.5ZM11.2498 15.9675H11.3498L11.3498 15.9673L11.2498 15.9675ZM5.99984 19.5V19.6H6.09984V19.5H5.99984ZM5.99984 18.675H6.09984L6.09984 18.6747L5.99984 18.675ZM5.90002 18.2146L5.99118 18.1735V18.1735L5.90002 18.2146ZM5.62109 17.835L5.5546 17.9097L5.55463 17.9097L5.62109 17.835ZM3.08984 15.5812L3.15634 15.5066L3.15569 15.506L3.08984 15.5812ZM2.51984 14.6588L2.61661 14.6335L2.61643 14.6328L2.51984 14.6588ZM0.888594 8.57625L0.791519 8.60033L0.792007 8.60215L0.888594 8.57625ZM0.839844 8.18625L0.739839 8.18569L0.739845 8.1868L0.839844 8.18625ZM1.04608 7.4336L1.13239 7.4841H1.13239L1.04608 7.4336ZM1.60109 6.885L1.65058 6.9719L1.70799 6.9392L1.70044 6.87357L1.60109 6.885ZM1.58984 6.68625L1.48984 6.68572L1.48984 6.6861L1.58984 6.68625ZM2.78234 5.22L2.76417 5.12163L2.76145 5.12221L2.78234 5.22ZM3.89489 5.43888L3.94895 5.35475L3.89489 5.43888ZM4.55609 6.36L4.45871 6.38441L4.46162 6.39279L4.55609 6.36ZM6.19484 11.0812L6.10037 11.114L6.11372 11.1525L6.15012 11.1707L6.19484 11.0812ZM6.23047 11.0962L6.19457 11.1896L6.19457 11.1896L6.23047 11.0962ZM6.26609 11.1112L6.31684 11.0248L6.31081 11.0218L6.26609 11.1112ZM9.58109 13.0575L9.63174 12.9713L9.63172 12.9713L9.58109 13.0575ZM10.8018 14.291L10.715 14.3407L10.8018 14.291ZM2.33984 6.68625L2.23984 6.68598V6.68625H2.33984ZM2.33984 6.69375H2.23984V6.7912L2.33726 6.79372L2.33984 6.69375ZM3.26819 7.03144L3.20594 7.1097H3.20594L3.26819 7.03144ZM3.80609 7.86L3.7091 7.88505L3.71095 7.89079L3.80609 7.86ZM4.84484 11.07L4.7497 11.1008L4.78478 11.2092L4.8877 11.1604L4.84484 11.07ZM5.34734 10.9275L5.3583 11.0269L5.4829 11.0132L5.44182 10.8947L5.34734 10.9275ZM3.83984 6.58125L3.74157 6.60308L3.74537 6.61402L3.83984 6.58125ZM3.50902 6.08999L3.56582 6.00769H3.56582L3.50902 6.08999ZM2.93234 5.955L2.91795 5.85581L2.91134 5.85723L2.93234 5.955ZM6.11984 17.2725L6.18644 17.1979L6.18629 17.1978L6.11984 17.2725ZM3.58484 15.0187L3.65129 14.944L3.65127 14.944L3.58484 15.0187ZM6.58423 17.9066L6.67545 17.8657L6.58423 17.9066ZM6.74984 18.675H6.84984L6.84984 18.6748L6.74984 18.675ZM6.74984 19.5H6.64984V19.6H6.74984V19.5ZM10.4998 19.5V19.6H10.5998V19.5H10.4998ZM10.4998 15.9675H10.5998L10.5998 15.9671L10.4998 15.9675ZM10.15 14.6638L10.2368 14.614L10.15 14.6638ZM9.20234 13.7025L9.25328 13.6164L9.2529 13.6162L9.20234 13.7025ZM5.88734 11.76L5.9379 11.6737L5.9371 11.6733L5.88734 11.76ZM5.60996 11.6667L5.59719 11.7659L5.60996 11.6667ZM5.31799 11.6867L5.34416 11.7832H5.34416L5.31799 11.6867ZM5.0559 11.8169L5.11701 11.8961L5.11701 11.8961L5.0559 11.8169ZM4.86359 12.0375L4.77684 11.9878L4.77642 11.9885L4.86359 12.0375ZM4.78859 12.6075L4.6917 12.6323L4.69215 12.6339L4.78859 12.6075ZM4.91967 12.8695L4.99864 12.8081H4.99864L4.91967 12.8695ZM5.14109 13.0613L5.19112 12.9747L5.19054 12.9743L5.14109 13.0613ZM7.28984 14.3025L7.34354 14.218L7.33986 14.2159L7.28984 14.3025ZM7.4529 14.5298L7.35577 14.5535V14.5535L7.4529 14.5298ZM7.19315 14.9791L7.16529 14.8831H7.16529L7.19315 14.9791ZM6.91484 14.9513L6.86478 15.0379L6.86849 15.0399L6.91484 14.9513ZM4.76609 13.71L4.81612 13.6234L4.81544 13.623L4.76609 13.71ZM4.32339 13.3252L4.40264 13.2642L4.32339 13.3252ZM4.06484 12.7987L4.16156 12.7733L4.16148 12.773L4.06484 12.7987ZM4.21484 11.6625L4.13146 11.6069L4.12819 11.6126L4.21484 11.6625ZM4.23734 11.6287L4.32055 11.6842L4.34738 11.644L4.33248 11.5979L4.23734 11.6287ZM3.08609 8.07375L2.98811 8.09578L2.99096 8.10456L3.08609 8.07375ZM2.75587 7.58668L2.69938 7.6692H2.69938L2.75587 7.58668ZM2.18234 7.455L2.16747 7.35591L2.16134 7.35723L2.18234 7.455ZM1.58984 8.18625L1.68984 8.18713L1.68984 8.18652L1.58984 8.18625ZM1.61234 8.38125L1.51515 8.40489L1.51577 8.40719L1.61234 8.38125ZM3.24734 14.4675L3.34413 14.4423L3.34392 14.4416L3.24734 14.4675ZM10.8748 22.5V22.6H10.9748V22.5H10.8748ZM6.37484 22.5H6.27484V22.6H6.37484V22.5ZM10.8748 20.25H10.9748V20.15H10.8748V20.25ZM6.37484 20.25V20.15H6.27484V20.25H6.37484ZM17.3763 1.85407C17.0189 1.49602 16.5944 1.21198 16.1271 1.01819L16.0504 1.20294C16.4935 1.38665 16.8959 1.65593 17.2348 1.99536L17.3763 1.85407ZM18.5018 4.57494C18.5017 3.55474 18.097 2.57622 17.3763 1.85408L17.2348 1.99535C17.918 2.68 18.3017 3.60772 18.3018 4.57496L18.5018 4.57494ZM17.3767 7.29597C18.0973 6.57373 18.5019 5.59515 18.5018 4.57494L18.3018 4.57496C18.3019 5.5422 17.9183 6.46997 17.2351 7.15471L17.3767 7.29597ZM12.3366 12.3361L17.3766 7.29605L17.2352 7.15463L12.1952 12.1946L12.3366 12.3361ZM12.0008 12.4751C12.1267 12.4751 12.2475 12.4251 12.3366 12.3361L12.1952 12.1946C12.1436 12.2462 12.0737 12.2751 12.0008 12.2751V12.4751ZM11.665 12.3361C11.754 12.4251 11.8748 12.4751 12.0008 12.4751V12.2751C11.9279 12.2751 11.8579 12.2462 11.8064 12.1946L11.665 12.3361ZM6.62495 7.29605L11.6649 12.3361L11.8064 12.1946L6.76637 7.15463L6.62495 7.29605ZM5.49961 4.57522C5.49961 5.59536 5.9043 6.57385 6.62487 7.29598L6.76645 7.15471C6.08328 6.47007 5.69961 5.54239 5.69961 4.57522H5.49961ZM6.62487 1.85446C5.9043 2.57658 5.49961 3.55507 5.49961 4.57522H5.69961C5.69961 3.60804 6.08328 2.68036 6.76645 1.99573L6.62487 1.85446ZM7.87394 1.0184C7.40666 1.21225 6.98221 1.49635 6.62487 1.85446L6.76645 1.99573C7.1052 1.65624 7.50759 1.3869 7.95058 1.20313L7.87394 1.0184ZM9.34803 0.724771C8.84214 0.724771 8.34122 0.824551 7.87394 1.0184L7.95058 1.20313C8.39356 1.01936 8.86844 0.924771 9.34803 0.924771V0.724771ZM10.8221 1.0184C10.3548 0.824551 9.85393 0.724771 9.34803 0.724771V0.924771C9.82763 0.924771 10.3025 1.01936 10.7455 1.20313L10.8221 1.0184ZM12.0712 1.85446C11.7139 1.49635 11.2894 1.21224 10.8221 1.0184L10.7455 1.20313C11.1885 1.3869 11.5909 1.65624 11.9296 1.99573L12.0712 1.85446ZM13.1788 1.0184C12.7115 1.21226 12.287 1.49636 11.9296 1.85445L12.0712 1.99573C12.41 1.65625 12.8124 1.38691 13.2554 1.20313L13.1788 1.0184ZM14.6529 0.724707C14.147 0.724743 13.646 0.824544 13.1788 1.0184L13.2554 1.20313C13.6984 1.01935 14.1733 0.924741 14.6529 0.924707L14.6529 0.724707ZM16.1271 1.01819C15.6597 0.824402 15.1588 0.724671 14.6529 0.724707L14.6529 0.924707C15.1325 0.924673 15.6074 1.01922 16.0504 1.20294L16.1271 1.01819ZM12.0711 11.3993L7.29625 6.62438L7.15482 6.7658L11.9297 11.5407L12.0711 11.3993ZM16.7046 6.62364L11.9297 11.3993L12.0711 11.5407L16.846 6.76505L16.7046 6.62364ZM17.5525 4.57447C17.5525 5.34291 17.2475 6.07994 16.7045 6.62368L16.846 6.765C17.4265 6.18376 17.7525 5.39591 17.7525 4.57447H17.5525ZM16.7045 2.52525C17.2475 3.06899 17.5525 3.80602 17.5525 4.57447H17.7525C17.7525 3.75303 17.4265 2.96517 16.846 2.38393L16.7045 2.52525ZM15.7639 1.89582C16.1158 2.04175 16.4354 2.25564 16.7045 2.52524L16.8461 2.38394C16.5584 2.09573 16.2167 1.86708 15.8405 1.71108L15.7639 1.89582ZM14.6539 1.67477C15.0348 1.67477 15.412 1.74988 15.7639 1.89582L15.8405 1.71108C15.4644 1.55507 15.0611 1.47477 14.6539 1.47477V1.67477ZM13.5439 1.89582C13.8958 1.74988 14.273 1.67477 14.6539 1.67477V1.47477C14.2467 1.47477 13.8435 1.55507 13.4673 1.71108L13.5439 1.89582ZM12.6033 2.52524C12.8724 2.25564 13.1921 2.04175 13.5439 1.89582L13.4673 1.71108C13.0912 1.86708 12.7495 2.09573 12.4618 2.38394L12.6033 2.52524ZM12.3362 2.7923L12.6032 2.5253L12.4618 2.38388L12.1948 2.65088L12.3362 2.7923ZM12.0004 2.93139C12.1264 2.93139 12.2472 2.88136 12.3362 2.79231L12.1948 2.65087C12.1433 2.70242 12.0733 2.73139 12.0004 2.73139V2.93139ZM11.6646 2.79231C11.7537 2.88136 11.8745 2.93139 12.0004 2.93139V2.73139C11.9275 2.73139 11.8576 2.70242 11.806 2.65087L11.6646 2.79231ZM11.3983 2.52605L11.6646 2.7923L11.806 2.65088L11.5397 2.38463L11.3983 2.52605ZM10.4593 1.89445C10.811 2.04047 11.1301 2.25506 11.398 2.52569L11.5401 2.38499C11.2535 2.09549 10.9122 1.86594 10.5359 1.70974L10.4593 1.89445ZM9.3495 1.67521C9.73031 1.67391 10.1076 1.74844 10.4593 1.89445L10.5359 1.70974C10.1597 1.55354 9.75617 1.47382 9.34882 1.47522L9.3495 1.67521ZM7.73808 2.16333C8.21502 1.84491 8.77566 1.67505 9.34913 1.67522L9.34919 1.47522C8.73617 1.47504 8.13686 1.65662 7.62703 1.997L7.73808 2.16333ZM6.66959 3.46414C6.8893 2.93443 7.26113 2.48175 7.73808 2.16333L7.62703 1.997C7.11719 2.33737 6.71971 2.82127 6.48485 3.38751L6.66959 3.46414ZM6.50369 5.13932C6.39214 4.57681 6.44987 3.99385 6.66959 3.46414L6.48485 3.38751C6.24998 3.95375 6.18827 4.57692 6.30751 5.17822L6.50369 5.13932ZM7.29629 6.62443C6.89107 6.21865 6.61524 5.70184 6.50369 5.13932L6.30751 5.17822C6.42676 5.77953 6.7216 6.33199 7.15478 6.76575L7.29629 6.62443ZM14.2498 4.775H13.1248V4.975H14.2498V4.775ZM14.5857 4.91412C14.4966 4.82504 14.3758 4.775 14.2498 4.775V4.975C14.3228 4.975 14.3927 5.00397 14.4443 5.05555L14.5857 4.91412ZM14.7248 5.25C14.7248 5.12402 14.6748 5.0032 14.5857 4.91412L14.4443 5.05555C14.4959 5.10712 14.5248 5.17707 14.5248 5.25H14.7248ZM14.7248 6.75V5.25H14.5248V6.75H14.7248ZM14.5857 7.08588C14.6748 6.9968 14.7248 6.87598 14.7248 6.75H14.5248C14.5248 6.82293 14.4959 6.89288 14.4443 6.94445L14.5857 7.08588ZM14.2498 7.225C14.3758 7.225 14.4966 7.17496 14.5857 7.08588L14.4443 6.94445C14.3927 6.99603 14.3228 7.025 14.2498 7.025V7.225ZM13.1248 7.225H14.2498V7.025H13.1248V7.225ZM13.2248 8.25V7.125H13.0248V8.25H13.2248ZM13.0857 8.58588C13.1748 8.4968 13.2248 8.37598 13.2248 8.25H13.0248C13.0248 8.32293 12.9959 8.39288 12.9443 8.44445L13.0857 8.58588ZM12.7498 8.725C12.8758 8.725 12.9966 8.67496 13.0857 8.58588L12.9443 8.44445C12.8927 8.49603 12.8228 8.525 12.7498 8.525V8.725ZM11.2498 8.725H12.7498V8.525H11.2498V8.725ZM10.914 8.58588C11.003 8.67496 11.1239 8.725 11.2498 8.725V8.525C11.1769 8.525 11.107 8.49603 11.0554 8.44445L10.914 8.58588ZM10.7748 8.25C10.7748 8.37598 10.8249 8.4968 10.914 8.58588L11.0554 8.44445C11.0038 8.39288 10.9748 8.32293 10.9748 8.25H10.7748ZM10.7748 7.125V8.25H10.9748V7.125H10.7748ZM9.74984 7.225H10.8748V7.025H9.74984V7.225ZM9.41397 7.08588C9.50305 7.17496 9.62387 7.225 9.74984 7.225V7.025C9.67691 7.025 9.60696 6.99603 9.55539 6.94445L9.41397 7.08588ZM9.27484 6.75C9.27484 6.87598 9.32489 6.9968 9.41397 7.08588L9.55539 6.94445C9.50382 6.89288 9.47484 6.82293 9.47484 6.75H9.27484ZM9.27484 5.25V6.75H9.47484V5.25H9.27484ZM9.41397 4.91412C9.32489 5.0032 9.27484 5.12402 9.27484 5.25H9.47484C9.47484 5.17707 9.50382 5.10712 9.55539 5.05555L9.41397 4.91412ZM9.74984 4.775C9.62387 4.775 9.50305 4.82504 9.41397 4.91412L9.55539 5.05555C9.60696 5.00397 9.67691 4.975 9.74984 4.975V4.775ZM10.8748 4.775H9.74984V4.975H10.8748V4.775ZM10.7748 3.75V4.875H10.9748V3.75H10.7748ZM10.914 3.41412C10.8249 3.5032 10.7748 3.62402 10.7748 3.75H10.9748C10.9748 3.67707 11.0038 3.60712 11.0554 3.55555L10.914 3.41412ZM11.2498 3.275C11.1239 3.275 11.003 3.32504 10.914 3.41412L11.0554 3.55555C11.107 3.50397 11.1769 3.475 11.2498 3.475V3.275ZM12.7498 3.275H11.2498V3.475H12.7498V3.275ZM13.0857 3.41412C12.9966 3.32504 12.8758 3.275 12.7498 3.275V3.475C12.8228 3.475 12.8927 3.50397 12.9443 3.55555L13.0857 3.41412ZM13.2248 3.75C13.2248 3.62402 13.1748 3.5032 13.0857 3.41412L12.9443 3.55555C12.9959 3.60712 13.0248 3.67707 13.0248 3.75H13.2248ZM13.2248 4.875V3.75H13.0248V4.875H13.2248ZM13.8748 6.275H12.7498V6.475H13.8748V6.275ZM13.7748 5.625V6.375H13.9748V5.625H13.7748ZM12.7498 5.725H13.8748V5.525H12.7498V5.725ZM12.414 5.58588C12.503 5.67496 12.6239 5.725 12.7498 5.725V5.525C12.6769 5.525 12.607 5.49603 12.5554 5.44445L12.414 5.58588ZM12.2748 5.25C12.2748 5.37598 12.3249 5.4968 12.414 5.58588L12.5554 5.44445C12.5038 5.39288 12.4748 5.32293 12.4748 5.25H12.2748ZM12.2748 4.125V5.25H12.4748V4.125H12.2748ZM11.6248 4.225H12.3748V4.025H11.6248V4.225ZM11.7248 5.25V4.125H11.5248V5.25H11.7248ZM11.5857 5.58588C11.6748 5.4968 11.7248 5.37598 11.7248 5.25H11.5248C11.5248 5.32293 11.4959 5.39288 11.4443 5.44445L11.5857 5.58588ZM11.2498 5.725C11.3758 5.725 11.4966 5.67496 11.5857 5.58588L11.4443 5.44445C11.3927 5.49603 11.3228 5.525 11.2498 5.525V5.725ZM10.1248 5.725H11.2498V5.525H10.1248V5.725ZM10.2248 6.375V5.625H10.0248V6.375H10.2248ZM11.2498 6.275H10.1248V6.475H11.2498V6.275ZM11.5857 6.41412C11.4966 6.32504 11.3758 6.275 11.2498 6.275V6.475C11.3228 6.475 11.3927 6.50397 11.4443 6.55555L11.5857 6.41412ZM11.7248 6.75C11.7248 6.62402 11.6748 6.5032 11.5857 6.41412L11.4443 6.55555C11.4959 6.60712 11.5248 6.67707 11.5248 6.75H11.7248ZM11.7248 7.875V6.75H11.5248V7.875H11.7248ZM12.3748 7.775H11.6248V7.975H12.3748V7.775ZM12.2748 6.75V7.875H12.4748V6.75H12.2748ZM12.414 6.41412C12.3249 6.5032 12.2748 6.62402 12.2748 6.75H12.4748C12.4748 6.67707 12.5038 6.60712 12.5554 6.55555L12.414 6.41412ZM12.7498 6.275C12.6239 6.275 12.503 6.32504 12.414 6.41412L12.5554 6.55555C12.607 6.50397 12.6769 6.475 12.7498 6.475V6.275ZM22.4979 6.89643C22.506 6.82661 22.5099 6.75638 22.5098 6.6861L22.3098 6.6864C22.3099 6.74894 22.3064 6.81144 22.2992 6.87357L22.4979 6.89643ZM23.0399 7.38311C22.8974 7.13953 22.6933 6.93776 22.4481 6.7981L22.3491 6.9719C22.5638 7.09417 22.7425 7.27083 22.8673 7.4841L23.0399 7.38311ZM23.2598 8.18569C23.2583 7.9035 23.1824 7.62669 23.0399 7.38311L22.8673 7.4841C22.9921 7.69737 23.0585 7.93973 23.0598 8.18681L23.2598 8.18569ZM23.2038 8.60262C23.2409 8.46696 23.2597 8.32696 23.2598 8.18633L23.0598 8.18617C23.0598 8.30905 23.0433 8.43136 23.0109 8.54988L23.2038 8.60262ZM21.5765 14.6883L23.2039 8.60208L23.0107 8.55042L21.3832 14.6367L21.5765 14.6883ZM20.9757 15.6565C21.268 15.4008 21.4772 15.0635 21.5765 14.6881L21.3832 14.6369C21.294 14.9739 21.1063 15.2765 20.844 15.506L20.9757 15.6565ZM18.4413 17.9097L20.9763 15.656L20.8434 15.5065L18.3084 17.7603L18.4413 17.9097ZM18.1901 18.2562C18.249 18.1243 18.3348 18.0061 18.4419 17.9092L18.3078 17.7608C18.18 17.8764 18.0777 18.0174 18.0075 18.1747L18.1901 18.2562ZM18.0998 18.6754C18.1005 18.531 18.1312 18.3882 18.1901 18.2562L18.0075 18.1747C17.9373 18.332 17.9006 18.5023 17.8998 18.6746L18.0998 18.6754ZM18.0998 19.5V18.675H17.8998V19.5H18.0998ZM18.3357 19.5391C18.2466 19.45 18.1258 19.4 17.9998 19.4V19.6C18.0728 19.6 18.1427 19.629 18.1943 19.6805L18.3357 19.5391ZM18.4748 19.875C18.4748 19.749 18.4248 19.6282 18.3357 19.5391L18.1943 19.6805C18.2459 19.7321 18.2748 19.8021 18.2748 19.875H18.4748ZM18.4748 22.875V19.875H18.2748V22.875H18.4748ZM18.3357 23.2109C18.4248 23.1218 18.4748 23.001 18.4748 22.875H18.2748C18.2748 22.9479 18.2459 23.0179 18.1943 23.0695L18.3357 23.2109ZM17.9998 23.35C18.1258 23.35 18.2466 23.3 18.3357 23.2109L18.1943 23.0695C18.1427 23.121 18.0728 23.15 17.9998 23.15V23.35ZM12.7498 23.35H17.9998V23.15H12.7498V23.35ZM12.414 23.2109C12.503 23.3 12.6239 23.35 12.7498 23.35V23.15C12.6769 23.15 12.607 23.121 12.5554 23.0695L12.414 23.2109ZM12.2748 22.875C12.2748 23.001 12.3249 23.1218 12.414 23.2109L12.5554 23.0695C12.5038 23.0179 12.4748 22.9479 12.4748 22.875H12.2748ZM12.2748 19.875V22.875H12.4748V19.875H12.2748ZM12.414 19.5391C12.3249 19.6282 12.2748 19.749 12.2748 19.875H12.4748C12.4748 19.8021 12.5038 19.7321 12.5554 19.6805L12.414 19.5391ZM12.7498 19.4C12.6239 19.4 12.503 19.45 12.414 19.5391L12.5554 19.6805C12.607 19.629 12.6769 19.6 12.7498 19.6V19.4ZM12.6498 15.9675V19.5H12.8498V15.9675H12.6498ZM13.1112 14.2412C12.8099 14.7667 12.6508 15.3616 12.6498 15.9673L12.8498 15.9677C12.8508 15.3968 13.0007 14.836 13.2847 14.3407L13.1112 14.2412ZM14.3679 12.9713C13.8457 13.2781 13.4125 13.7158 13.1112 14.2412L13.2847 14.3407C13.5687 13.8455 13.977 13.4329 14.4692 13.1437L14.3679 12.9713ZM17.683 11.0287L14.368 12.9712L14.4692 13.1438L17.7842 11.2013L17.683 11.0287ZM17.7679 10.9883C17.7395 10.9996 17.7118 11.0127 17.6851 11.0276L17.7821 11.2024C17.8014 11.1917 17.8213 11.1823 17.8417 11.1742L17.7679 10.9883ZM19.3604 6.30092L17.7104 11.0484L17.8993 11.1141L19.5493 6.36658L19.3604 6.30092ZM20.0629 5.34461C19.7143 5.56493 19.4624 5.90945 19.3581 6.30847L19.5516 6.35903C19.643 6.00907 19.864 5.70691 20.1698 5.51369L20.0629 5.34461ZM21.236 5.12176C20.8309 5.04464 20.4116 5.1243 20.0629 5.34461L20.1698 5.51369C20.4756 5.32046 20.8433 5.2506 21.1986 5.31824L21.236 5.12176ZM22.1495 5.67995C21.9182 5.39558 21.5967 5.19879 21.2382 5.12221L21.1965 5.31779C21.5103 5.38485 21.7918 5.55715 21.9943 5.80614L22.1495 5.67995ZM22.5098 6.68572C22.5079 6.31918 22.3808 5.96432 22.1495 5.67995L21.9943 5.80614C22.1968 6.05513 22.3081 6.36585 22.3098 6.68678L22.5098 6.68572ZM20.2684 6.57809C20.3086 6.40864 20.4112 6.26057 20.5558 6.1634L20.4442 5.99742C20.2579 6.12265 20.1256 6.3135 20.0738 6.53191L20.2684 6.57809ZM18.7468 10.9603L20.2656 6.58781L20.0766 6.52219L18.5579 10.8947L18.7468 10.9603ZM19.1977 10.9796C19.0292 10.8997 18.8486 10.8485 18.6633 10.8281L18.6414 11.0269C18.8046 11.0449 18.9636 11.09 19.112 11.1604L19.1977 10.9796ZM20.106 7.81042L19.0597 11.0392L19.25 11.1008L20.2962 7.87208L20.106 7.81042ZM20.676 6.94396C20.3955 7.16457 20.1948 7.47074 20.1044 7.8159L20.2978 7.8666C20.3772 7.5636 20.5534 7.29482 20.7996 7.10116L20.676 6.94396ZM21.658 6.59377C21.3012 6.60039 20.9564 6.72336 20.676 6.94396L20.7996 7.10116C21.0458 6.90749 21.3485 6.79955 21.6617 6.79373L21.658 6.59377ZM21.5598 6.68625V6.69375H21.7598V6.68625H21.5598ZM21.4136 6.27831C21.5077 6.39366 21.5593 6.53779 21.5598 6.68663L21.7598 6.68587C21.7591 6.49125 21.6916 6.30277 21.5686 6.15192L21.4136 6.27831ZM21.0431 6.05288C21.1888 6.08339 21.3196 6.16296 21.4136 6.27831L21.5686 6.15193C21.4456 6.00108 21.2746 5.89702 21.0841 5.85712L21.0431 6.05288ZM20.5558 6.1634C20.7003 6.06623 20.8762 6.0271 21.0483 6.05382L21.0789 5.85618C20.8571 5.82175 20.6305 5.87218 20.4442 5.99742L20.5558 6.1634ZM17.6248 22.4H13.1248V22.6H17.6248V22.4ZM17.5248 20.25V22.5H17.7248V20.25H17.5248ZM13.1248 20.35H17.6248V20.15H13.1248V20.35ZM13.2248 22.5V20.25H13.0248V22.5H13.2248ZM22.287 8.35538L20.6558 14.4454L20.8489 14.4971L22.4802 8.40712L22.287 8.35538ZM22.3099 8.18816C22.3109 8.24391 22.3034 8.29949 22.2877 8.35297L22.4795 8.40953C22.5011 8.33646 22.5113 8.26051 22.5098 8.18434L22.3099 8.18816ZM22.1636 7.77831C22.2577 7.89366 22.3093 8.03779 22.3098 8.18663L22.5098 8.18587C22.5091 7.99125 22.4416 7.80277 22.3186 7.65192L22.1636 7.77831ZM21.7931 7.55288C21.9388 7.58339 22.0696 7.66296 22.1636 7.77831L22.3186 7.65193C22.1956 7.50108 22.0246 7.39702 21.8341 7.35712L21.7931 7.55288ZM21.3058 7.6634C21.4503 7.56623 21.6262 7.5271 21.7983 7.55382L21.8289 7.35618C21.6071 7.32175 21.3805 7.37218 21.1942 7.49742L21.3058 7.6634ZM21.0184 8.07809C21.0586 7.90864 21.1612 7.76057 21.3058 7.6634L21.1942 7.49742C21.0079 7.62265 20.8756 7.8135 20.8238 8.03191L21.0184 8.07809ZM19.8575 11.6596L21.0162 8.08584L20.826 8.02416L19.6672 11.5979L19.8575 11.6596ZM19.868 11.607L19.8456 11.5733L19.6791 11.6842L19.7016 11.718L19.868 11.607ZM20.0315 12.8245C20.1404 12.4152 20.0828 11.9795 19.8715 11.6126L19.6982 11.7124C19.8832 12.0336 19.9335 12.4149 19.8382 12.773L20.0315 12.8245ZM19.7555 13.3862C19.8841 13.2192 19.978 13.0281 20.0316 12.8242L19.8381 12.7733C19.7913 12.9514 19.7093 13.1183 19.597 13.2642L19.7555 13.3862ZM19.2829 13.797C19.4663 13.6929 19.627 13.5533 19.7555 13.3862L19.597 13.2642C19.4848 13.4102 19.3444 13.5322 19.1842 13.623L19.2829 13.797ZM17.1349 15.0378L19.2836 13.7966L19.1836 13.6234L17.0348 14.8647L17.1349 15.0378ZM16.7787 15.0752C16.8963 15.1093 17.0226 15.0966 17.1312 15.0399L17.0385 14.8626C16.9756 14.8955 16.9025 14.9028 16.8344 14.8831L16.7787 15.0752ZM16.4998 14.8567C16.5611 14.9627 16.661 15.041 16.7787 15.0752L16.8344 14.8831C16.7663 14.8633 16.7084 14.818 16.6729 14.7566L16.4998 14.8567ZM16.4497 14.506C16.4205 14.625 16.4385 14.7506 16.4998 14.8567L16.6729 14.7566C16.6374 14.6952 16.627 14.6224 16.6439 14.5535L16.4497 14.506ZM16.6562 14.2181C16.5528 14.2838 16.4788 14.387 16.4497 14.506L16.6439 14.5535C16.6608 14.4847 16.7036 14.4249 16.7635 14.3869L16.6562 14.2181ZM18.8086 12.9747L16.6598 14.2159L16.7599 14.3891L18.9086 13.1478L18.8086 12.9747ZM19.0011 12.8081C18.9486 12.8756 18.8834 12.9321 18.8091 12.9743L18.908 13.1482C19.0052 13.0929 19.0904 13.0191 19.159 12.9308L19.0011 12.8081ZM19.1146 12.5811C19.0921 12.6635 19.0535 12.7406 19.0011 12.8081L19.159 12.9308C19.2275 12.8426 19.278 12.7417 19.3075 12.6339L19.1146 12.5811ZM19.0489 12.0865C19.1337 12.2373 19.1571 12.4151 19.1142 12.5827L19.308 12.6323C19.3636 12.4148 19.3333 12.1842 19.2233 11.9885L19.0489 12.0865ZM18.8818 11.896C18.9497 11.9482 19.0067 12.0132 19.0494 12.0874L19.2228 11.9876C19.1669 11.8905 19.0924 11.8055 19.0035 11.7373L18.8818 11.896ZM18.6535 11.7837C18.7362 11.8057 18.8138 11.8439 18.8818 11.896L19.0035 11.7373C18.9146 11.6692 18.8132 11.6193 18.705 11.5904L18.6535 11.7837ZM18.3996 11.7676C18.4845 11.7562 18.5707 11.7616 18.6535 11.7837L18.705 11.5904C18.5968 11.5616 18.4839 11.5544 18.3729 11.5694L18.3996 11.7676ZM18.1589 11.8502C18.2329 11.807 18.3147 11.779 18.3996 11.7676L18.3729 11.5694C18.262 11.5843 18.155 11.621 18.0583 11.6773L18.1589 11.8502ZM14.8479 13.7888L18.1591 11.85L18.0581 11.6775L14.7468 13.6162L14.8479 13.7888ZM13.9364 14.7135C14.1553 14.3315 14.4694 14.0128 14.8483 13.7886L14.7464 13.6164C14.3378 13.8583 13.9989 14.202 13.7629 14.614L13.9364 14.7135ZM13.5998 15.9679C13.6016 15.5277 13.7176 15.0955 13.9364 14.7135L13.7629 14.614C13.5269 15.0261 13.4018 15.4923 13.3998 15.9671L13.5998 15.9679ZM13.5998 19.5V15.9675H13.3998V19.5H13.5998ZM17.2498 19.4H13.4998V19.6H17.2498V19.4ZM17.1498 18.675V19.5H17.3498V18.675H17.1498ZM17.3233 17.8667C17.2097 18.121 17.1507 18.3962 17.1498 18.6747L17.3498 18.6753C17.3506 18.4247 17.4037 18.1771 17.5059 17.9483L17.3233 17.8667ZM17.8091 17.1982C17.6023 17.3847 17.4368 17.6124 17.3233 17.8667L17.5059 17.9483C17.6081 17.7195 17.757 17.5146 17.9431 17.3468L17.8091 17.1982ZM20.3485 14.944L17.8097 17.1977L17.9425 17.3473L20.4812 15.0935L20.3485 14.944ZM20.6557 14.4455C20.6043 14.6382 20.4975 14.8115 20.3484 14.944L20.4813 15.0935C20.6596 14.935 20.7875 14.7276 20.849 14.497L20.6557 14.4455ZM11.3498 19.5V15.9675H11.1498V19.5H11.3498ZM11.5857 19.5391C11.4966 19.45 11.3758 19.4 11.2498 19.4V19.6C11.3228 19.6 11.3927 19.629 11.4443 19.6805L11.5857 19.5391ZM11.7248 19.875C11.7248 19.749 11.6748 19.6282 11.5857 19.5391L11.4443 19.6805C11.4959 19.7321 11.5248 19.8021 11.5248 19.875H11.7248ZM11.7248 22.875V19.875H11.5248V22.875H11.7248ZM11.5857 23.2109C11.6748 23.1218 11.7248 23.001 11.7248 22.875H11.5248C11.5248 22.9479 11.4959 23.0179 11.4443 23.0695L11.5857 23.2109ZM11.2498 23.35C11.3758 23.35 11.4966 23.3 11.5857 23.2109L11.4443 23.0695C11.3927 23.121 11.3228 23.15 11.2498 23.15V23.35ZM5.99984 23.35H11.2498V23.15H5.99984V23.35ZM5.66397 23.2109C5.75305 23.3 5.87387 23.35 5.99984 23.35V23.15C5.92691 23.15 5.85696 23.121 5.80539 23.0695L5.66397 23.2109ZM5.52484 22.875C5.52484 23.001 5.57489 23.1218 5.66397 23.2109L5.80539 23.0695C5.75382 23.0179 5.72484 22.9479 5.72484 22.875H5.52484ZM5.52484 19.875V22.875H5.72484V19.875H5.52484ZM5.66397 19.5391C5.57489 19.6282 5.52484 19.749 5.52484 19.875H5.72484C5.72484 19.8021 5.75382 19.7321 5.80539 19.6805L5.66397 19.5391ZM5.99984 19.4C5.87387 19.4 5.75305 19.45 5.66397 19.5391L5.80539 19.6805C5.85696 19.629 5.92691 19.6 5.99984 19.6V19.4ZM5.89984 18.675V19.5H6.09984V18.675H5.89984ZM5.80886 18.2557C5.86834 18.3876 5.89935 18.5306 5.89984 18.6753L6.09984 18.6747C6.09925 18.5018 6.06222 18.3311 5.99118 18.1735L5.80886 18.2557ZM5.55463 17.9097C5.66275 18.0059 5.74938 18.1238 5.80886 18.2557L5.99118 18.1735C5.92014 18.016 5.81669 17.8752 5.68756 17.7603L5.55463 17.9097ZM3.02335 15.6559L5.5546 17.9097L5.68759 17.7603L3.15634 15.5066L3.02335 15.6559ZM2.42308 14.684C2.52135 15.0611 2.73072 15.3999 3.024 15.6565L3.15569 15.506C2.89259 15.2758 2.70477 14.9718 2.61661 14.6335L2.42308 14.684ZM0.792007 8.60215L2.42326 14.6847L2.61643 14.6328L0.985181 8.55035L0.792007 8.60215ZM0.739845 8.1868C0.740618 8.32621 0.75797 8.46502 0.791536 8.60033L0.985652 8.55217C0.955904 8.43226 0.940527 8.30924 0.939842 8.1857L0.739845 8.1868ZM0.959761 7.38311C0.817262 7.62669 0.741414 7.9035 0.739845 8.18569L0.939842 8.18681C0.941216 7.93973 1.00763 7.69737 1.13239 7.4841L0.959761 7.38311ZM1.55161 6.7981C1.30638 6.93776 1.10226 7.13953 0.959761 7.38311L1.13239 7.4841C1.25716 7.27083 1.43588 7.09417 1.65058 6.9719L1.55161 6.7981ZM1.48984 6.6861C1.48974 6.75638 1.49372 6.82661 1.50175 6.89643L1.70044 6.87357C1.69329 6.81144 1.68975 6.74894 1.68984 6.6864L1.48984 6.6861ZM1.85021 5.67995C1.61893 5.96432 1.49178 6.31918 1.48985 6.68572L1.68984 6.68678C1.69154 6.36585 1.80287 6.05513 2.00537 5.80614L1.85021 5.67995ZM2.76145 5.12221C2.403 5.19879 2.08148 5.39558 1.85021 5.67995L2.00537 5.80614C2.20787 5.55715 2.48938 5.38485 2.80324 5.31779L2.76145 5.12221ZM3.94895 5.35475C3.59804 5.12922 3.17437 5.04587 2.76417 5.12167L2.80051 5.31834C3.16069 5.25178 3.5327 5.32497 3.84082 5.523L3.94895 5.35475ZM4.65309 6.33568C4.55166 5.93106 4.29987 5.58029 3.94895 5.35475L3.84082 5.523C4.14895 5.72104 4.37003 6.02903 4.4591 6.38432L4.65309 6.33568ZM6.28932 11.0485L4.65056 6.32721L4.46162 6.39279L6.10037 11.114L6.28932 11.0485ZM6.26637 11.0029C6.2533 10.9979 6.24574 10.9949 6.23956 10.9918L6.15012 11.1707C6.16645 11.1789 6.18326 11.1852 6.19457 11.1896L6.26637 11.0029ZM6.31081 11.0218C6.29449 11.0136 6.27768 11.0073 6.26637 11.0029L6.19457 11.1896C6.20763 11.1946 6.2152 11.1976 6.22137 11.2007L6.31081 11.0218ZM9.63172 12.9713L6.31672 11.025L6.21546 11.1975L9.53046 13.1437L9.63172 12.9713ZM10.8885 14.2412C10.5872 13.7158 10.154 13.2781 9.63174 12.9713L9.53045 13.1437C10.0227 13.4329 10.431 13.8455 10.715 14.3407L10.8885 14.2412ZM11.3498 15.9673C11.3488 15.3616 11.1898 14.7667 10.8885 14.2412L10.715 14.3407C10.999 14.836 11.1489 15.3968 11.1498 15.9677L11.3498 15.9673ZM2.43984 6.68652C2.44024 6.53814 2.4914 6.39436 2.58481 6.27907L2.42942 6.15317C2.30727 6.30393 2.24037 6.49194 2.23984 6.68598L2.43984 6.68652ZM2.43984 6.69375V6.68625H2.23984V6.69375H2.43984ZM3.33044 6.95318C3.04888 6.72924 2.70206 6.60307 2.34243 6.59378L2.33726 6.79372C2.65346 6.80189 2.95839 6.91281 3.20594 7.1097L3.33044 6.95318ZM3.90292 7.83499C3.81295 7.48667 3.61199 7.17712 3.33043 6.95318L3.20594 7.1097C3.45348 7.3066 3.63017 7.57876 3.70927 7.88501L3.90292 7.83499ZM4.93999 11.0392L3.90124 7.82921L3.71095 7.89079L4.7497 11.1008L4.93999 11.0392ZM5.33639 10.8281C5.15106 10.8485 4.97045 10.8997 4.80199 10.9796L4.8877 11.1604C5.03605 11.09 5.1951 11.0449 5.3583 11.0269L5.33639 10.8281ZM3.74537 6.61402L5.25287 10.9603L5.44182 10.8947L3.93432 6.54848L3.74537 6.61402ZM3.45222 6.1723C3.59976 6.27411 3.70335 6.42794 3.74222 6.60293L3.93746 6.55957C3.88765 6.3353 3.75489 6.13817 3.56582 6.00769L3.45222 6.1723ZM2.94671 6.05396C3.12411 6.02821 3.30468 6.07048 3.45222 6.1723L3.56582 6.00769C3.37674 5.87721 3.14532 5.82304 2.91798 5.85604L2.94671 6.05396ZM2.58481 6.27907C2.67823 6.16379 2.80827 6.08393 2.95334 6.05277L2.91134 5.85723C2.72163 5.89798 2.55157 6.00241 2.42942 6.15317L2.58481 6.27907ZM6.18629 17.1978L3.65129 14.944L3.5184 15.0935L6.0534 17.3472L6.18629 17.1978ZM6.67545 17.8657C6.56115 17.6112 6.39453 17.3837 6.18644 17.1979L6.05324 17.3471C6.24038 17.5142 6.39022 17.7188 6.49301 17.9476L6.67545 17.8657ZM6.84984 18.6748C6.84917 18.3958 6.78975 18.1201 6.67545 17.8657L6.49301 17.9476C6.5958 18.1765 6.64924 18.4244 6.64984 18.6752L6.84984 18.6748ZM6.84984 19.5V18.675H6.64984V19.5H6.84984ZM10.4998 19.4H6.74984V19.6H10.4998V19.4ZM10.3998 15.9675V19.5H10.5998V15.9675H10.3998ZM10.0633 14.7135C10.2821 15.0955 10.3981 15.5277 10.3998 15.9679L10.5998 15.9671C10.5979 15.4923 10.4728 15.0261 10.2368 14.614L10.0633 14.7135ZM9.15141 13.7886C9.53025 14.0128 9.84444 14.3315 10.0633 14.7135L10.2368 14.614C10.0008 14.202 9.6619 13.8583 9.25328 13.6164L9.15141 13.7886ZM5.83679 11.8463L9.15179 13.7888L9.2529 13.6162L5.9379 11.6737L5.83679 11.8463ZM5.59719 11.7659C5.68186 11.7768 5.76354 11.8043 5.83759 11.8467L5.9371 11.6733C5.84026 11.6177 5.73344 11.5818 5.62272 11.5675L5.59719 11.7659ZM5.34416 11.7832C5.42655 11.7609 5.51253 11.755 5.59719 11.7659L5.62272 11.5675C5.51201 11.5533 5.39957 11.561 5.29183 11.5902L5.34416 11.7832ZM5.11701 11.8961C5.18458 11.8439 5.26177 11.8056 5.34416 11.7832L5.29183 11.5902C5.18409 11.6194 5.08316 11.6695 4.9948 11.7378L5.11701 11.8961ZM4.95034 12.0872C4.99281 12.0132 5.04944 11.9482 5.11701 11.8961L4.9948 11.7378C4.90644 11.806 4.83238 11.8909 4.77685 11.9878L4.95034 12.0872ZM4.88547 12.5827C4.84259 12.4151 4.86597 12.2373 4.95077 12.0865L4.77642 11.9885C4.66641 12.1842 4.63607 12.4148 4.69171 12.6323L4.88547 12.5827ZM4.99864 12.8081C4.94622 12.7406 4.90762 12.6635 4.88504 12.5811L4.69215 12.6339C4.72167 12.7417 4.77215 12.8426 4.8407 12.9308L4.99864 12.8081ZM5.19054 12.9743C5.11627 12.9321 5.05106 12.8756 4.99864 12.8081L4.8407 12.9308C4.90925 13.0191 4.99452 13.0929 5.09165 13.1482L5.19054 12.9743ZM7.33986 14.2159L5.19111 12.9747L5.09107 13.1478L7.23982 14.3891L7.33986 14.2159ZM7.55003 14.506C7.52088 14.387 7.44688 14.2838 7.34349 14.2181L7.2362 14.3869C7.29605 14.4249 7.3389 14.4847 7.35577 14.5535L7.55003 14.506ZM7.49991 14.8567C7.56122 14.7506 7.57917 14.625 7.55003 14.506L7.35577 14.5535C7.37264 14.6224 7.36225 14.6952 7.32675 14.7566L7.49991 14.8567ZM7.22101 15.0752C7.33867 15.041 7.4386 14.9627 7.49991 14.8567L7.32675 14.7566C7.29126 14.818 7.23341 14.8633 7.16529 14.8831L7.22101 15.0752ZM6.86849 15.0399C6.97705 15.0966 7.10335 15.1093 7.22101 15.0752L7.16529 14.8831C7.09717 14.9028 7.02405 14.8955 6.9612 14.8626L6.86849 15.0399ZM4.71607 13.7966L6.86482 15.0378L6.96486 14.8647L4.81611 13.6234L4.71607 13.7966ZM4.24414 13.3862C4.37271 13.5533 4.53339 13.6929 4.71675 13.797L4.81544 13.623C4.65529 13.5322 4.51494 13.4102 4.40264 13.2642L4.24414 13.3862ZM3.96813 12.8242C4.02173 13.0281 4.11557 13.2192 4.24414 13.3862L4.40264 13.2642C4.29034 13.1183 4.20837 12.9514 4.16156 12.7733L3.96813 12.8242ZM4.12819 11.6126C3.91685 11.9795 3.85933 12.4152 3.96821 12.8245L4.16148 12.773C4.0662 12.4149 4.11653 12.0336 4.3015 11.7124L4.12819 11.6126ZM4.15414 11.5733L4.13164 11.607L4.29805 11.718L4.32055 11.6842L4.15414 11.5733ZM2.99096 8.10456L4.14221 11.6596L4.33248 11.5979L3.18123 8.04294L2.99096 8.10456ZM2.69938 7.6692C2.8462 7.76971 2.9495 7.92209 2.98853 8.09568L3.18366 8.05182C3.13355 7.82891 3.00089 7.63324 2.81237 7.50417L2.69938 7.6692ZM2.19719 7.55389C2.37314 7.52748 2.55257 7.56868 2.69938 7.6692L2.81237 7.50417C2.62385 7.3751 2.39344 7.3222 2.1675 7.35611L2.19719 7.55389ZM1.83481 7.77907C1.92823 7.66379 2.05827 7.58393 2.20334 7.55277L2.16134 7.35723C1.97163 7.39798 1.80157 7.50241 1.67942 7.65317L1.83481 7.77907ZM1.68984 8.18652C1.69024 8.03814 1.7414 7.89436 1.83481 7.77907L1.67942 7.65317C1.55726 7.80393 1.49037 7.99194 1.48984 8.18598L1.68984 8.18652ZM1.70951 8.35762C1.69594 8.30182 1.68933 8.24456 1.68984 8.18713L1.48985 8.18537C1.48919 8.2593 1.4977 8.33304 1.51518 8.40488L1.70951 8.35762ZM3.34392 14.4416L1.70892 8.35531L1.51577 8.40719L3.15077 14.4934L3.34392 14.4416ZM3.65127 14.944C3.50147 14.8109 3.39457 14.6363 3.34412 14.4423L3.15056 14.4927C3.21098 14.725 3.33901 14.9341 3.51842 15.0935L3.65127 14.944ZM10.8748 22.4H6.37484V22.6H10.8748V22.4ZM10.7748 20.25V22.5H10.9748V20.25H10.7748ZM6.37484 20.35H10.8748V20.15H6.37484V20.35ZM6.47484 22.5V20.25H6.27484V22.5H6.47484Z" fill="#0E140F" mask="url(#path-1-outside-1_178_83)"/>
</g>
</g>
<defs>
<clipPath id="clip0_178_83">
<rect width="24" height="24" fill="white"/>
</clipPath>
</defs>
</svg>
